SplineFontDB: 3.0
FontName: Jost-Heavy
FullName: Jost* 800 Heavy
FamilyName: Jost* Heavy
Weight: Heavy
Copyright: Copyright (c) 2018, Owen Earl,,,
UComments: "2018-6-8: Created with FontForge (http://fontforge.org)"
Version: 003.400
ItalicAngle: 0
UnderlinePosition: -100
UnderlineWidth: 50
Ascent: 800
Descent: 200
InvalidEm: 0
LayerCount: 2
Layer: 0 0 "Back" 1
Layer: 1 0 "Fore" 0
XUID: [1021 69 1495626776 4534362]
FSType: 0
OS2Version: 0
OS2_WeightWidthSlopeOnly: 0
OS2_UseTypoMetrics: 0
CreationTime: 1528479348
ModificationTime: 1562964780
PfmFamily: 17
TTFWeight: 800
TTFWidth: 5
LineGap: 100
VLineGap: 0
OS2TypoAscent: 825
OS2TypoAOffset: 0
OS2TypoDescent: -225
OS2TypoDOffset: 0
OS2TypoLinegap: 100
OS2WinAscent: 900
OS2WinAOffset: 0
OS2WinDescent: 300
OS2WinDOffset: 0
HheadAscent: 1030
HheadAOffset: 0
HheadDescent: -350
HheadDOffset: 0
OS2CapHeight: 700
OS2XHeight: 460
OS2Vendor: 'PfEd'
Lookup: 1 0 0 "alt a" { "alt a"  } ['ss01' ('DFLT' <'dflt' > 'latn' <'dflt' > ) ]
Lookup: 1 0 0 "Tabular Numbers lookup" { "Tabular Numbers lookup"  } ['tnum' ('DFLT' <'dflt' > 'grek' <'dflt' > 'latn' <'dflt' > ) ]
Lookup: 258 0 0 "Lets get our kern on" { "kernin like nobodys business" [150,0,0] } ['kern' ('DFLT' <'dflt' > 'latn' <'dflt' > ) ]
MarkAttachClasses: 1
DEI: 91125
KernClass2: 16 14 "kernin like nobodys business"
 43 slash seven V W Wcircumflex uni040E uni0423
 175 quotedbl quotesingle asterisk grave dieresis ordfeminine macron degree acute ordmasculine circumflex breve dotaccent ring tilde quoteleft quoteright quotedblleft quotedblright
 25 nine question F P uni0420
 131 A L backslash Agrave Aacute Acircumflex Atilde Adieresis Aring Amacron Abreve Aogonek Lacute uni013B Lslash uni0410 uni0414 uni041C
 58 three eight B C germandbls uni0411 uni0412 uni0417 uni0421
 29 K X Z uni0416 uni041A uni0425
 157 at D G O Ograve Oacute Ocircumflex Otilde Odieresis Oslash Dcaron Dcroat Gcircumflex Gbreve Gdotaccent uni0122 Omacron Obreve uni041E uni0424 uni042D uni042E

StartChar: H
Encoding: 72 72 0
Width: 807
VWidth: 0
Flags: HMW
LayerCount: 2
Fore
SplineSet
119 280 m 1
 119 452 l 1
 663 452 l 1
 663 280 l 1
 119 280 l 1
542 700 m 1
 736 700 l 1
 736 0 l 1
 542 0 l 1
 542 700 l 1
72 700 m 1
 266 700 l 1
 266 0 l 1
 72 0 l 1
 72 700 l 1
EndSplineSet
EndChar

StartChar: O
Encoding: 79 79 1
Width: 830
VWidth: 0
Flags: HMW
LayerCount: 2
Fore
SplineSet
238 350 m 0
 238 236 306 158 415 158 c 0
 524 158 593 236 593 350 c 0
 593 464 528 542 415 542 c 0
 306 542 238 464 238 350 c 0
32 350 m 0
 32 570 199 718 415 718 c 0
 635 718 798 570 798 350 c 0
 798 130 639 -26 415 -26 c 0
 191 -26 32 130 32 350 c 0
EndSplineSet
EndChar

StartChar: I
Encoding: 73 73 2
Width: 341
VWidth: 0
Flags: HMW
LayerCount: 2
Fore
SplineSet
72 700 m 1
 270 700 l 1
 270 0 l 1
 72 0 l 1
 72 700 l 1
EndSplineSet
EndChar

StartChar: C
Encoding: 67 67 3
Width: 704
VWidth: 0
Flags: HMW
LayerCount: 2
Fore
SplineSet
244 350 m 0
 244 231 333 165 439 165 c 0
 538 165 598 209 643 255 c 1
 643 51 l 1
 587 10 528 -18 426 -18 c 0
 192 -18 32 129 32 350 c 0
 32 571 192 718 426 718 c 0
 528 718 587 690 643 649 c 1
 643 445 l 1
 598 491 538 535 439 535 c 0
 333 535 244 469 244 350 c 0
EndSplineSet
EndChar

StartChar: E
Encoding: 69 69 4
Width: 618
VWidth: 0
Flags: HMW
LayerCount: 2
Fore
SplineSet
204 0 m 1
 204 157 l 1
 557 157 l 1
 557 0 l 1
 204 0 l 1
204 543 m 1
 204 700 l 1
 557 700 l 1
 557 543 l 1
 204 543 l 1
204 288 m 1
 204 440 l 1
 537 440 l 1
 537 288 l 1
 204 288 l 1
72 700 m 1
 258 700 l 1
 258 0 l 1
 72 0 l 1
 72 700 l 1
EndSplineSet
EndChar

StartChar: F
Encoding: 70 70 6
Width: 568
VWidth: 0
Flags: HMW
LayerCount: 2
Fore
SplineSet
204 535 m 1
 204 700 l 1
 517 700 l 1
 517 535 l 1
 204 535 l 1
204 263 m 1
 204 416 l 1
 507 416 l 1
 507 263 l 1
 204 263 l 1
72 700 m 1
 258 700 l 1
 258 0 l 1
 72 0 l 1
 72 700 l 1
EndSplineSet
EndChar

StartChar: G
Encoding: 71 71 7
Width: 825
VWidth: 0
Flags: HMW
LayerCount: 2
Fore
SplineSet
425 247 m 1
 425 391 l 1
 788 391 l 1
 804 161 669 -26 423 -26 c 0
 195 -26 32 125 32 350 c 0
 32 575 203 718 431 718 c 0
 584 718 687 644 755 547 c 1
 578 463 l 1
 550 513 506 552 431 552 c 0
 323 552 235 481 235 350 c 0
 235 219 315 140 431 140 c 0
 523 140 574 184 597 247 c 1
 425 247 l 1
EndSplineSet
EndChar

StartChar: T
Encoding: 84 84 8
Width: 590
VWidth: 0
Flags: HMW
LayerCount: 2
Fore
SplineSet
2 527 m 1
 2 700 l 1
 588 700 l 1
 588 527 l 1
 392 527 l 1
 392 0 l 1
 198 0 l 1
 198 527 l 1
 2 527 l 1
EndSplineSet
EndChar

StartChar: L
Encoding: 76 76 9
Width: 550
VWidth: 0
Flags: HMW
LayerCount: 2
Fore
SplineSet
72 700 m 1
 266 700 l 1
 266 165 l 1
 549 165 l 1
 549 0 l 1
 72 0 l 1
 72 700 l 1
EndSplineSet
EndChar

StartChar: D
Encoding: 68 68 10
Width: 748
VWidth: 0
Flags: HMW
LayerCount: 2
Fore
SplineSet
72 700 m 1
 273 700 l 1
 273 0 l 1
 72 0 l 1
 72 700 l 1
334 0 m 2
 204 0 l 1
 204 170 l 1
 326 170 l 2
 419 170 515 203 515 350 c 0
 515 497 419 530 326 530 c 2
 204 530 l 1
 204 700 l 1
 334 700 l 2
 570 700 717 567 717 350 c 0
 717 133 570 0 334 0 c 2
EndSplineSet
EndChar

StartChar: Q
Encoding: 81 81 11
Width: 885
VWidth: 0
Flags: HMW
LayerCount: 2
Fore
SplineSet
238 350 m 0
 238 220 326 142 435 142 c 0
 544 142 617 212 617 326 c 0
 617 440 548 542 419 542 c 0
 310 542 238 464 238 350 c 0
32 350 m 0
 32 570 203 718 419 718 c 0
 639 718 798 570 798 350 c 0
 798 130 643 -26 419 -26 c 0
 195 -26 32 130 32 350 c 0
350 300 m 1
 545 300 l 1
 893 -16 l 1
 690 -16 l 1
 350 300 l 1
EndSplineSet
EndChar

StartChar: A
Encoding: 65 65 12
Width: 756
VWidth: 0
Flags: HMW
LayerCount: 2
Fore
SplineSet
195 113 m 1
 201 256 l 1
 560 256 l 1
 565 113 l 1
 195 113 l 1
378 413 m 1
 286 204 l 1
 299 160 l 1
 217 0 l 1
 -3 0 l 1
 378 747 l 1
 760 0 l 1
 540 0 l 1
 460 153 l 1
 471 203 l 1
 378 413 l 1
EndSplineSet
EndChar

StartChar: R
Encoding: 82 82 13
Width: 672
VWidth: 0
Flags: HMW
LayerCount: 2
Fore
SplineSet
261 309 m 1
 462 309 l 1
 671 0 l 1
 445 0 l 1
 261 309 l 1
72 700 m 1
 266 700 l 1
 266 0 l 1
 72 0 l 1
 72 700 l 1
196 536 m 1
 196 700 l 1
 347 700 l 2
 538 700 629 603 629 466 c 0
 629 329 538 232 347 232 c 2
 196 232 l 1
 196 379 l 1
 330 379 l 2
 392 379 427 408 427 458 c 0
 427 508 392 536 330 536 c 2
 196 536 l 1
EndSplineSet
EndChar

StartChar: V
Encoding: 86 86 14
Width: 756
VWidth: 0
Flags: HMW
LayerCount: 2
Fore
SplineSet
378 320 m 1
 532 700 l 1
 760 700 l 1
 378 -47 l 1
 -3 700 l 1
 225 700 l 1
 378 320 l 1
EndSplineSet
EndChar

StartChar: M
Encoding: 77 77 15
Width: 914
VWidth: 0
Flags: HMW
LayerCount: 2
Fore
SplineSet
277 322 m 1
 238 0 l 1
 32 0 l 1
 153 735 l 1
 457 332 l 1
 762 735 l 1
 883 0 l 1
 677 0 l 1
 638 322 l 1
 457 65 l 1
 277 322 l 1
EndSplineSet
EndChar

StartChar: W
Encoding: 87 87 16
Width: 1086
VWidth: 0
Flags: HMW
LayerCount: 2
Fore
SplineSet
738 317 m 1
 853 700 l 1
 1085 700 l 1
 774 -43 l 1
 543 343 l 1
 313 -43 l 1
 2 700 l 1
 234 700 l 1
 349 317 l 1
 543 735 l 1
 738 317 l 1
EndSplineSet
EndChar

StartChar: N
Encoding: 78 78 17
Width: 798
VWidth: 0
Flags: HMW
LayerCount: 2
Fore
SplineSet
541 700 m 1
 727 700 l 1
 727 -35 l 1
 258 356 l 1
 258 0 l 1
 72 0 l 1
 72 735 l 1
 541 344 l 1
 541 700 l 1
EndSplineSet
EndChar

StartChar: a
Encoding: 97 97 18
Width: 561
VWidth: 0
Flags: HMW
LayerCount: 2
Fore
SplineSet
196 138 m 0
 196 109 222 97 252 97 c 0
 300 97 345 118 345 188 c 1
 361 130 l 1
 361 41 287 -10 192 -10 c 0
 90 -10 22 40 22 130 c 0
 22 219 101 277 222 277 c 0
 286 277 356 254 378 231 c 1
 378 153 l 1
 347 177 316 189 266 189 c 0
 223 189 196 168 196 138 c 0
119 309 m 1
 64 422 l 1
 122 447 201 474 284 474 c 0
 413 474 510 419 510 322 c 2
 510 0 l 1
 345 0 l 1
 345 283 l 2
 345 320 318 346 268 346 c 0
 202 346 141 321 119 309 c 1
EndSplineSet
Substitution2: "alt a" a.alt
EndChar

StartChar: X
Encoding: 88 88 19
Width: 724
VWidth: 0
Flags: HMW
LayerCount: 2
Fore
SplineSet
466 700 m 1
 708 700 l 1
 485 356 l 1
 722 0 l 1
 481 0 l 1
 364 215 l 1
 243 0 l 1
 2 0 l 1
 246 356 l 1
 27 700 l 1
 268 700 l 1
 366 514 l 1
 466 700 l 1
EndSplineSet
EndChar

StartChar: K
Encoding: 75 75 20
Width: 739
VWidth: 0
Flags: HMW
LayerCount: 2
Fore
SplineSet
72 700 m 1
 274 700 l 1
 274 0 l 1
 72 0 l 1
 72 700 l 1
500 700 m 1
 727 700 l 1
 449 372 l 1
 742 0 l 1
 507 0 l 1
 218 366 l 1
 500 700 l 1
EndSplineSet
EndChar

StartChar: Y
Encoding: 89 89 21
Width: 689
VWidth: 0
Flags: HMW
LayerCount: 2
Fore
SplineSet
468 700 m 1
 692 700 l 1
 444 280 l 1
 444 0 l 1
 246 0 l 1
 246 278 l 1
 -3 700 l 1
 221 700 l 1
 345 455 l 1
 468 700 l 1
EndSplineSet
EndChar

StartChar: B
Encoding: 66 66 22
Width: 695
VWidth: 0
Flags: HMW
LayerCount: 2
Fore
SplineSet
216 342 m 1
 216 423 l 1
 329 423 l 2
 383 423 411 448 411 490 c 0
 411 532 383 552 329 552 c 2
 266 552 l 1
 266 148 l 1
 347 148 l 2
 405 148 451 162 451 224 c 0
 451 278 405 292 347 292 c 2
 216 292 l 1
 216 398 l 1
 371 398 l 2
 506 398 653 339 653 194 c 0
 653 55 546 0 371 0 c 2
 72 0 l 1
 72 700 l 1
 353 700 l 2
 502 700 613 640 613 521 c 0
 613 406 502 342 353 342 c 2
 216 342 l 1
EndSplineSet
EndChar

StartChar: Z
Encoding: 90 90 23
Width: 641
VWidth: 0
Flags: HMW
LayerCount: 2
Fore
SplineSet
63 527 m 1
 63 700 l 1
 630 700 l 1
 310 165 l 1
 590 165 l 1
 590 0 l 1
 7 0 l 1
 321 527 l 1
 63 527 l 1
EndSplineSet
EndChar

StartChar: o
Encoding: 111 111 24
Width: 602
VWidth: 0
Flags: HMW
LayerCount: 2
Fore
SplineSet
31 230 m 0
 31 377 146 471 301 471 c 0
 456 471 571 377 571 230 c 0
 571 83 456 -10 301 -10 c 0
 146 -10 31 83 31 230 c 0
209 230 m 0
 209 166 251 130 301 130 c 0
 351 130 394 166 394 230 c 0
 394 294 351 331 301 331 c 0
 251 331 209 294 209 230 c 0
EndSplineSet
EndChar

StartChar: J
Encoding: 74 74 25
Width: 356
VWidth: 0
Flags: HMW
LayerCount: 2
Fore
SplineSet
-73 -52 m 1
 -51 -69 -20 -84 8 -84 c 0
 38 -84 72 -64 72 -6 c 2
 72 700 l 1
 285 700 l 1
 285 -52 l 2
 285 -193 165 -244 31 -244 c 0
 -54 -244 -133 -214 -180 -186 c 1
 -73 -52 l 1
EndSplineSet
EndChar

StartChar: t
Encoding: 116 116 26
Width: 340
VWidth: 0
Flags: HMW
LayerCount: 2
Fore
SplineSet
5 460 m 1
 336 460 l 1
 336 320 l 1
 5 320 l 1
 5 460 l 1
88 620 m 1
 253 620 l 1
 253 0 l 1
 88 0 l 1
 88 620 l 1
EndSplineSet
EndChar

StartChar: d
Encoding: 100 100 27
Width: 630
VWidth: 0
Flags: HMW
LayerCount: 2
Fore
SplineSet
404 780 m 1
 577 780 l 1
 577 0 l 1
 404 0 l 1
 404 780 l 1
31 230 m 0
 31 387 138 470 247 470 c 0
 362 470 448 379 448 230 c 0
 448 81 362 -10 247 -10 c 0
 138 -10 31 73 31 230 c 0
213 230 m 0
 213 168 256 125 309 125 c 0
 355 125 404 164 404 230 c 0
 404 296 355 335 309 335 c 0
 256 335 213 292 213 230 c 0
EndSplineSet
EndChar

StartChar: l
Encoding: 108 108 28
Width: 282
VWidth: 0
Flags: HMW
LayerCount: 2
Fore
SplineSet
55 780 m 1
 228 780 l 1
 228 0 l 1
 55 0 l 1
 55 780 l 1
EndSplineSet
EndChar

StartChar: i
Encoding: 105 105 29
Width: 280
VWidth: 0
Flags: HMW
LayerCount: 2
Fore
SplineSet
43 627 m 0
 43 681 87 717 141 717 c 0
 195 717 238 681 238 627 c 0
 238 573 195 538 141 538 c 0
 87 538 43 573 43 627 c 0
57 460 m 1
 223 460 l 1
 223 0 l 1
 57 0 l 1
 57 460 l 1
EndSplineSet
EndChar

StartChar: r
Encoding: 114 114 30
Width: 431
VWidth: 0
Flags: HMW
LayerCount: 2
Fore
SplineSet
224 460 m 1
 224 0 l 1
 55 0 l 1
 55 460 l 1
 224 460 l 1
354 283 m 1
 340 299 323 310 297 310 c 0
 257 310 224 277 224 211 c 1
 188 280 l 1
 188 389 264 472 345 472 c 0
 378 472 413 455 427 432 c 1
 354 283 l 1
EndSplineSet
EndChar

StartChar: c
Encoding: 99 99 31
Width: 497
VWidth: 0
Flags: HMW
LayerCount: 2
Fore
SplineSet
208 230 m 0
 208 162 258 124 320 124 c 0
 370 124 419 145 448 188 c 1
 448 26 l 1
 416 4 375 -10 304 -10 c 0
 145 -10 30 83 30 230 c 0
 30 377 145 470 304 470 c 0
 375 470 416 453 448 435 c 1
 448 273 l 1
 419 316 362 336 320 336 c 0
 258 336 208 290 208 230 c 0
EndSplineSet
EndChar

StartChar: b
Encoding: 98 98 32
Width: 630
VWidth: 0
Flags: HMW
LayerCount: 2
Fore
SplineSet
227 780 m 1
 227 0 l 1
 54 0 l 1
 54 780 l 1
 227 780 l 1
600 230 m 0
 600 73 493 -10 384 -10 c 0
 269 -10 183 81 183 230 c 0
 183 379 269 470 384 470 c 0
 493 470 600 387 600 230 c 0
418 230 m 0
 418 292 374 335 321 335 c 0
 275 335 227 296 227 230 c 0
 227 164 275 125 321 125 c 0
 374 125 418 168 418 230 c 0
EndSplineSet
EndChar

StartChar: p
Encoding: 112 112 33
Width: 630
VWidth: 0
Flags: HMW
LayerCount: 2
Fore
SplineSet
227 -220 m 1
 54 -220 l 1
 54 460 l 1
 227 460 l 1
 227 -220 l 1
600 230 m 0
 600 65 493 -18 384 -18 c 0
 261 -18 191 81 191 230 c 0
 191 379 261 478 384 478 c 0
 493 478 600 395 600 230 c 0
418 230 m 0
 418 292 374 326 321 326 c 0
 275 326 227 296 227 230 c 0
 227 164 275 134 321 134 c 0
 374 134 418 168 418 230 c 0
EndSplineSet
EndChar

StartChar: q
Encoding: 113 113 34
Width: 630
VWidth: 0
Flags: HMW
LayerCount: 2
Fore
SplineSet
404 -220 m 1
 404 460 l 1
 577 460 l 1
 577 -220 l 1
 404 -220 l 1
31 230 m 0
 31 395 138 478 247 478 c 0
 370 478 440 379 440 230 c 0
 440 81 370 -18 247 -18 c 0
 138 -18 31 65 31 230 c 0
213 230 m 0
 213 168 256 134 309 134 c 0
 355 134 404 164 404 230 c 0
 404 296 355 326 309 326 c 0
 256 326 213 292 213 230 c 0
EndSplineSet
EndChar

StartChar: h
Encoding: 104 104 35
Width: 581
VWidth: 0
Flags: HMW
LayerCount: 2
Fore
SplineSet
228 780 m 1
 228 0 l 1
 55 0 l 1
 55 780 l 1
 228 780 l 1
354 280 m 2
 354 328 341 356 296 356 c 0
 254 356 228 330 228 280 c 1
 202 280 l 1
 202 389 250 479 369 479 c 0
 488 479 527 417 527 306 c 2
 527 0 l 1
 354 0 l 1
 354 280 l 2
EndSplineSet
EndChar

StartChar: n
Encoding: 110 110 36
Width: 589
VWidth: 0
Flags: HMW
LayerCount: 2
Fore
SplineSet
228 460 m 1
 228 0 l 1
 55 0 l 1
 55 460 l 1
 228 460 l 1
354 280 m 2
 354 328 341 356 296 356 c 0
 254 356 228 330 228 280 c 1
 202 272 l 1
 202 381 250 471 369 471 c 0
 488 471 535 409 535 298 c 2
 535 0 l 1
 354 0 l 1
 354 280 l 2
EndSplineSet
EndChar

StartChar: m
Encoding: 109 109 37
Width: 832
VWidth: 0
Flags: HMW
LayerCount: 2
Fore
SplineSet
326 280 m 2
 326 328 313 356 276 356 c 0
 242 356 220 330 220 280 c 1
 194 272 l 1
 194 381 244 471 355 471 c 0
 466 471 499 417 499 306 c 2
 499 0 l 1
 326 0 l 1
 326 280 l 2
220 460 m 1
 220 0 l 1
 55 0 l 1
 55 460 l 1
 220 460 l 1
778 298 m 2
 778 0 l 1
 605 0 l 1
 605 280 l 2
 605 328 592 356 555 356 c 0
 521 356 499 330 499 280 c 1
 445 272 l 1
 445 381 523 471 634 471 c 0
 745 471 778 409 778 298 c 2
EndSplineSet
EndChar

StartChar: k
Encoding: 107 107 38
Width: 617
VWidth: 0
Flags: HMW
LayerCount: 2
Fore
SplineSet
54 780 m 1
 219 780 l 1
 219 0 l 1
 54 0 l 1
 54 780 l 1
385 460 m 1
 590 460 l 1
 394 270 l 1
 610 0 l 1
 409 0 l 1
 189 270 l 1
 385 460 l 1
EndSplineSet
EndChar

StartChar: u
Encoding: 117 117 39
Width: 589
VWidth: 0
Flags: HMW
LayerCount: 2
Fore
SplineSet
362 0 m 1
 362 460 l 1
 535 460 l 1
 535 0 l 1
 362 0 l 1
236 180 m 2
 236 132 248 104 293 104 c 0
 335 104 362 130 362 180 c 1
 388 188 l 1
 388 79 340 -11 221 -11 c 0
 102 -11 55 51 55 162 c 2
 55 460 l 1
 236 460 l 1
 236 180 l 2
EndSplineSet
EndChar

StartChar: e
Encoding: 101 101 40
Width: 590
VWidth: 0
Flags: HMW
LayerCount: 2
Fore
SplineSet
126 194 m 1
 126 283 l 1
 372 283 l 1
 365 333 342 360 295 360 c 0
 239 360 207 322 207 252 c 1
 205 230 l 1
 205 140 249 109 299 109 c 0
 350 109 386 128 405 162 c 1
 561 131 l 1
 515 45 440 -10 305 -10 c 0
 124 -10 31 91 31 230 c 0
 31 247 32 263 35 279 c 0
 54 392 140 470 299 470 c 0
 469 470 557 383 557 238 c 0
 557 230 557 213 555 194 c 1
 126 194 l 1
EndSplineSet
EndChar

StartChar: g
Encoding: 103 103 41
Width: 622
VWidth: 0
Flags: HMW
LayerCount: 2
Fore
SplineSet
41 -34 m 1
 207 -34 l 1
 213 -88 250 -107 300 -107 c 0
 362 -107 404 -66 404 10 c 2
 404 460 l 1
 569 460 l 1
 569 10 l 2
 569 -173 455 -242 308 -242 c 0
 125 -242 56 -157 41 -34 c 1
31 238 m 0
 31 395 138 470 247 470 c 0
 362 470 448 387 448 238 c 0
 448 89 362 6 247 6 c 0
 138 6 31 81 31 238 c 0
213 238 m 0
 213 176 256 142 309 142 c 0
 355 142 404 172 404 238 c 0
 404 304 355 335 309 335 c 0
 256 335 213 300 213 238 c 0
EndSplineSet
EndChar

StartChar: f
Encoding: 102 102 42
Width: 360
VWidth: 0
Flags: HMW
LayerCount: 2
Fore
SplineSet
12 460 m 1
 351 460 l 1
 351 320 l 1
 12 320 l 1
 12 460 l 1
331 620 m 1
 318 637 304 645 286 645 c 0
 256 645 238 626 238 584 c 2
 238 0 l 1
 73 0 l 1
 73 630 l 2
 73 731 134 798 258 798 c 0
 333 798 374 764 397 744 c 1
 331 620 l 1
EndSplineSet
EndChar

StartChar: s
Encoding: 115 115 43
Width: 471
VWidth: 0
Flags: HMW
LayerCount: 2
Fore
SplineSet
80 179 m 1
 168 110 221 101 243 101 c 0
 264 101 278 113 278 131 c 0
 278 163 233 173 182 191 c 0
 116 214 52 245 52 336 c 0
 52 422 125 470 231 470 c 0
 312 470 378 443 438 408 c 1
 387 293 l 1
 346 330 289 356 252 356 c 0
 223 356 210 345 210 331 c 0
 210 298 263 293 323 270 c 0
 388 245 450 215 450 130 c 0
 450 23 384 -22 271 -22 c 0
 170 -22 91 10 17 61 c 1
 80 179 l 1
EndSplineSet
EndChar

StartChar: y
Encoding: 121 121 44
Width: 544
VWidth: 0
Flags: HMW
LayerCount: 2
Fore
SplineSet
557 460 m 1
 257 -220 l 1
 86 -220 l 1
 194 29 l 1
 -12 460 l 1
 176 460 l 1
 325 88 l 1
 234 89 l 1
 382 460 l 1
 557 460 l 1
EndSplineSet
EndChar

StartChar: w
Encoding: 119 119 45
Width: 784
VWidth: 0
Flags: HMW
LayerCount: 2
Fore
SplineSet
-11 460 m 1
 168 460 l 1
 258 243 l 1
 391 495 l 1
 527 243 l 1
 617 460 l 1
 796 460 l 1
 548 -27 l 1
 392 228 l 1
 237 -27 l 1
 -11 460 l 1
EndSplineSet
EndChar

StartChar: v
Encoding: 118 118 46
Width: 552
VWidth: 0
Flags: HMW
LayerCount: 2
Fore
SplineSet
-4 460 m 1
 179 460 l 1
 276 225 l 1
 374 460 l 1
 557 460 l 1
 276 -59 l 1
 -4 460 l 1
EndSplineSet
EndChar

StartChar: x
Encoding: 120 120 47
Width: 564
VWidth: 0
Flags: HMW
LayerCount: 2
Fore
SplineSet
364 460 m 1
 555 460 l 1
 373 236 l 1
 565 0 l 1
 374 0 l 1
 286 122 l 1
 199 0 l 1
 0 0 l 1
 195 236 l 1
 10 460 l 1
 209 460 l 1
 286 351 l 1
 364 460 l 1
EndSplineSet
EndChar

StartChar: z
Encoding: 122 122 48
Width: 540
VWidth: 0
Flags: HMW
LayerCount: 2
Fore
SplineSet
244 304 m 1
 61 304 l 1
 61 460 l 1
 526 460 l 1
 313 156 l 1
 490 156 l 1
 490 0 l 1
 15 0 l 1
 244 304 l 1
EndSplineSet
EndChar

StartChar: j
Encoding: 106 106 49
Width: 278
VWidth: 0
Flags: HMW
LayerCount: 2
Fore
SplineSet
41 627 m 0
 41 681 85 717 139 717 c 0
 193 717 236 681 236 627 c 0
 236 573 193 538 139 538 c 0
 85 538 41 573 41 627 c 0
-38 -66 m 1
 -25 -83 -10 -92 8 -92 c 0
 38 -92 56 -72 56 -30 c 2
 56 460 l 1
 220 460 l 1
 220 -76 l 2
 220 -177 159 -244 35 -244 c 0
 -40 -244 -81 -211 -104 -191 c 1
 -38 -66 l 1
EndSplineSet
EndChar

StartChar: P
Encoding: 80 80 50
Width: 644
VWidth: 0
Flags: HMW
LayerCount: 2
Fore
SplineSet
72 700 m 1
 266 700 l 1
 266 0 l 1
 72 0 l 1
 72 700 l 1
196 543 m 1
 196 700 l 1
 330 700 l 2
 521 700 613 611 613 466 c 0
 613 321 521 232 330 232 c 2
 196 232 l 1
 196 388 l 1
 330 388 l 2
 392 388 427 416 427 466 c 0
 427 516 392 543 330 543 c 2
 196 543 l 1
EndSplineSet
EndChar

StartChar: U
Encoding: 85 85 51
Width: 722
VWidth: 0
Flags: HMW
LayerCount: 2
Fore
SplineSet
67 700 m 1
 261 700 l 1
 261 246 l 2
 261 182 293 139 361 139 c 0
 429 139 462 182 462 246 c 2
 462 700 l 1
 656 700 l 1
 656 230 l 2
 656 43 522 -34 361 -34 c 0
 200 -34 67 43 67 230 c 2
 67 700 l 1
EndSplineSet
EndChar

StartChar: S
Encoding: 83 83 52
Width: 647
VWidth: 0
Flags: HMW
LayerCount: 2
Fore
SplineSet
165 258 m 1
 215 178 260 141 331 141 c 0
 379 141 406 158 406 196 c 0
 406 246 348 259 268 291 c 0
 200 318 74 370 74 514 c 0
 74 636 186 718 342 718 c 0
 487 718 564 636 602 563 c 1
 457 482 l 1
 427 532 388 556 341 556 c 0
 299 556 272 538 272 509 c 0
 272 467 349 448 432 418 c 0
 537 381 611 317 611 198 c 0
 611 48 488 -26 335 -26 c 0
 204 -26 76 56 32 163 c 1
 165 258 l 1
EndSplineSet
EndChar

StartChar: at
Encoding: 64 64 53
Width: 770
VWidth: 0
Flags: HMW
LayerCount: 2
Fore
SplineSet
331 320 m 0
 331 280 344 258 365 258 c 0
 395 258 426 304 426 362 c 0
 426 406 413 424 391 424 c 0
 356 424 331 374 331 320 c 0
198 311 m 0
 198 450 277 530 354 530 c 0
 423 530 477 457 477 370 c 0
 477 231 407 152 328 152 c 0
 245 152 198 212 198 311 c 0
15 320 m 0
 15 547 183 726 415 726 c 0
 629 726 755 557 755 390 c 0
 755 212 659 142 560 142 c 0
 491 142 432 196 442 262 c 1
 427 302 l 1
 447 520 l 1
 575 520 l 1
 553 313 l 2
 552 306 551 294 551 286 c 0
 551 262 557 248 574 248 c 0
 596 248 633 272 633 390 c 0
 633 515 559 617 415 617 c 0
 243 617 137 495 137 320 c 0
 137 173 215 79 381 79 c 0
 451 79 505 96 561 122 c 1
 599 22 l 1
 539 -11 463 -30 365 -30 c 0
 135 -30 15 121 15 320 c 0
EndSplineSet
EndChar

StartChar: period
Encoding: 46 46 54
Width: 328
VWidth: 0
Flags: HMW
LayerCount: 2
Fore
SplineSet
59 76 m 0
 59 133 103 180 165 180 c 0
 227 180 270 133 270 76 c 0
 270 19 227 -27 165 -27 c 0
 103 -27 59 19 59 76 c 0
EndSplineSet
EndChar

StartChar: comma
Encoding: 44 44 55
Width: 327
VWidth: 0
Flags: HMW
LayerCount: 2
Fore
SplineSet
112 110 m 1
 284 77 l 1
 154 -173 l 1
 24 -149 l 1
 112 110 l 1
EndSplineSet
EndChar

StartChar: colon
Encoding: 58 58 56
Width: 328
VWidth: 0
Flags: HMW
LayerCount: 2
Fore
SplineSet
59 76 m 0
 59 133 103 180 165 180 c 0
 227 180 270 133 270 76 c 0
 270 19 227 -27 165 -27 c 0
 103 -27 59 19 59 76 c 0
59 448 m 0
 59 505 103 552 165 552 c 0
 227 552 270 505 270 448 c 0
 270 391 227 345 165 345 c 0
 103 345 59 391 59 448 c 0
EndSplineSet
EndChar

StartChar: semicolon
Encoding: 59 59 57
Width: 411
VWidth: 0
Flags: HMW
LayerCount: 2
Fore
SplineSet
117 440 m 0
 117 497 161 544 223 544 c 0
 285 544 329 497 329 440 c 0
 329 383 285 337 223 337 c 0
 161 337 117 383 117 440 c 0
140 110 m 1
 313 77 l 1
 183 -173 l 1
 52 -149 l 1
 140 110 l 1
EndSplineSet
EndChar

StartChar: quotedbl
Encoding: 34 34 58
Width: 533
VWidth: 0
Flags: HMW
LayerCount: 2
Fore
SplineSet
98 700 m 1
 277 700 l 1
 167 376 l 1
 56 376 l 1
 98 700 l 1
318 700 m 1
 498 700 l 1
 388 376 l 1
 276 376 l 1
 318 700 l 1
EndSplineSet
EndChar

StartChar: exclam
Encoding: 33 33 59
Width: 356
VWidth: 0
Flags: HMW
LayerCount: 2
Fore
SplineSet
72 700 m 1
 285 700 l 1
 249 240 l 1
 108 240 l 1
 72 700 l 1
72 68 m 0
 72 125 116 164 178 164 c 0
 240 164 284 125 284 68 c 0
 284 11 240 -27 178 -27 c 0
 116 -27 72 11 72 68 c 0
EndSplineSet
EndChar

StartChar: quotesingle
Encoding: 39 39 60
Width: 313
VWidth: 0
Flags: HMW
LayerCount: 2
Fore
SplineSet
98 700 m 1
 277 700 l 1
 167 376 l 1
 56 376 l 1
 98 700 l 1
EndSplineSet
EndChar

StartChar: numbersign
Encoding: 35 35 61
Width: 685
VWidth: 0
Flags: HMW
LayerCount: 2
Fore
SplineSet
75 404 m 1
 75 541 l 1
 651 541 l 1
 651 404 l 1
 491 404 l 0
 458 412 l 0
 250 412 l 0
 220 404 l 0
 75 404 l 1
35 164 m 1
 35 301 l 1
 179 301 l 0
 216 293 l 0
 455 293 l 0
 488 301 l 0
 611 301 l 1
 611 164 l 1
 35 164 l 1
479 700 m 1
 627 700 l 1
 457 0 l 1
 309 0 l 1
 364 223 l 0
 378 251 l 0
 428 454 l 0
 428 489 l 0
 479 700 l 1
229 700 m 1
 376 700 l 1
 325 490 l 0
 308 453 l 0
 260 254 l 0
 261 226 l 0
 206 0 l 1
 59 0 l 1
 229 700 l 1
EndSplineSet
EndChar

StartChar: hyphen
Encoding: 45 45 62
Width: 225
VWidth: 0
Flags: HMW
LayerCount: 2
Fore
SplineSet
5 164 m 1
 5 311 l 1
 221 311 l 1
 221 164 l 1
 5 164 l 1
EndSplineSet
EndChar

StartChar: dollar
Encoding: 36 36 63
Width: 634
VWidth: 0
Flags: HMW
LayerCount: 2
Fore
SplineSet
263 818 m 1
 402 818 l 1
 393 628 l 1
 271 628 l 1
 263 818 l 1
271 66 m 1
 393 66 l 1
 401 -112 l 1
 263 -112 l 1
 271 66 l 1
451 482 m 1
 421 540 381 573 336 573 c 0
 288 573 268 547 268 518 c 0
 268 464 342 450 427 419 c 0
 528 382 606 317 606 198 c 0
 606 63 492 -10 321 -10 c 0
 190 -10 71 72 27 163 c 1
 160 258 l 1
 210 178 255 141 326 141 c 0
 378 141 401 160 401 198 c 0
 401 244 344 260 262 292 c 0
 193 319 69 378 69 516 c 0
 69 620 175 710 329 710 c 0
 482 710 549 640 596 563 c 1
 451 482 l 1
EndSplineSet
EndChar

StartChar: bar
Encoding: 124 124 64
Width: 375
VWidth: 0
Flags: HMW
LayerCount: 2
Fore
SplineSet
100 785 m 1
 276 785 l 1
 276 -215 l 1
 100 -215 l 1
 100 785 l 1
EndSplineSet
EndChar

StartChar: zero
Encoding: 48 48 65
Width: 680
VWidth: 0
Flags: HMW
LayerCount: 2
Fore
SplineSet
226 350 m 0
 226 227 272 151 340 151 c 0
 408 151 455 227 455 350 c 0
 455 473 408 549 340 549 c 0
 272 549 226 473 226 350 c 0
40 350 m 0
 40 583 162 714 340 714 c 0
 526 714 641 583 641 350 c 0
 641 117 526 -14 340 -14 c 0
 162 -14 40 117 40 350 c 0
EndSplineSet
Substitution2: "Tabular Numbers lookup" uniFF10
EndChar

StartChar: one
Encoding: 49 49 66
Width: 526
VWidth: 0
Flags: HMW
LayerCount: 2
Fore
SplineSet
64 479 m 1
 64 644 l 1
 429 714 l 1
 429 0 l 1
 243 0 l 1
 243 521 l 1
 64 479 l 1
EndSplineSet
Substitution2: "Tabular Numbers lookup" uniFF11
EndChar

StartChar: two
Encoding: 50 50 67
Width: 681
VWidth: 0
Flags: HMW
LayerCount: 2
Fore
SplineSet
20 0 m 1
 327 314 l 2
 386 378 422 418 422 473 c 0
 422 513 394 550 337 550 c 0
 279 550 242 502 242 436 c 1
 52 436 l 1
 52 585 151 715 344 715 c 0
 523 715 622 598 622 486 c 0
 622 410 581 349 519 299 c 2
 374 177 l 1
 643 177 l 1
 643 0 l 1
 20 0 l 1
EndSplineSet
Substitution2: "Tabular Numbers lookup" uniFF12
EndChar

StartChar: four
Encoding: 52 52 68
Width: 732
VWidth: 0
Flags: HMW
LayerCount: 2
Fore
SplineSet
12 120 m 1
 424 700 l 1
 576 700 l 1
 576 0 l 1
 374 0 l 1
 374 176 l 1
 398 187 l 1
 398 438 l 1
 261 255 l 1
 526 255 l 1
 543 284 l 1
 686 284 l 1
 686 120 l 1
 12 120 l 1
EndSplineSet
Substitution2: "Tabular Numbers lookup" uniFF14
EndChar

StartChar: slash
Encoding: 47 47 69
Width: 635
VWidth: 0
Flags: HMW
LayerCount: 2
Fore
SplineSet
456 700 m 1
 621 700 l 1
 188 -150 l 1
 15 -150 l 1
 456 700 l 1
EndSplineSet
EndChar

StartChar: backslash
Encoding: 92 92 70
Width: 555
VWidth: 0
Flags: HMW
LayerCount: 2
Fore
SplineSet
15 700 m 1
 181 700 l 1
 540 0 l 1
 375 0 l 1
 15 700 l 1
EndSplineSet
EndChar

StartChar: eight
Encoding: 56 56 71
Width: 650
VWidth: 0
Flags: HMW
LayerCount: 2
Fore
SplineSet
76 531 m 0
 76 654 191 718 325 718 c 0
 459 718 575 654 575 531 c 0
 575 398 440 339 325 339 c 0
 210 339 76 398 76 531 c 0
258 513 m 0
 258 471 285 442 325 442 c 0
 365 442 393 471 393 513 c 0
 393 555 366 583 325 583 c 0
 284 583 258 555 258 513 c 0
51 190 m 0
 51 343 210 398 325 398 c 0
 440 398 600 343 600 190 c 0
 600 57 466 -18 325 -18 c 0
 184 -18 51 57 51 190 c 0
245 220 m 0
 245 166 279 138 325 138 c 0
 371 138 406 166 406 220 c 0
 406 264 371 299 325 299 c 0
 279 299 245 264 245 220 c 0
EndSplineSet
Substitution2: "Tabular Numbers lookup" uniFF18
EndChar

StartChar: nine
Encoding: 57 57 72
Width: 696
VWidth: 0
Flags: HMW
LayerCount: 2
Fore
SplineSet
455 450 m 0
 455 514 408 554 348 554 c 0
 288 554 242 514 242 450 c 0
 242 386 288 344 348 344 c 0
 408 344 455 386 455 450 c 0
363 4 m 1
 117 4 l 1
 346 246 l 1
 389 267 l 1
 348 230 320 222 269 222 c 0
 167 222 50 305 50 450 c 0
 50 630 185 718 348 718 c 0
 511 718 647 630 647 450 c 0
 647 369 606 302 555 240 c 2
 363 4 l 1
EndSplineSet
Substitution2: "Tabular Numbers lookup" uniFF19
EndChar

StartChar: three
Encoding: 51 51 73
Width: 642
VWidth: 0
Flags: HMW
LayerCount: 2
Fore
SplineSet
281 337 m 1
 281 419 l 1
 355 419 407 459 407 505 c 0
 407 539 384 562 336 562 c 0
 287 562 252 531 252 486 c 1
 74 486 l 1
 74 615 177 714 336 714 c 0
 504 714 598 629 598 518 c 0
 598 391 456 337 281 337 c 1
327 -18 m 0
 148 -18 44 104 44 233 c 1
 235 233 l 1
 235 163 283 135 335 135 c 0
 387 135 427 155 427 211 c 0
 427 261 387 301 281 301 c 1
 281 395 l 1
 481 395 618 336 618 193 c 0
 618 70 512 -18 327 -18 c 0
EndSplineSet
Substitution2: "Tabular Numbers lookup" uniFF13
EndChar

StartChar: five
Encoding: 53 53 74
Width: 668
VWidth: 0
Flags: HMW
LayerCount: 2
Fore
SplineSet
629 222 m 0
 629 55 470 -14 335 -14 c 0
 206 -14 116 20 46 60 c 1
 110 226 l 1
 173 182 242 163 287 163 c 0
 367 163 416 186 416 246 c 0
 416 306 349 325 287 325 c 0
 236 325 156 318 85 287 c 1
 184 700 l 1
 611 700 l 1
 611 532 l 1
 325 532 l 1
 288 425 l 1
 326 443 368 449 415 449 c 0
 523 449 629 369 629 222 c 0
EndSplineSet
Substitution2: "Tabular Numbers lookup" uniFF15
EndChar

StartChar: six
Encoding: 54 54 75
Width: 696
VWidth: 0
Flags: HMW
LayerCount: 2
Fore
SplineSet
242 250 m 0
 242 186 288 146 348 146 c 0
 408 146 455 186 455 250 c 0
 455 314 408 356 348 356 c 0
 288 356 242 314 242 250 c 0
334 696 m 1
 580 696 l 1
 351 454 l 1
 308 433 l 1
 349 470 377 478 428 478 c 0
 530 478 647 395 647 250 c 0
 647 70 511 -18 348 -18 c 0
 185 -18 50 70 50 250 c 0
 50 331 91 398 142 460 c 2
 334 696 l 1
EndSplineSet
Substitution2: "Tabular Numbers lookup" uniFF16
EndChar

StartChar: seven
Encoding: 55 55 76
Width: 625
VWidth: 0
Flags: HMW
LayerCount: 2
Fore
SplineSet
30 519 m 1
 30 700 l 1
 625 700 l 1
 286 0 l 1
 76 0 l 1
 341 519 l 1
 30 519 l 1
EndSplineSet
Substitution2: "Tabular Numbers lookup" uniFF17
EndChar

StartChar: plus
Encoding: 43 43 77
Width: 691
VWidth: 0
Flags: HMW
LayerCount: 2
Fore
SplineSet
65 191 m 1
 65 355 l 1
 627 355 l 1
 627 191 l 1
 65 191 l 1
257 552 m 1
 435 552 l 1
 435 -6 l 1
 257 -6 l 1
 257 552 l 1
EndSplineSet
EndChar

StartChar: equal
Encoding: 61 61 78
Width: 629
VWidth: 0
Flags: HMW
LayerCount: 2
Fore
SplineSet
53 67 m 1
 53 215 l 1
 577 215 l 1
 577 67 l 1
 53 67 l 1
53 290 m 1
 53 438 l 1
 577 438 l 1
 577 290 l 1
 53 290 l 1
EndSplineSet
EndChar

StartChar: percent
Encoding: 37 37 79
Width: 968
VWidth: 0
Flags: HMW
LayerCount: 2
Fore
SplineSet
19 530 m 0
 19 636 106 722 217 722 c 0
 328 722 416 636 416 530 c 0
 416 424 328 338 217 338 c 0
 106 338 19 424 19 530 c 0
159 530 m 0
 159 498 184 472 217 472 c 0
 250 472 275 498 275 530 c 0
 275 562 250 588 217 588 c 0
 184 588 159 562 159 530 c 0
553 171 m 0
 553 277 641 363 752 363 c 0
 863 363 950 277 950 171 c 0
 950 65 863 -21 752 -21 c 0
 641 -21 553 65 553 171 c 0
694 171 m 0
 694 139 719 113 752 113 c 0
 785 113 810 139 810 171 c 0
 810 203 785 229 752 229 c 0
 719 229 694 203 694 171 c 0
676 700 m 1
 856 700 l 1
 293 0 l 1
 113 0 l 1
 676 700 l 1
EndSplineSet
EndChar

StartChar: ampersand
Encoding: 38 38 80
Width: 774
VWidth: 0
Flags: HMW
LayerCount: 2
Fore
SplineSet
223 368 m 2
 172 423 129 471 129 540 c 0
 129 626 213 719 357 719 c 0
 495 719 569 630 569 546 c 0
 569 447 507 415 390 336 c 0
 319 289 220 281 220 205 c 0
 220 165 250 129 314 129 c 0
 425 129 533 226 609 348 c 1
 722 259 l 1
 640 135 492 -14 289 -14 c 0
 149 -14 40 62 40 189 c 0
 40 352 231 389 302 421 c 0
 377 455 415 494 415 528 c 0
 415 554 392 584 356 584 c 0
 313 584 294 554 294 528 c 0
 294 490 330 455 389 393 c 2
 759 0 l 1
 563 0 l 1
 223 368 l 2
EndSplineSet
EndChar

StartChar: question
Encoding: 63 63 81
Width: 647
VWidth: 0
Flags: HMW
LayerCount: 2
Fore
SplineSet
422 500 m 0
 422 550 385 579 319 579 c 0
 260 579 196 549 157 491 c 1
 44 588 l 1
 122 674 210 722 329 722 c 0
 462 722 596 643 596 500 c 0
 596 376 486 305 381 284 c 1
 377 210 l 1
 236 210 l 1
 216 389 l 1
 250 389 l 2
 370 389 422 456 422 500 c 0
201 64 m 0
 201 113 244 155 306 155 c 0
 368 155 412 113 412 64 c 0
 412 15 368 -27 306 -27 c 0
 244 -27 201 15 201 64 c 0
EndSplineSet
EndChar

StartChar: parenleft
Encoding: 40 40 82
Width: 350
VWidth: 0
Flags: HMW
LayerCount: 2
Fore
SplineSet
185 780 m 1
 340 780 l 1
 270 630 228 460 228 290 c 0
 228 120 270 -50 340 -200 c 1
 185 -200 l 1
 105 -50 62 120 62 290 c 0
 62 460 105 630 185 780 c 1
EndSplineSet
EndChar

StartChar: parenright
Encoding: 41 41 83
Width: 350
VWidth: 0
Flags: HMW
LayerCount: 2
Fore
SplineSet
165 -200 m 1
 10 -200 l 1
 80 -50 122 120 122 290 c 0
 122 460 80 630 10 780 c 1
 165 780 l 1
 245 630 289 460 289 290 c 0
 289 120 245 -50 165 -200 c 1
EndSplineSet
EndChar

StartChar: asterisk
Encoding: 42 42 84
Width: 592
VWidth: 0
Flags: HMW
LayerCount: 2
Fore
SplineSet
506 605 m 1
 556 454 l 1
 309 413 l 1
 283 492 l 1
 506 605 l 1
506 299 m 1
 377 206 l 1
 263 429 l 1
 329 477 l 1
 506 299 l 1
215 206 m 1
 86 299 l 1
 263 477 l 1
 329 429 l 1
 215 206 l 1
36 454 m 1
 86 605 l 1
 309 492 l 1
 283 413 l 1
 36 454 l 1
217 700 m 1
 375 700 l 1
 337 453 l 1
 255 453 l 1
 217 700 l 1
EndSplineSet
EndChar

StartChar: less
Encoding: 60 60 85
Width: 640
VWidth: 0
Flags: HMW
LayerCount: 2
Fore
SplineSet
305 269 m 1
 575 164 l 1
 575 -5 l 1
 65 207 l 1
 65 324 l 1
 575 536 l 1
 575 368 l 1
 305 269 l 1
EndSplineSet
EndChar

StartChar: greater
Encoding: 62 62 86
Width: 640
VWidth: 0
Flags: HMW
LayerCount: 2
Fore
SplineSet
335 262 m 1
 65 368 l 1
 65 536 l 1
 575 324 l 1
 575 207 l 1
 65 -5 l 1
 65 164 l 1
 335 262 l 1
EndSplineSet
EndChar

StartChar: bracketleft
Encoding: 91 91 87
Width: 380
VWidth: 0
Flags: HMW
LayerCount: 2
Fore
SplineSet
260 632 m 1
 260 -72 l 1
 361 -72 l 1
 361 -220 l 1
 88 -220 l 1
 88 780 l 1
 361 780 l 1
 361 632 l 1
 260 632 l 1
EndSplineSet
EndChar

StartChar: bracketright
Encoding: 93 93 88
Width: 380
VWidth: 0
Flags: HMW
LayerCount: 2
Fore
SplineSet
121 -72 m 1
 121 632 l 1
 20 632 l 1
 20 780 l 1
 293 780 l 1
 293 -220 l 1
 20 -220 l 1
 20 -72 l 1
 121 -72 l 1
EndSplineSet
EndChar

StartChar: asciicircum
Encoding: 94 94 89
Width: 510
VWidth: 0
Flags: HMW
LayerCount: 2
Fore
SplineSet
255 569 m 1
 185 444 l 1
 33 444 l 1
 203 710 l 1
 307 710 l 1
 477 444 l 1
 325 444 l 1
 255 569 l 1
EndSplineSet
EndChar

StartChar: underscore
Encoding: 95 95 90
Width: 540
VWidth: 0
Flags: HMW
LayerCount: 2
Fore
SplineSet
0 -160 m 1
 0 -51 l 1
 540 -51 l 1
 540 -160 l 1
 0 -160 l 1
EndSplineSet
EndChar

StartChar: grave
Encoding: 96 96 91
Width: 375
VWidth: 0
Flags: HMW
LayerCount: 2
Fore
SplineSet
47 652 m 1
 174 708 l 1
 324 548 l 1
 227 502 l 1
 47 652 l 1
EndSplineSet
EndChar

StartChar: braceleft
Encoding: 123 123 92
Width: 423
VWidth: 0
Flags: HMW
LayerCount: 2
Fore
SplineSet
291 595 m 2
 291 490 l 2
 291 401 287 280 138 280 c 1
 138 300 l 1
 287 300 291 179 291 90 c 2
 291 -15 l 2
 291 -41 309 -65 339 -65 c 2
 374 -65 l 1
 374 -200 l 1
 274 -200 l 2
 182 -200 98 -159 98 -60 c 2
 98 118 l 2
 98 194 80 218 34 228 c 1
 34 352 l 1
 80 362 98 386 98 462 c 2
 98 640 l 2
 98 739 182 780 274 780 c 2
 374 780 l 1
 374 645 l 1
 339 645 l 2
 309 645 291 621 291 595 c 2
EndSplineSet
EndChar

StartChar: braceright
Encoding: 125 125 93
Width: 423
VWidth: 0
Flags: HMW
LayerCount: 2
Fore
SplineSet
135 -15 m 2
 135 90 l 2
 135 179 139 300 288 300 c 1
 288 280 l 1
 139 280 135 401 135 490 c 2
 135 595 l 2
 135 621 117 645 87 645 c 2
 52 645 l 1
 52 780 l 1
 152 780 l 2
 244 780 328 739 328 640 c 2
 328 462 l 2
 328 386 346 362 392 352 c 1
 392 228 l 1
 346 218 328 194 328 118 c 2
 328 -60 l 2
 328 -159 244 -200 152 -200 c 2
 52 -200 l 1
 52 -65 l 1
 87 -65 l 2
 117 -65 135 -41 135 -15 c 2
EndSplineSet
EndChar

StartChar: asciitilde
Encoding: 126 126 94
Width: 575
VWidth: 0
Flags: HMW
LayerCount: 2
Fore
SplineSet
161 160 m 1
 28 165 l 1
 26 172 25 180 25 189 c 0
 25 226 32 259 58 291 c 0
 86 325 120 351 194 351 c 0
 241 351 269 335 319 303 c 0
 351 282 372 267 390 267 c 0
 410 267 420 285 420 304 c 0
 420 316 416 329 412 339 c 1
 546 334 l 1
 548 326 550 316 550 306 c 0
 550 270 545 233 520 202 c 0
 493 169 462 148 402 148 c 0
 360 148 326 166 275 198 c 0
 243 219 218 233 193 233 c 0
 162 233 154 208 154 190 c 0
 154 175 158 168 161 160 c 1
EndSplineSet
EndChar

StartChar: exclamdown
Encoding: 161 161 95
Width: 356
VWidth: 0
Flags: HMW
LayerCount: 2
Fore
SplineSet
285 -225 m 1
 72 -225 l 1
 108 235 l 1
 249 235 l 1
 285 -225 l 1
284 407 m 0
 284 350 240 312 178 312 c 0
 116 312 72 350 72 407 c 0
 72 464 116 502 178 502 c 0
 240 502 284 464 284 407 c 0
EndSplineSet
EndChar

StartChar: cent
Encoding: 162 162 96
Width: 580
VWidth: 0
Flags: HMW
LayerCount: 2
Fore
SplineSet
224 38 m 1
 348 38 l 1
 360 -112 l 1
 211 -112 l 1
 224 38 l 1
218 230 m 0
 218 158 273 124 331 124 c 0
 389 124 430 152 459 189 c 1
 459 25 l 1
 427 3 378 -10 315 -10 c 0
 156 -10 41 83 41 230 c 0
 41 377 156 470 315 470 c 0
 378 470 427 456 459 435 c 1
 459 271 l 1
 430 308 389 336 331 336 c 0
 273 336 218 294 218 230 c 0
211 578 m 1
 360 578 l 1
 348 428 l 1
 224 428 l 1
 211 578 l 1
EndSplineSet
EndChar

StartChar: sterling
Encoding: 163 163 97
Width: 620
VWidth: 0
Flags: HMW
LayerCount: 2
Fore
SplineSet
67 370 m 1
 451 370 l 1
 451 263 l 1
 67 263 l 1
 67 370 l 1
430 463 m 1
 426 512 407 561 337 561 c 0
 293 561 255 540 255 488 c 0
 255 412 346 384 346 272 c 0
 346 166 210 70 136 50 c 1
 202 157 l 1
 545 157 l 1
 545 0 l 1
 48 0 l 1
 146 102 181 193 181 297 c 0
 181 391 76 410 76 522 c 0
 76 641 194 710 329 710 c 0
 486 710 581 608 586 520 c 1
 430 463 l 1
EndSplineSet
EndChar

StartChar: currency
Encoding: 164 164 98
Width: 575
VWidth: 0
Flags: HMW
LayerCount: 2
Fore
SplineSet
19 503 m 1
 85 569 l 1
 186 467 l 1
 121 402 l 1
 19 503 l 1
85 31 m 1
 19 97 l 1
 121 198 l 1
 186 133 l 1
 85 31 l 1
455 402 m 1
 389 467 l 1
 491 569 l 1
 557 503 l 1
 455 402 l 1
389 133 m 1
 455 198 l 1
 557 97 l 1
 491 31 l 1
 389 133 l 1
50 300 m 0
 50 439 153 540 288 540 c 0
 423 540 526 439 526 300 c 0
 526 161 423 60 288 60 c 0
 153 60 50 161 50 300 c 0
204 300 m 0
 204 248 238 216 288 216 c 0
 338 216 373 248 373 300 c 0
 373 352 338 384 288 384 c 0
 238 384 204 352 204 300 c 0
EndSplineSet
EndChar

StartChar: yen
Encoding: 165 165 99
Width: 695
VWidth: 0
Flags: HMW
LayerCount: 2
Fore
SplineSet
45 258 m 1
 45 365 l 1
 647 365 l 1
 647 258 l 1
 45 258 l 1
45 108 m 1
 45 215 l 1
 647 215 l 1
 647 108 l 1
 45 108 l 1
471 700 m 1
 694 700 l 1
 447 282 l 1
 447 0 l 1
 248 0 l 1
 248 279 l 1
 -1 700 l 1
 223 700 l 1
 346 455 l 1
 471 700 l 1
EndSplineSet
EndChar

StartChar: brokenbar
Encoding: 166 166 100
Width: 375
VWidth: 0
Flags: HMW
LayerCount: 2
Fore
SplineSet
100 695 m 1
 276 695 l 1
 276 423 l 1
 100 423 l 1
 100 695 l 1
276 277 m 1
 276 5 l 1
 100 5 l 1
 100 277 l 1
 276 277 l 1
EndSplineSet
EndChar

StartChar: section
Encoding: 167 167 101
Width: 626
VWidth: 0
Flags: HMW
LayerCount: 2
Fore
SplineSet
427 540 m 1
 397 568 348 588 319 588 c 0
 287 588 274 577 274 563 c 0
 274 540 316 537 371 523 c 0
 451 503 510 456 510 381 c 0
 510 276 396 225 285 225 c 1
 285 269 l 1
 319 277 357 298 357 339 c 0
 357 394 282 410 230 430 c 0
 173 452 111 490 111 575 c 0
 111 678 213 728 307 728 c 0
 390 728 470 694 501 656 c 1
 427 540 l 1
137 177 m 1
 197 129 264 113 297 113 c 0
 331 113 344 125 344 141 c 0
 344 167 303 174 248 188 c 0
 169 207 92 250 92 327 c 0
 92 427 212 480 326 480 c 1
 326 438 l 1
 290 426 253 410 253 369 c 0
 253 311 338 303 389 282 c 0
 454 255 516 213 516 130 c 0
 516 23 407 -26 308 -26 c 0
 191 -26 117 11 63 62 c 1
 137 177 l 1
EndSplineSet
EndChar

StartChar: dieresis
Encoding: 168 168 102
Width: 523
VWidth: 0
Flags: HMW
LayerCount: 2
Fore
SplineSet
292 624 m 0
 292 678 336 713 390 713 c 0
 444 713 488 678 488 624 c 0
 488 570 444 534 390 534 c 0
 336 534 292 570 292 624 c 0
36 624 m 0
 36 678 79 713 133 713 c 0
 187 713 231 678 231 624 c 0
 231 570 187 534 133 534 c 0
 79 534 36 570 36 624 c 0
EndSplineSet
EndChar

StartChar: copyright
Encoding: 169 169 103
Width: 800
VWidth: 0
Flags: HMW
LayerCount: 2
Fore
SplineSet
304 350 m 0
 304 279 356 239 421 239 c 0
 480 239 516 266 543 293 c 1
 543 170 l 1
 510 145 474 129 413 129 c 0
 273 129 176 218 176 350 c 0
 176 482 273 571 413 571 c 0
 474 571 510 555 543 530 c 1
 543 407 l 1
 516 434 480 461 421 461 c 0
 356 461 304 421 304 350 c 0
95 350 m 0
 95 172 227 40 400 40 c 0
 573 40 705 172 705 350 c 0
 705 528 573 660 400 660 c 0
 227 660 95 528 95 350 c 0
40 350 m 0
 40 559 196 710 400 710 c 0
 604 710 760 559 760 350 c 0
 760 141 604 -10 400 -10 c 0
 196 -10 40 141 40 350 c 0
EndSplineSet
EndChar

StartChar: registered
Encoding: 174 174 104
Width: 800
VWidth: 0
Flags: HMW
LayerCount: 2
Fore
SplineSet
385 319 m 1
 489 319 l 1
 599 150 l 1
 463 150 l 1
 385 319 l 1
247 570 m 1
 364 570 l 1
 364 150 l 1
 247 150 l 1
 247 570 l 1
321 472 m 1
 321 570 l 1
 412 570 l 2
 527 570 582 512 582 438 c 0
 582 356 527 297 412 297 c 2
 321 297 l 1
 321 386 l 1
 403 386 l 2
 440 386 461 399 461 429 c 0
 461 459 440 473 403 473 c 2
 321 472 l 1
95 350 m 0
 95 172 227 40 400 40 c 0
 573 40 705 172 705 350 c 0
 705 528 573 660 400 660 c 0
 227 660 95 528 95 350 c 0
40 350 m 0
 40 559 196 710 400 710 c 0
 604 710 760 559 760 350 c 0
 760 141 604 -10 400 -10 c 0
 196 -10 40 141 40 350 c 0
EndSplineSet
EndChar

StartChar: ordfeminine
Encoding: 170 170 105
Width: 279
VWidth: 0
Flags: HMW
LayerCount: 2
Fore
SplineSet
104 530 m 0
 104 516 115 509 132 509 c 0
 155 509 178 519 178 554 c 1
 186 525 l 1
 186 481 150 455 102 455 c 0
 52 455 17 481 17 526 c 0
 17 571 58 600 116 600 c 0
 148 600 183 589 194 578 c 1
 194 538 l 1
 178 550 164 556 139 556 c 0
 118 556 104 545 104 530 c 0
65 618 m 1
 37 679 l 1
 66 691 106 705 148 705 c 0
 213 705 260 678 260 629 c 2
 260 460 l 1
 178 460 l 1
 178 603 l 2
 178 622 165 638 140 638 c 0
 107 638 76 624 65 618 c 1
EndSplineSet
EndChar

StartChar: ordmasculine
Encoding: 186 186 106
Width: 278
VWidth: 0
Flags: HMW
LayerCount: 2
Fore
SplineSet
18 580 m 0
 18 653 75 700 153 700 c 0
 231 700 289 653 289 580 c 0
 289 507 231 460 153 460 c 0
 75 460 18 507 18 580 c 0
107 580 m 0
 107 548 128 530 153 530 c 0
 178 530 199 548 199 580 c 0
 199 612 178 630 153 630 c 0
 128 630 107 612 107 580 c 0
EndSplineSet
EndChar

StartChar: guillemotleft
Encoding: 171 171 107
Width: 550
VWidth: 0
Flags: HMW
LayerCount: 2
Fore
SplineSet
370 259 m 1
 521 65 l 1
 414 -4 l 1
 240 255 l 1
 414 514 l 1
 521 445 l 1
 370 259 l 1
154 259 m 1
 304 65 l 1
 198 -4 l 1
 24 255 l 1
 198 514 l 1
 304 445 l 1
 154 259 l 1
EndSplineSet
EndChar

StartChar: guillemotright
Encoding: 187 187 108
Width: 550
VWidth: 0
Flags: HMW
LayerCount: 2
Fore
SplineSet
180 251 m 1
 30 445 l 1
 136 514 l 1
 310 255 l 1
 136 -4 l 1
 30 65 l 1
 180 251 l 1
396 251 m 1
 246 445 l 1
 353 514 l 1
 526 255 l 1
 353 -4 l 1
 246 65 l 1
 396 251 l 1
EndSplineSet
EndChar

StartChar: uni00AD
Encoding: 173 173 109
Width: 210
VWidth: 0
Flags: HMW
LayerCount: 2
Fore
SplineSet
5 200 m 1
 5 275 l 1
 205 275 l 1
 205 200 l 1
 5 200 l 1
EndSplineSet
EndChar

StartChar: logicalnot
Encoding: 172 172 110
Width: 659
VWidth: 0
Flags: HMW
LayerCount: 2
Fore
SplineSet
65 264 m 1
 65 411 l 1
 594 411 l 1
 594 175 l 1
 479 175 l 1
 479 264 l 1
 65 264 l 1
EndSplineSet
EndChar

StartChar: macron
Encoding: 175 175 111
Width: 538
VWidth: 0
Flags: HMW
LayerCount: 2
Fore
SplineSet
80 564 m 1
 80 711 l 1
 458 711 l 1
 458 564 l 1
 80 564 l 1
EndSplineSet
EndChar

StartChar: degree
Encoding: 176 176 112
Width: 301
VWidth: 0
Flags: HMW
LayerCount: 2
Fore
SplineSet
16 596 m 0
 16 669 72 720 150 720 c 0
 228 720 286 669 286 596 c 0
 286 523 228 472 150 472 c 0
 72 472 16 523 16 596 c 0
100 596 m 0
 100 564 121 545 150 545 c 0
 179 545 201 564 201 596 c 0
 201 628 179 648 150 648 c 0
 121 648 100 628 100 596 c 0
EndSplineSet
EndChar

StartChar: plusminus
Encoding: 177 177 113
Width: 638
VWidth: 0
Flags: HMW
LayerCount: 2
Fore
SplineSet
65 8 m 1
 65 153 l 1
 574 153 l 1
 574 8 l 1
 65 8 l 1
65 329 m 1
 65 481 l 1
 574 481 l 1
 574 329 l 1
 65 329 l 1
233 620 m 1
 406 620 l 1
 406 190 l 1
 233 190 l 1
 233 620 l 1
EndSplineSet
EndChar

StartChar: uni00B2
Encoding: 178 178 114
Width: 426
VWidth: 0
Flags: HMW
LayerCount: 2
Fore
SplineSet
25 282 m 1
 209 470 l 2
 244 508 266 533 266 566 c 0
 266 590 251 613 216 613 c 0
 181 613 158 583 158 543 c 1
 44 543 l 1
 44 632 104 711 220 711 c 0
 327 711 386 641 386 573 c 0
 386 528 361 491 324 461 c 2
 238 388 l 1
 399 388 l 1
 399 282 l 1
 25 282 l 1
EndSplineSet
EndChar

StartChar: uni00B3
Encoding: 179 179 115
Width: 380
VWidth: 0
Flags: HMW
LayerCount: 2
Fore
SplineSet
158 482 m 1
 158 531 l 1
 202 531 233 555 233 583 c 0
 233 604 219 617 190 617 c 0
 161 617 140 599 140 572 c 1
 33 572 l 1
 33 649 95 708 191 708 c 0
 292 708 348 657 348 591 c 0
 348 515 263 482 158 482 c 1
186 269 m 0
 78 269 15 343 15 420 c 1
 130 420 l 1
 130 378 160 361 191 361 c 0
 222 361 245 373 245 407 c 0
 245 437 222 460 158 460 c 1
 158 517 l 1
 278 517 360 481 360 396 c 0
 360 323 297 269 186 269 c 0
EndSplineSet
EndChar

StartChar: acute
Encoding: 180 180 116
Width: 375
VWidth: 0
Flags: HMW
LayerCount: 2
Fore
SplineSet
324 652 m 1
 144 502 l 1
 47 548 l 1
 197 708 l 1
 324 652 l 1
EndSplineSet
EndChar

StartChar: mu
Encoding: 181 181 117
Width: 589
VWidth: 0
Flags: HMW
LayerCount: 2
Fore
SplineSet
362 0 m 1
 362 460 l 1
 535 460 l 1
 535 0 l 1
 362 0 l 1
236 180 m 2
 236 132 248 104 293 104 c 0
 335 104 362 130 362 180 c 1
 390 188 l 1
 390 79 340 -11 221 -11 c 0
 102 -11 55 51 55 162 c 2
 55 460 l 1
 236 460 l 1
 236 180 l 2
55 460 m 1
 220 460 l 1
 220 -320 l 1
 55 -320 l 1
 55 460 l 1
EndSplineSet
EndChar

StartChar: paragraph
Encoding: 182 182 118
Width: 698
VWidth: 0
Flags: HMW
LayerCount: 2
Fore
SplineSet
288 599 m 1
 288 700 l 1
 528 700 l 1
 528 599 l 1
 288 599 l 1
488 700 m 1
 639 700 l 1
 639 -220 l 1
 488 -220 l 1
 488 700 l 1
288 700 m 1
 439 700 l 1
 439 -220 l 1
 288 -220 l 1
 288 700 l 1
288 270 m 1
 163 270 60 346 60 485 c 0
 60 624 163 700 288 700 c 1
 288 270 l 1
EndSplineSet
EndChar

StartChar: periodcentered
Encoding: 183 183 119
Width: 328
VWidth: 0
Flags: HMW
LayerCount: 2
Fore
SplineSet
59 276 m 0
 59 333 103 380 165 380 c 0
 227 380 270 333 270 276 c 0
 270 219 227 173 165 173 c 0
 103 173 59 219 59 276 c 0
EndSplineSet
EndChar

StartChar: uni00B9
Encoding: 185 185 120
Width: 485
VWidth: 0
Flags: HMW
LayerCount: 2
Fore
SplineSet
128 561 m 1
 128 660 l 1
 347 702 l 1
 347 274 l 1
 235 274 l 1
 235 587 l 1
 128 561 l 1
EndSplineSet
EndChar

StartChar: cedilla
Encoding: 184 184 121
Width: 406
VWidth: 0
Flags: HMW
LayerCount: 2
Fore
SplineSet
180 75 m 1
 305 70 l 1
 212 -55 l 1
 225 -52 240 -50 256 -50 c 0
 298 -50 353 -84 353 -155 c 0
 353 -231 281 -268 215 -268 c 0
 154 -268 107 -259 55 -229 c 1
 104 -152 l 1
 131 -171 171 -177 189 -177 c 0
 223 -177 245 -168 245 -144 c 0
 245 -117 211 -113 181 -113 c 0
 171 -113 131 -114 92 -128 c 1
 180 75 l 1
EndSplineSet
EndChar

StartChar: questiondown
Encoding: 191 191 122
Width: 647
VWidth: 0
Flags: HMW
LayerCount: 2
Fore
SplineSet
226 200 m 0
 226 150 262 121 328 121 c 0
 387 121 451 151 490 209 c 1
 604 112 l 1
 526 26 437 -22 318 -22 c 0
 185 -22 52 57 52 200 c 0
 52 324 162 395 267 416 c 1
 271 490 l 1
 412 490 l 1
 432 311 l 1
 398 311 l 2
 278 311 226 244 226 200 c 0
447 636 m 0
 447 587 403 545 341 545 c 0
 279 545 235 587 235 636 c 0
 235 685 279 727 341 727 c 0
 403 727 447 685 447 636 c 0
EndSplineSet
EndChar

StartChar: multiply
Encoding: 215 215 123
Width: 596
VWidth: 0
Flags: HMW
LayerCount: 2
Fore
SplineSet
145 -2 m 1
 41 102 l 1
 198 255 l 1
 41 408 l 1
 145 512 l 1
 298 355 l 1
 451 512 l 1
 555 408 l 1
 398 255 l 1
 555 102 l 1
 451 -2 l 1
 298 155 l 1
 145 -2 l 1
EndSplineSet
EndChar

StartChar: Oslash
Encoding: 216 216 124
Width: 790
VWidth: 0
Flags: HMW
LayerCount: 2
Fore
SplineSet
238 350 m 0
 238 232 306 158 415 158 c 0
 524 158 593 232 593 350 c 0
 593 468 524 542 415 542 c 0
 306 542 238 468 238 350 c 0
32 350 m 0
 32 570 195 718 415 718 c 0
 635 718 798 570 798 350 c 0
 798 130 635 -26 415 -26 c 0
 195 -26 32 130 32 350 c 0
700 758 m 1
 775 702 l 1
 126 -58 l 1
 52 -2 l 1
 700 758 l 1
EndSplineSet
EndChar

StartChar: Thorn
Encoding: 222 222 125
Width: 630
VWidth: 0
Flags: HMW
LayerCount: 2
Fore
SplineSet
80 700 m 1
 246 700 l 1
 246 0 l 1
 80 0 l 1
 80 700 l 1
187 436 m 1
 187 584 l 1
 322 584 l 2
 513 584 605 499 605 354 c 0
 605 209 513 124 322 124 c 2
 187 124 l 1
 187 272 l 1
 322 272 l 2
 395 272 435 292 435 354 c 0
 435 416 395 436 322 436 c 2
 187 436 l 1
EndSplineSet
EndChar

StartChar: divide
Encoding: 247 247 126
Width: 644
VWidth: 0
Flags: HMW
LayerCount: 2
Fore
SplineSet
216 583 m 0
 216 640 260 686 322 686 c 0
 384 686 428 640 428 583 c 0
 428 526 384 480 322 480 c 0
 260 480 216 526 216 583 c 0
216 106 m 0
 216 163 260 210 322 210 c 0
 384 210 428 163 428 106 c 0
 428 49 384 3 322 3 c 0
 260 3 216 49 216 106 c 0
16 269 m 1
 16 422 l 1
 629 422 l 1
 629 269 l 1
 16 269 l 1
EndSplineSet
EndChar

StartChar: oslash
Encoding: 248 248 127
Width: 546
VWidth: 0
Flags: HMW
LayerCount: 2
Fore
SplineSet
31 230 m 0
 31 385 150 470 301 470 c 0
 452 470 571 385 571 230 c 0
 571 75 452 -10 301 -10 c 0
 150 -10 31 75 31 230 c 0
193 230 m 0
 193 158 243 121 301 121 c 0
 359 121 410 158 410 230 c 0
 410 294 359 339 301 339 c 0
 243 339 193 294 193 230 c 0
460 508 m 1
 521 472 l 1
 131 -52 l 1
 70 -16 l 1
 460 508 l 1
EndSplineSet
EndChar

StartChar: circumflex
Encoding: 710 710 128
Width: 480
VWidth: 0
Flags: HMW
LayerCount: 2
Fore
SplineSet
240 625 m 1
 154 542 l 1
 32 622 l 1
 240 762 l 1
 448 622 l 1
 326 542 l 1
 240 625 l 1
EndSplineSet
EndChar

StartChar: ogonek
Encoding: 731 731 129
Width: 260
VWidth: 0
Flags: HMW
LayerCount: 2
Fore
SplineSet
194 -106 m 1
 227 -180 l 1
 212 -200 182 -220 123 -220 c 0
 63 -220 8 -187 8 -120 c 0
 8 -53 78 -11 148 25 c 1
 189 0 l 1
 137 -30 112 -63 112 -92 c 0
 112 -113 122 -126 144 -126 c 0
 162 -126 180 -119 194 -106 c 1
EndSplineSet
EndChar

StartChar: tilde
Encoding: 732 732 130
Width: 530
VWidth: 0
Flags: HMW
LayerCount: 2
Fore
SplineSet
68 641 m 1
 78 690 123 739 192 739 c 0
 259 739 275 686 332 686 c 0
 359 686 380 708 400 740 c 1
 478 657 l 1
 462 620 402 568 336 568 c 0
 281 568 242 623 191 623 c 0
 154 623 145 587 145 572 c 1
 68 641 l 1
EndSplineSet
EndChar

StartChar: ring
Encoding: 730 730 131
Width: 342
VWidth: 0
Flags: HMW
LayerCount: 2
Fore
SplineSet
39 765 m 0
 39 836 96 885 171 885 c 0
 246 885 303 836 303 765 c 0
 303 694 246 645 171 645 c 0
 96 645 39 694 39 765 c 0
126 765 m 0
 126 736 146 719 171 719 c 0
 196 719 216 736 216 765 c 0
 216 794 196 811 171 811 c 0
 146 811 126 794 126 765 c 0
EndSplineSet
EndChar

StartChar: dotaccent
Encoding: 729 729 132
Width: 300
VWidth: 0
Flags: HMW
LayerCount: 2
Fore
SplineSet
52 820 m 0
 52 874 96 910 150 910 c 0
 204 910 248 874 248 820 c 0
 248 766 204 730 150 730 c 0
 96 730 52 766 52 820 c 0
EndSplineSet
EndChar

StartChar: uni2010
Encoding: 8208 8208 133
Width: 225
VWidth: 0
Flags: HMW
LayerCount: 2
Fore
SplineSet
5 164 m 1
 5 311 l 1
 221 311 l 1
 221 164 l 1
 5 164 l 1
EndSplineSet
EndChar

StartChar: endash
Encoding: 8211 8211 134
Width: 796
VWidth: 0
Flags: HMW
LayerCount: 2
Fore
SplineSet
70 164 m 1
 70 311 l 1
 718 311 l 1
 718 164 l 1
 70 164 l 1
EndSplineSet
EndChar

StartChar: figuredash
Encoding: 8210 8210 135
Width: 638
VWidth: 0
Flags: HMW
LayerCount: 2
Fore
SplineSet
70 164 m 1
 70 311 l 1
 556 311 l 1
 556 164 l 1
 70 164 l 1
EndSplineSet
EndChar

StartChar: emdash
Encoding: 8212 8212 136
Width: 954
VWidth: 0
Flags: HMW
LayerCount: 2
Fore
SplineSet
70 164 m 1
 70 311 l 1
 880 311 l 1
 880 164 l 1
 70 164 l 1
EndSplineSet
EndChar

StartChar: minus
Encoding: 8722 8722 137
Width: 593
VWidth: 0
Flags: HMW
LayerCount: 2
Fore
SplineSet
54 164 m 1
 54 311 l 1
 540 311 l 1
 540 164 l 1
 54 164 l 1
EndSplineSet
EndChar

StartChar: quoteright
Encoding: 8217 8217 138
Width: 347
VWidth: 0
Flags: HMW
LayerCount: 2
Fore
SplineSet
102 700 m 1
 278 700 l 1
 174 438 l 1
 50 438 l 1
 102 700 l 1
EndSplineSet
EndChar

StartChar: quoteleft
Encoding: 8216 8216 139
Width: 347
VWidth: 0
Flags: HMW
LayerCount: 2
Fore
SplineSet
246 438 m 1
 70 438 l 1
 174 700 l 1
 298 700 l 1
 246 438 l 1
EndSplineSet
EndChar

StartChar: quotesinglbase
Encoding: 8218 8218 140
Width: 347
VWidth: 0
Flags: HMW
LayerCount: 2
Fore
SplineSet
112 80 m 1
 288 80 l 1
 184 -182 l 1
 60 -182 l 1
 112 80 l 1
EndSplineSet
EndChar

StartChar: quotedblleft
Encoding: 8220 8220 141
Width: 587
VWidth: 0
Flags: HMW
LayerCount: 2
Fore
SplineSet
246 438 m 1
 70 438 l 1
 174 700 l 1
 298 700 l 1
 246 438 l 1
486 438 m 1
 310 438 l 1
 414 700 l 1
 538 700 l 1
 486 438 l 1
EndSplineSet
EndChar

StartChar: quotedblright
Encoding: 8221 8221 142
Width: 587
VWidth: 0
Flags: HMW
LayerCount: 2
Fore
SplineSet
102 700 m 1
 278 700 l 1
 174 438 l 1
 50 438 l 1
 102 700 l 1
342 700 m 1
 518 700 l 1
 414 438 l 1
 290 438 l 1
 342 700 l 1
EndSplineSet
EndChar

StartChar: perthousand
Encoding: 8240 8240 143
Width: 1445
VWidth: 0
Flags: HMW
LayerCount: 2
Fore
SplineSet
1030 171 m 0
 1030 277 1118 363 1229 363 c 0
 1340 363 1427 277 1427 171 c 0
 1427 65 1340 -21 1229 -21 c 0
 1118 -21 1030 65 1030 171 c 0
1170 171 m 0
 1170 139 1196 113 1229 113 c 0
 1262 113 1286 139 1286 171 c 0
 1286 203 1262 229 1229 229 c 0
 1196 229 1170 203 1170 171 c 0
19 530 m 0
 19 636 106 722 217 722 c 0
 328 722 416 636 416 530 c 0
 416 424 328 338 217 338 c 0
 106 338 19 424 19 530 c 0
159 530 m 0
 159 498 184 472 217 472 c 0
 250 472 275 498 275 530 c 0
 275 562 250 588 217 588 c 0
 184 588 159 562 159 530 c 0
553 171 m 0
 553 277 641 363 752 363 c 0
 863 363 950 277 950 171 c 0
 950 65 863 -21 752 -21 c 0
 641 -21 553 65 553 171 c 0
694 171 m 0
 694 139 719 113 752 113 c 0
 785 113 810 139 810 171 c 0
 810 203 785 229 752 229 c 0
 719 229 694 203 694 171 c 0
676 700 m 1
 856 700 l 1
 293 0 l 1
 113 0 l 1
 676 700 l 1
EndSplineSet
EndChar

StartChar: guilsinglleft
Encoding: 8249 8249 144
Width: 350
VWidth: 0
Flags: HMW
LayerCount: 2
Fore
SplineSet
154 259 m 1
 304 65 l 1
 198 -4 l 1
 24 255 l 1
 198 514 l 1
 304 445 l 1
 154 259 l 1
EndSplineSet
EndChar

StartChar: guilsinglright
Encoding: 8250 8250 145
Width: 350
VWidth: 0
Flags: HMW
LayerCount: 2
Fore
SplineSet
196 251 m 1
 46 445 l 1
 152 514 l 1
 326 255 l 1
 152 -4 l 1
 46 65 l 1
 196 251 l 1
EndSplineSet
EndChar

StartChar: uni2031
Encoding: 8241 8241 146
Width: 1922
VWidth: 0
Flags: HMW
LayerCount: 2
Fore
SplineSet
1507 171 m 0
 1507 277 1595 363 1706 363 c 0
 1817 363 1904 277 1904 171 c 0
 1904 65 1817 -21 1706 -21 c 0
 1595 -21 1507 65 1507 171 c 0
1647 171 m 0
 1647 139 1673 113 1706 113 c 0
 1739 113 1763 139 1763 171 c 0
 1763 203 1739 229 1706 229 c 0
 1673 229 1647 203 1647 171 c 0
1030 171 m 0
 1030 277 1118 363 1229 363 c 0
 1340 363 1427 277 1427 171 c 0
 1427 65 1340 -21 1229 -21 c 0
 1118 -21 1030 65 1030 171 c 0
1170 171 m 0
 1170 139 1196 113 1229 113 c 0
 1262 113 1286 139 1286 171 c 0
 1286 203 1262 229 1229 229 c 0
 1196 229 1170 203 1170 171 c 0
19 530 m 0
 19 636 106 722 217 722 c 0
 328 722 416 636 416 530 c 0
 416 424 328 338 217 338 c 0
 106 338 19 424 19 530 c 0
159 530 m 0
 159 498 184 472 217 472 c 0
 250 472 275 498 275 530 c 0
 275 562 250 588 217 588 c 0
 184 588 159 562 159 530 c 0
553 171 m 0
 553 277 641 363 752 363 c 0
 863 363 950 277 950 171 c 0
 950 65 863 -21 752 -21 c 0
 641 -21 553 65 553 171 c 0
694 171 m 0
 694 139 719 113 752 113 c 0
 785 113 810 139 810 171 c 0
 810 203 785 229 752 229 c 0
 719 229 694 203 694 171 c 0
676 700 m 1
 856 700 l 1
 293 0 l 1
 113 0 l 1
 676 700 l 1
EndSplineSet
EndChar

StartChar: uni203D
Encoding: 8253 8253 147
Width: 647
VWidth: 0
Flags: HMW
LayerCount: 2
Fore
SplineSet
440 476 m 0
 440 546 387 579 309 579 c 0
 250 579 188 557 157 491 c 1
 44 588 l 1
 90 658 200 721 327 721 c 0
 460 721 596 643 596 500 c 0
 596 341 415 274 300 274 c 1
 290 349 l 1
 362 349 440 400 440 476 c 0
220 502 m 1
 378 502 l 1
 349 210 l 1
 250 210 l 1
 220 502 l 1
199 68 m 0
 199 122 244 164 306 164 c 0
 368 164 414 122 414 68 c 0
 414 14 368 -27 306 -27 c 0
 244 -27 199 14 199 68 c 0
EndSplineSet
EndChar

StartChar: Euro
Encoding: 8364 8364 148
Width: 676
VWidth: 0
Flags: HMW
LayerCount: 2
Fore
SplineSet
65 374 m 1
 65 469 l 1
 554 469 l 1
 554 374 l 1
 65 374 l 1
47 239 m 1
 47 334 l 1
 536 334 l 1
 536 239 l 1
 47 239 l 1
276 350 m 0
 276 203 338 135 426 135 c 0
 483 135 535 157 576 197 c 1
 576 19 l 1
 531 -7 480 -22 426 -22 c 0
 228 -22 110 141 110 350 c 0
 110 559 228 723 426 723 c 0
 480 723 531 708 576 682 c 1
 576 503 l 1
 535 543 483 565 426 565 c 0
 338 565 276 497 276 350 c 0
EndSplineSet
EndChar

StartChar: fraction
Encoding: 8260 8260 149
Width: 737
VWidth: 0
Flags: HMW
LayerCount: 2
Fore
SplineSet
580 700 m 1
 718 700 l 1
 198 0 l 1
 60 0 l 1
 580 700 l 1
EndSplineSet
EndChar

StartChar: onequarter
Encoding: 188 188 150
Width: 842
VWidth: 0
Flags: HMW
LayerCount: 2
Fore
SplineSet
634 700 m 1
 739 700 l 1
 219 0 l 1
 114 0 l 1
 634 700 l 1
22 561 m 1
 22 660 l 1
 241 702 l 1
 241 274 l 1
 129 274 l 1
 129 587 l 1
 22 561 l 1
409 72 m 1
 505 153 l 1
 691 153 l 0
 701 170 l 0
 814 170 l 1
 814 72 l 1
 409 72 l 1
526 111 m 1
 409 72 l 1
 657 420 l 1
 748 420 l 1
 748 0 l 1
 627 0 l 1
 627 94 l 0
 641 100 l 0
 641 264 l 1
 526 111 l 1
EndSplineSet
EndChar

StartChar: onehalf
Encoding: 189 189 151
Width: 915
VWidth: 0
Flags: HMW
LayerCount: 2
Fore
SplineSet
634 700 m 1
 739 700 l 1
 219 0 l 1
 114 0 l 1
 634 700 l 1
22 561 m 1
 22 660 l 1
 241 702 l 1
 241 274 l 1
 129 274 l 1
 129 587 l 1
 22 561 l 1
509 2 m 1
 693 190 l 2
 728 228 750 253 750 286 c 0
 750 310 735 333 700 333 c 0
 665 333 642 303 642 263 c 1
 528 263 l 1
 528 352 588 431 704 431 c 0
 811 431 870 361 870 293 c 0
 870 248 846 211 809 181 c 2
 721 108 l 1
 883 108 l 1
 883 2 l 1
 509 2 l 1
EndSplineSet
EndChar

StartChar: threequarters
Encoding: 190 190 152
Width: 896
VWidth: 0
Flags: HMW
LayerCount: 2
Fore
SplineSet
697 700 m 1
 802 700 l 1
 282 0 l 1
 177 0 l 1
 697 700 l 1
167 482 m 1
 167 531 l 1
 211 531 242 555 242 583 c 0
 242 604 228 617 199 617 c 0
 170 617 149 599 149 572 c 1
 42 572 l 1
 42 649 104 708 200 708 c 0
 301 708 357 657 357 591 c 0
 357 515 272 482 167 482 c 1
195 269 m 0
 87 269 24 343 24 420 c 1
 139 420 l 1
 139 378 169 361 200 361 c 0
 231 361 254 373 254 407 c 0
 254 437 231 460 167 460 c 1
 167 517 l 1
 287 517 369 481 369 396 c 0
 369 323 306 269 195 269 c 0
464 72 m 1
 559 153 l 1
 746 153 l 0
 756 170 l 0
 869 170 l 1
 869 72 l 1
 464 72 l 1
581 111 m 1
 464 72 l 1
 712 420 l 1
 803 420 l 1
 803 0 l 1
 682 0 l 1
 682 94 l 0
 696 100 l 0
 696 264 l 1
 581 111 l 1
EndSplineSet
EndChar

StartChar: uni2150
Encoding: 8528 8528 153
Width: 971
VWidth: 0
Flags: HMW
LayerCount: 2
Fore
SplineSet
616 700 m 1
 754 700 l 1
 234 0 l 1
 96 0 l 1
 616 700 l 1
22 561 m 1
 22 660 l 1
 241 702 l 1
 241 274 l 1
 129 274 l 1
 129 587 l 1
 22 561 l 1
595 312 m 1
 595 420 l 1
 952 420 l 1
 748 0 l 1
 623 0 l 1
 781 312 l 1
 595 312 l 1
EndSplineSet
EndChar

StartChar: uni2151
Encoding: 8529 8529 154
Width: 913
VWidth: 0
Flags: HMW
LayerCount: 2
Fore
SplineSet
608 700 m 1
 746 700 l 1
 226 0 l 1
 88 0 l 1
 608 700 l 1
22 561 m 1
 22 660 l 1
 241 702 l 1
 241 274 l 1
 129 274 l 1
 129 587 l 1
 22 561 l 1
773 272 m 0
 773 311 746 334 710 334 c 0
 674 334 646 311 646 272 c 0
 646 233 674 209 710 209 c 0
 746 209 773 233 773 272 c 0
719 4 m 1
 571 4 l 1
 708 150 l 1
 734 162 l 1
 710 140 693 135 662 135 c 0
 601 135 531 185 531 272 c 0
 531 380 612 433 710 433 c 0
 808 433 889 380 889 272 c 0
 889 223 865 183 834 146 c 2
 719 4 l 1
EndSplineSet
EndChar

StartChar: uni2152
Encoding: 8530 8530 155
Width: 1249
VWidth: 0
Flags: HMW
LayerCount: 2
Fore
SplineSet
608 700 m 1
 746 700 l 1
 226 0 l 1
 88 0 l 1
 608 700 l 1
22 561 m 1
 22 660 l 1
 241 702 l 1
 241 274 l 1
 129 274 l 1
 129 587 l 1
 22 561 l 1
569 288 m 1
 569 387 l 1
 788 429 l 1
 788 1 l 1
 676 1 l 1
 676 314 l 1
 569 288 l 1
966 210 m 0
 966 136 994 90 1035 90 c 0
 1076 90 1104 136 1104 210 c 0
 1104 284 1076 330 1035 330 c 0
 994 330 966 284 966 210 c 0
855 210 m 0
 855 350 928 428 1035 428 c 0
 1146 428 1216 350 1216 210 c 0
 1216 70 1146 -8 1035 -8 c 0
 928 -8 855 70 855 210 c 0
EndSplineSet
EndChar

StartChar: onethird
Encoding: 8531 8531 156
Width: 908
VWidth: 0
Flags: HMW
LayerCount: 2
Fore
SplineSet
607 700 m 1
 745 700 l 1
 225 0 l 1
 87 0 l 1
 607 700 l 1
22 561 m 1
 22 660 l 1
 241 702 l 1
 241 274 l 1
 129 274 l 1
 129 587 l 1
 22 561 l 1
682 202 m 1
 682 251 l 1
 726 251 758 275 758 303 c 0
 758 324 743 337 714 337 c 0
 685 337 665 319 665 292 c 1
 558 292 l 1
 558 369 619 428 715 428 c 0
 816 428 873 377 873 311 c 0
 873 235 787 202 682 202 c 1
710 -11 m 0
 602 -11 540 63 540 140 c 1
 655 140 l 1
 655 98 684 81 715 81 c 0
 746 81 770 93 770 127 c 0
 770 157 746 180 682 180 c 1
 682 237 l 1
 802 237 885 201 885 116 c 0
 885 43 821 -11 710 -11 c 0
EndSplineSet
EndChar

StartChar: twothirds
Encoding: 8532 8532 157
Width: 1043
VWidth: 0
Flags: HMW
LayerCount: 2
Fore
SplineSet
760 700 m 1
 897 700 l 1
 377 0 l 1
 240 0 l 1
 760 700 l 1
30 282 m 1
 214 470 l 2
 249 508 271 533 271 566 c 0
 271 590 256 613 221 613 c 0
 186 613 163 583 163 543 c 1
 49 543 l 1
 49 632 109 711 225 711 c 0
 332 711 391 641 391 573 c 0
 391 528 366 491 329 461 c 2
 242 388 l 1
 404 388 l 1
 404 282 l 1
 30 282 l 1
817 202 m 1
 817 251 l 1
 861 251 893 275 893 303 c 0
 893 324 879 337 850 337 c 0
 821 337 800 319 800 292 c 1
 693 292 l 1
 693 369 754 428 850 428 c 0
 951 428 1008 377 1008 311 c 0
 1008 235 922 202 817 202 c 1
845 -11 m 0
 737 -11 675 63 675 140 c 1
 790 140 l 1
 790 98 819 81 850 81 c 0
 881 81 905 93 905 127 c 0
 905 157 881 180 817 180 c 1
 817 237 l 1
 937 237 1020 201 1020 116 c 0
 1020 43 956 -11 845 -11 c 0
EndSplineSet
EndChar

StartChar: uni2155
Encoding: 8533 8533 158
Width: 897
VWidth: 0
Flags: HMW
LayerCount: 2
Fore
SplineSet
608 700 m 1
 746 700 l 1
 226 0 l 1
 88 0 l 1
 608 700 l 1
22 561 m 1
 22 660 l 1
 241 702 l 1
 241 274 l 1
 129 274 l 1
 129 587 l 1
 22 561 l 1
876 131 m 0
 876 31 781 -10 700 -10 c 0
 623 -10 570 10 527 34 c 1
 565 134 l 1
 603 108 644 96 671 96 c 0
 719 96 749 110 749 146 c 0
 749 182 708 193 671 193 c 0
 641 193 593 189 550 170 c 1
 633 224 l 1
 666 259 703 267 748 267 c 0
 813 267 876 219 876 131 c 0
694 317 m 1
 659 219 l 1
 550 170 l 1
 610 418 l 1
 866 418 l 1
 866 317 l 1
 694 317 l 1
EndSplineSet
EndChar

StartChar: uni2156
Encoding: 8534 8534 159
Width: 1044
VWidth: 0
Flags: HMW
LayerCount: 2
Fore
SplineSet
760 700 m 1
 897 700 l 1
 377 0 l 1
 240 0 l 1
 760 700 l 1
30 282 m 1
 214 470 l 2
 249 508 271 533 271 566 c 0
 271 590 256 613 221 613 c 0
 186 613 163 583 163 543 c 1
 49 543 l 1
 49 632 109 711 225 711 c 0
 332 711 391 641 391 573 c 0
 391 528 366 491 329 461 c 2
 242 388 l 1
 404 388 l 1
 404 282 l 1
 30 282 l 1
1011 131 m 0
 1011 31 916 -10 835 -10 c 0
 758 -10 705 10 662 34 c 1
 700 134 l 1
 738 108 779 96 806 96 c 0
 854 96 884 110 884 146 c 0
 884 182 843 193 806 193 c 0
 776 193 729 189 686 170 c 1
 768 224 l 1
 801 259 838 267 883 267 c 0
 948 267 1011 219 1011 131 c 0
830 317 m 1
 794 219 l 1
 686 170 l 1
 745 418 l 1
 1001 418 l 1
 1001 317 l 1
 830 317 l 1
EndSplineSet
EndChar

StartChar: uni2157
Encoding: 8535 8535 160
Width: 960
VWidth: 0
Flags: HMW
LayerCount: 2
Fore
SplineSet
679 700 m 1
 817 700 l 1
 297 0 l 1
 159 0 l 1
 679 700 l 1
163 482 m 1
 163 531 l 1
 207 531 238 555 238 583 c 0
 238 604 224 617 195 617 c 0
 166 617 145 599 145 572 c 1
 38 572 l 1
 38 649 100 708 196 708 c 0
 297 708 353 657 353 591 c 0
 353 515 268 482 163 482 c 1
191 269 m 0
 83 269 20 343 20 420 c 1
 135 420 l 1
 135 378 165 361 196 361 c 0
 227 361 250 373 250 407 c 0
 250 437 227 460 163 460 c 1
 163 517 l 1
 283 517 365 481 365 396 c 0
 365 323 302 269 191 269 c 0
923 131 m 0
 923 31 828 -10 747 -10 c 0
 670 -10 617 10 574 34 c 1
 612 134 l 1
 650 108 691 96 718 96 c 0
 766 96 796 110 796 146 c 0
 796 182 755 193 718 193 c 0
 688 193 640 189 597 170 c 1
 680 224 l 1
 713 259 750 267 795 267 c 0
 860 267 923 219 923 131 c 0
741 317 m 1
 705 219 l 1
 597 170 l 1
 656 418 l 1
 912 418 l 1
 912 317 l 1
 741 317 l 1
EndSplineSet
EndChar

StartChar: uni2158
Encoding: 8536 8536 161
Width: 1059
VWidth: 0
Flags: HMW
LayerCount: 2
Fore
SplineSet
746 699 m 1
 884 699 l 1
 364 -1 l 1
 226 -1 l 1
 746 699 l 1
19 352 m 1
 115 433 l 1
 302 433 l 0
 312 450 l 0
 424 450 l 1
 424 352 l 1
 19 352 l 1
136 391 m 1
 19 352 l 1
 267 700 l 1
 358 700 l 1
 358 280 l 1
 237 280 l 1
 237 374 l 0
 252 380 l 0
 252 544 l 1
 136 391 l 1
1030 130 m 0
 1030 30 936 -11 855 -11 c 0
 778 -11 724 9 681 33 c 1
 719 134 l 1
 757 108 798 95 825 95 c 0
 873 95 903 109 903 145 c 0
 903 181 862 193 825 193 c 0
 795 193 748 188 705 169 c 1
 787 223 l 1
 820 258 857 267 902 267 c 0
 967 267 1030 218 1030 130 c 0
849 317 m 1
 813 218 l 1
 705 169 l 1
 764 417 l 1
 1020 417 l 1
 1020 317 l 1
 849 317 l 1
EndSplineSet
EndChar

StartChar: uni2159
Encoding: 8537 8537 162
Width: 911
VWidth: 0
Flags: HMW
LayerCount: 2
Fore
SplineSet
633 700 m 1
 770 700 l 1
 250 0 l 1
 113 0 l 1
 633 700 l 1
22 561 m 1
 22 660 l 1
 241 702 l 1
 241 274 l 1
 129 274 l 1
 129 587 l 1
 22 561 l 1
639 148 m 0
 639 109 667 86 703 86 c 0
 739 86 767 109 767 148 c 0
 767 187 739 211 703 211 c 0
 667 211 639 187 639 148 c 0
695 416 m 1
 842 416 l 1
 705 270 l 1
 679 258 l 1
 703 280 720 285 751 285 c 0
 812 285 883 235 883 148 c 0
 883 40 801 -13 703 -13 c 0
 605 -13 524 40 524 148 c 0
 524 197 548 237 579 274 c 2
 695 416 l 1
EndSplineSet
EndChar

StartChar: uni215A
Encoding: 8538 8538 163
Width: 952
VWidth: 0
Flags: HMW
LayerCount: 2
Fore
SplineSet
698 700 m 1
 836 700 l 1
 316 0 l 1
 178 0 l 1
 698 700 l 1
379 411 m 0
 379 311 284 270 203 270 c 0
 126 270 73 290 30 314 c 1
 68 414 l 1
 106 388 147 376 174 376 c 0
 222 376 252 390 252 426 c 0
 252 462 211 473 174 473 c 0
 144 473 96 469 53 450 c 1
 136 504 l 1
 169 539 206 547 251 547 c 0
 316 547 379 499 379 411 c 0
198 597 m 1
 162 499 l 1
 53 450 l 1
 112 698 l 1
 368 698 l 1
 368 597 l 1
 198 597 l 1
681 148 m 0
 681 109 709 86 745 86 c 0
 781 86 808 109 808 148 c 0
 808 187 781 211 745 211 c 0
 709 211 681 187 681 148 c 0
736 416 m 1
 883 416 l 1
 746 270 l 1
 721 258 l 1
 745 280 761 285 792 285 c 0
 853 285 924 235 924 148 c 0
 924 40 843 -13 745 -13 c 0
 647 -13 565 40 565 148 c 0
 565 197 590 237 621 274 c 2
 736 416 l 1
EndSplineSet
EndChar

StartChar: oneeighth
Encoding: 8539 8539 164
Width: 929
VWidth: 0
Flags: HMW
LayerCount: 2
Fore
SplineSet
633 700 m 1
 770 700 l 1
 250 0 l 1
 113 0 l 1
 633 700 l 1
22 561 m 1
 22 660 l 1
 241 702 l 1
 241 274 l 1
 129 274 l 1
 129 587 l 1
 22 561 l 1
584 319 m 0
 584 393 653 431 734 431 c 0
 815 431 884 393 884 319 c 0
 884 239 803 203 734 203 c 0
 665 203 584 239 584 319 c 0
694 308 m 0
 694 283 710 265 734 265 c 0
 758 265 774 283 774 308 c 0
 774 333 758 349 734 349 c 0
 710 349 694 333 694 308 c 0
569 114 m 0
 569 206 665 239 734 239 c 0
 803 239 899 206 899 114 c 0
 899 34 819 -11 734 -11 c 0
 649 -11 569 34 569 114 c 0
686 132 m 0
 686 99 707 82 734 82 c 0
 761 82 782 99 782 132 c 0
 782 159 761 179 734 179 c 0
 707 179 686 159 686 132 c 0
EndSplineSet
EndChar

StartChar: threeeighths
Encoding: 8540 8540 165
Width: 984
VWidth: 0
Flags: HMW
LayerCount: 2
Fore
SplineSet
687 700 m 1
 825 700 l 1
 305 0 l 1
 167 0 l 1
 687 700 l 1
163 482 m 1
 163 531 l 1
 207 531 238 555 238 583 c 0
 238 604 224 617 195 617 c 0
 166 617 145 599 145 572 c 1
 38 572 l 1
 38 649 100 708 196 708 c 0
 297 708 353 657 353 591 c 0
 353 515 268 482 163 482 c 1
191 269 m 0
 83 269 20 343 20 420 c 1
 135 420 l 1
 135 378 165 361 196 361 c 0
 227 361 250 373 250 407 c 0
 250 437 227 460 163 460 c 1
 163 517 l 1
 283 517 365 481 365 396 c 0
 365 323 302 269 191 269 c 0
639 319 m 0
 639 393 708 431 789 431 c 0
 870 431 938 393 938 319 c 0
 938 239 858 203 789 203 c 0
 720 203 639 239 639 319 c 0
748 308 m 0
 748 283 765 265 789 265 c 0
 813 265 829 283 829 308 c 0
 829 333 813 349 789 349 c 0
 765 349 748 333 748 308 c 0
624 114 m 0
 624 206 720 239 789 239 c 0
 858 239 953 206 953 114 c 0
 953 34 874 -11 789 -11 c 0
 704 -11 624 34 624 114 c 0
740 132 m 0
 740 99 762 82 789 82 c 0
 816 82 837 99 837 132 c 0
 837 159 816 179 789 179 c 0
 762 179 740 159 740 132 c 0
EndSplineSet
EndChar

StartChar: fiveeighths
Encoding: 8541 8541 166
Width: 994
VWidth: 0
Flags: HMW
LayerCount: 2
Fore
SplineSet
698 700 m 1
 836 700 l 1
 316 0 l 1
 178 0 l 1
 698 700 l 1
371 411 m 0
 371 311 276 270 195 270 c 0
 118 270 65 290 22 314 c 1
 60 414 l 1
 98 388 139 376 166 376 c 0
 214 376 244 390 244 426 c 0
 244 462 203 473 166 473 c 0
 136 473 88 469 45 450 c 1
 128 504 l 1
 161 539 198 547 243 547 c 0
 308 547 371 499 371 411 c 0
190 597 m 1
 154 499 l 1
 45 450 l 1
 104 698 l 1
 360 698 l 1
 360 597 l 1
 190 597 l 1
649 319 m 0
 649 393 718 431 799 431 c 0
 880 431 949 393 949 319 c 0
 949 239 868 203 799 203 c 0
 730 203 649 239 649 319 c 0
759 308 m 0
 759 283 775 265 799 265 c 0
 823 265 840 283 840 308 c 0
 840 333 823 349 799 349 c 0
 775 349 759 333 759 308 c 0
634 114 m 0
 634 206 730 239 799 239 c 0
 868 239 964 206 964 114 c 0
 964 34 884 -11 799 -11 c 0
 714 -11 634 34 634 114 c 0
751 132 m 0
 751 99 772 82 799 82 c 0
 826 82 847 99 847 132 c 0
 847 159 826 179 799 179 c 0
 772 179 751 159 751 132 c 0
EndSplineSet
EndChar

StartChar: seveneighths
Encoding: 8542 8542 167
Width: 884
VWidth: 0
Flags: HMW
LayerCount: 2
Fore
SplineSet
580 700 m 1
 718 700 l 1
 198 0 l 1
 60 0 l 1
 580 700 l 1
21 592 m 1
 21 700 l 1
 378 700 l 1
 175 280 l 1
 49 280 l 1
 208 592 l 1
 21 592 l 1
539 319 m 0
 539 393 608 431 689 431 c 0
 770 431 839 393 839 319 c 0
 839 239 758 203 689 203 c 0
 620 203 539 239 539 319 c 0
649 308 m 0
 649 283 665 265 689 265 c 0
 713 265 730 283 730 308 c 0
 730 333 713 349 689 349 c 0
 665 349 649 333 649 308 c 0
524 114 m 0
 524 206 620 239 689 239 c 0
 758 239 854 206 854 114 c 0
 854 34 774 -11 689 -11 c 0
 604 -11 524 34 524 114 c 0
641 132 m 0
 641 99 662 82 689 82 c 0
 716 82 737 99 737 132 c 0
 737 159 716 179 689 179 c 0
 662 179 641 159 641 132 c 0
EndSplineSet
EndChar

StartChar: uni2074
Encoding: 8308 8308 168
Width: 438
VWidth: 0
Flags: HMW
LayerCount: 2
Fore
SplineSet
11 352 m 1
 107 433 l 1
 293 433 l 0
 303 450 l 0
 416 450 l 1
 416 352 l 1
 11 352 l 1
128 391 m 1
 11 352 l 1
 259 700 l 1
 350 700 l 1
 350 280 l 1
 229 280 l 1
 229 374 l 0
 244 380 l 0
 244 544 l 1
 128 391 l 1
EndSplineSet
EndChar

StartChar: uni2075
Encoding: 8309 8309 169
Width: 396
VWidth: 0
Flags: HMW
LayerCount: 2
Fore
SplineSet
371 411 m 0
 371 311 276 270 195 270 c 0
 118 270 65 290 22 314 c 1
 60 414 l 1
 98 388 139 376 166 376 c 0
 214 376 244 390 244 426 c 0
 244 462 203 473 166 473 c 0
 136 473 88 469 45 450 c 1
 128 504 l 1
 161 539 198 547 243 547 c 0
 308 547 371 499 371 411 c 0
190 597 m 1
 154 499 l 1
 45 450 l 1
 104 698 l 1
 360 698 l 1
 360 597 l 1
 190 597 l 1
EndSplineSet
EndChar

StartChar: uni2076
Encoding: 8310 8310 170
Width: 394
VWidth: 0
Flags: HMW
LayerCount: 2
Fore
SplineSet
133 428 m 0
 133 389 162 366 198 366 c 0
 234 366 261 389 261 428 c 0
 261 467 234 491 198 491 c 0
 162 491 133 467 133 428 c 0
189 696 m 1
 336 696 l 1
 199 550 l 1
 173 538 l 1
 197 560 214 565 245 565 c 0
 306 565 377 515 377 428 c 0
 377 320 296 267 198 267 c 0
 100 267 18 320 18 428 c 0
 18 477 43 517 74 554 c 2
 189 696 l 1
EndSplineSet
EndChar

StartChar: uni2077
Encoding: 8311 8311 171
Width: 386
VWidth: 0
Flags: HMW
LayerCount: 2
Fore
SplineSet
21 592 m 1
 21 700 l 1
 378 700 l 1
 175 280 l 1
 49 280 l 1
 208 592 l 1
 21 592 l 1
EndSplineSet
EndChar

StartChar: uni2078
Encoding: 8312 8312 172
Width: 373
VWidth: 0
Flags: HMW
LayerCount: 2
Fore
SplineSet
35 599 m 0
 35 673 104 711 185 711 c 0
 266 711 335 673 335 599 c 0
 335 519 254 483 185 483 c 0
 116 483 35 519 35 599 c 0
145 588 m 0
 145 563 161 545 185 545 c 0
 209 545 226 563 226 588 c 0
 226 613 209 629 185 629 c 0
 161 629 145 613 145 588 c 0
20 394 m 0
 20 486 116 519 185 519 c 0
 254 519 350 486 350 394 c 0
 350 314 270 269 185 269 c 0
 100 269 20 314 20 394 c 0
137 412 m 0
 137 379 158 362 185 362 c 0
 212 362 233 379 233 412 c 0
 233 439 212 459 185 459 c 0
 158 459 137 439 137 412 c 0
EndSplineSet
EndChar

StartChar: uni2079
Encoding: 8313 8313 173
Width: 390
VWidth: 0
Flags: HMW
LayerCount: 2
Fore
SplineSet
260 552 m 0
 260 591 233 614 197 614 c 0
 161 614 133 591 133 552 c 0
 133 513 161 489 197 489 c 0
 233 489 260 513 260 552 c 0
206 284 m 1
 58 284 l 1
 195 430 l 1
 221 442 l 1
 197 420 180 415 149 415 c 0
 88 415 18 465 18 552 c 0
 18 660 99 713 197 713 c 0
 295 713 376 660 376 552 c 0
 376 503 351 463 320 426 c 2
 206 284 l 1
EndSplineSet
EndChar

StartChar: uni2070
Encoding: 8304 8304 174
Width: 395
VWidth: 0
Flags: HMW
LayerCount: 2
Fore
SplineSet
129 490 m 0
 129 416 157 370 198 370 c 0
 239 370 267 416 267 490 c 0
 267 564 239 610 198 610 c 0
 157 610 129 564 129 490 c 0
18 490 m 0
 18 630 91 708 198 708 c 0
 309 708 378 630 378 490 c 0
 378 350 309 272 198 272 c 0
 91 272 18 350 18 490 c 0
EndSplineSet
EndChar

StartChar: uni2080
Encoding: 8320 8320 175
Width: 395
VWidth: 0
Flags: HMW
LayerCount: 2
Fore
SplineSet
129 210 m 0
 129 136 157 90 198 90 c 0
 239 90 267 136 267 210 c 0
 267 284 239 330 198 330 c 0
 157 330 129 284 129 210 c 0
18 210 m 0
 18 350 91 428 198 428 c 0
 309 428 378 350 378 210 c 0
 378 70 309 -8 198 -8 c 0
 91 -8 18 70 18 210 c 0
EndSplineSet
EndChar

StartChar: uni2084
Encoding: 8324 8324 176
Width: 444
VWidth: 0
Flags: HMW
LayerCount: 2
Fore
SplineSet
10 72 m 1
 105 153 l 1
 292 153 l 0
 302 170 l 0
 415 170 l 1
 415 72 l 1
 10 72 l 1
127 111 m 1
 10 72 l 1
 257 420 l 1
 349 420 l 1
 349 0 l 1
 227 0 l 1
 227 94 l 0
 242 100 l 0
 242 264 l 1
 127 111 l 1
EndSplineSet
EndChar

StartChar: uni2085
Encoding: 8325 8325 177
Width: 407
VWidth: 0
Flags: HMW
LayerCount: 2
Fore
SplineSet
375 131 m 0
 375 31 280 -10 199 -10 c 0
 122 -10 69 10 26 34 c 1
 64 134 l 1
 102 108 143 96 170 96 c 0
 218 96 248 110 248 146 c 0
 248 182 207 193 170 193 c 0
 140 193 92 189 49 170 c 1
 132 224 l 1
 165 259 202 267 247 267 c 0
 312 267 375 219 375 131 c 0
194 317 m 1
 158 219 l 1
 49 170 l 1
 108 418 l 1
 364 418 l 1
 364 317 l 1
 194 317 l 1
EndSplineSet
EndChar

StartChar: uni2086
Encoding: 8326 8326 178
Width: 408
VWidth: 0
Flags: HMW
LayerCount: 2
Fore
SplineSet
138 148 m 0
 138 109 166 86 202 86 c 0
 238 86 266 109 266 148 c 0
 266 187 238 211 202 211 c 0
 166 211 138 187 138 148 c 0
193 416 m 1
 341 416 l 1
 204 270 l 1
 178 258 l 1
 202 280 218 285 249 285 c 0
 310 285 381 235 381 148 c 0
 381 40 300 -13 202 -13 c 0
 104 -13 23 40 23 148 c 0
 23 197 47 237 78 274 c 2
 193 416 l 1
EndSplineSet
EndChar

StartChar: uni2087
Encoding: 8327 8327 179
Width: 392
VWidth: 0
Flags: HMW
LayerCount: 2
Fore
SplineSet
26 312 m 1
 26 420 l 1
 383 420 l 1
 179 0 l 1
 54 0 l 1
 212 312 l 1
 26 312 l 1
EndSplineSet
EndChar

StartChar: uni2088
Encoding: 8328 8328 180
Width: 381
VWidth: 0
Flags: HMW
LayerCount: 2
Fore
SplineSet
41 319 m 0
 41 393 110 431 191 431 c 0
 272 431 341 393 341 319 c 0
 341 239 260 203 191 203 c 0
 122 203 41 239 41 319 c 0
150 308 m 0
 150 283 167 265 191 265 c 0
 215 265 231 283 231 308 c 0
 231 333 215 349 191 349 c 0
 167 349 150 333 150 308 c 0
26 114 m 0
 26 206 122 239 191 239 c 0
 260 239 356 206 356 114 c 0
 356 34 276 -11 191 -11 c 0
 106 -11 26 34 26 114 c 0
143 132 m 0
 143 99 164 82 191 82 c 0
 218 82 239 99 239 132 c 0
 239 159 218 179 191 179 c 0
 164 179 143 159 143 132 c 0
EndSplineSet
EndChar

StartChar: uni2089
Encoding: 8329 8329 181
Width: 413
VWidth: 0
Flags: HMW
LayerCount: 2
Fore
SplineSet
268 272 m 0
 268 311 240 334 204 334 c 0
 168 334 140 311 140 272 c 0
 140 233 168 209 204 209 c 0
 240 209 268 233 268 272 c 0
213 4 m 1
 65 4 l 1
 203 150 l 1
 228 162 l 1
 204 140 187 135 156 135 c 0
 95 135 25 185 25 272 c 0
 25 380 106 433 204 433 c 0
 302 433 384 380 384 272 c 0
 384 223 358 183 327 146 c 2
 213 4 l 1
EndSplineSet
EndChar

StartChar: uni2081
Encoding: 8321 8321 182
Width: 374
VWidth: 0
Flags: HMW
LayerCount: 2
Fore
SplineSet
90 288 m 1
 90 387 l 1
 309 429 l 1
 309 1 l 1
 198 1 l 1
 198 314 l 1
 90 288 l 1
EndSplineSet
EndChar

StartChar: uni2082
Encoding: 8322 8322 183
Width: 429
VWidth: 0
Flags: HMW
LayerCount: 2
Fore
SplineSet
29 2 m 1
 213 190 l 2
 248 228 270 253 270 286 c 0
 270 310 255 333 220 333 c 0
 185 333 162 303 162 263 c 1
 48 263 l 1
 48 352 108 431 224 431 c 0
 331 431 390 361 390 293 c 0
 390 248 365 211 328 181 c 2
 241 108 l 1
 403 108 l 1
 403 2 l 1
 29 2 l 1
EndSplineSet
EndChar

StartChar: uni2083
Encoding: 8323 8323 184
Width: 389
VWidth: 0
Flags: HMW
LayerCount: 2
Fore
SplineSet
164 202 m 1
 164 251 l 1
 208 251 239 275 239 303 c 0
 239 324 225 337 196 337 c 0
 167 337 146 319 146 292 c 1
 39 292 l 1
 39 369 101 428 197 428 c 0
 298 428 354 377 354 311 c 0
 354 235 269 202 164 202 c 1
191 -11 m 0
 83 -11 21 63 21 140 c 1
 136 140 l 1
 136 98 165 81 196 81 c 0
 227 81 251 93 251 127 c 0
 251 157 228 180 164 180 c 1
 164 237 l 1
 284 237 366 201 366 116 c 0
 366 43 302 -11 191 -11 c 0
EndSplineSet
EndChar

StartChar: Agrave
Encoding: 192 192 185
Width: 756
VWidth: 0
Flags: HMW
LayerCount: 2
Fore
SplineSet
195 113 m 1
 201 256 l 1
 560 256 l 1
 565 113 l 1
 195 113 l 1
378 413 m 1
 286 204 l 1
 299 160 l 1
 217 0 l 1
 -3 0 l 1
 378 747 l 1
 760 0 l 1
 540 0 l 1
 460 153 l 1
 471 203 l 1
 378 413 l 1
208 957 m 1
 335 1013 l 1
 485 853 l 1
 388 807 l 1
 208 957 l 1
EndSplineSet
EndChar

StartChar: Aacute
Encoding: 193 193 186
Width: 756
VWidth: 0
Flags: HMW
LayerCount: 2
Fore
SplineSet
195 113 m 1
 201 256 l 1
 560 256 l 1
 565 113 l 1
 195 113 l 1
378 413 m 1
 286 204 l 1
 299 160 l 1
 217 0 l 1
 -3 0 l 1
 378 747 l 1
 760 0 l 1
 540 0 l 1
 460 153 l 1
 471 203 l 1
 378 413 l 1
545 957 m 1
 365 807 l 1
 267 853 l 1
 417 1013 l 1
 545 957 l 1
EndSplineSet
EndChar

StartChar: Acircumflex
Encoding: 194 194 187
Width: 756
VWidth: 0
Flags: HMW
LayerCount: 2
Fore
SplineSet
195 113 m 1
 201 256 l 1
 560 256 l 1
 565 113 l 1
 195 113 l 1
378 413 m 1
 286 204 l 1
 299 160 l 1
 217 0 l 1
 -3 0 l 1
 378 747 l 1
 760 0 l 1
 540 0 l 1
 460 153 l 1
 471 203 l 1
 378 413 l 1
378 882 m 1
 293 799 l 1
 170 880 l 1
 378 1020 l 1
 587 880 l 1
 464 799 l 1
 378 882 l 1
EndSplineSet
EndChar

StartChar: Atilde
Encoding: 195 195 188
Width: 756
VWidth: 0
Flags: HMW
LayerCount: 2
Fore
SplineSet
195 113 m 1
 201 256 l 1
 560 256 l 1
 565 113 l 1
 195 113 l 1
378 413 m 1
 286 204 l 1
 299 160 l 1
 217 0 l 1
 -3 0 l 1
 378 747 l 1
 760 0 l 1
 540 0 l 1
 460 153 l 1
 471 203 l 1
 378 413 l 1
173 877 m 1
 183 926 228 976 297 976 c 0
 364 976 380 922 437 922 c 0
 464 922 485 945 505 977 c 1
 584 893 l 1
 568 856 507 804 441 804 c 0
 386 804 347 859 296 859 c 0
 259 859 250 823 250 808 c 1
 173 877 l 1
EndSplineSet
EndChar

StartChar: Adieresis
Encoding: 196 196 189
Width: 756
VWidth: 0
Flags: HMW
LayerCount: 2
Fore
SplineSet
195 113 m 1
 201 256 l 1
 560 256 l 1
 565 113 l 1
 195 113 l 1
378 413 m 1
 286 204 l 1
 299 160 l 1
 217 0 l 1
 -3 0 l 1
 378 747 l 1
 760 0 l 1
 540 0 l 1
 460 153 l 1
 471 203 l 1
 378 413 l 1
433 824 m 0
 433 878 477 914 531 914 c 0
 585 914 629 878 629 824 c 0
 629 770 585 735 531 735 c 0
 477 735 433 770 433 824 c 0
120 832 m 0
 120 886 164 922 218 922 c 0
 272 922 316 886 316 832 c 0
 316 778 272 743 218 743 c 0
 164 743 120 778 120 832 c 0
EndSplineSet
EndChar

StartChar: Aring
Encoding: 197 197 190
Width: 756
VWidth: 0
Flags: HMW
LayerCount: 2
Fore
SplineSet
195 113 m 1
 201 256 l 1
 560 256 l 1
 565 113 l 1
 195 113 l 1
378 413 m 1
 286 204 l 1
 299 160 l 1
 217 0 l 1
 -3 0 l 1
 378 747 l 1
 760 0 l 1
 540 0 l 1
 460 153 l 1
 471 203 l 1
 378 413 l 1
247 801 m 0
 247 872 303 922 378 922 c 0
 453 922 510 872 510 801 c 0
 510 730 453 681 378 681 c 0
 303 681 247 730 247 801 c 0
333 801 m 0
 333 772 353 756 378 756 c 0
 403 756 423 772 423 801 c 0
 423 830 403 848 378 848 c 0
 353 848 333 830 333 801 c 0
EndSplineSet
EndChar

StartChar: AE
Encoding: 198 198 191
Width: 1121
VWidth: 0
Flags: HMW
LayerCount: 2
Fore
SplineSet
286 133 m 1
 294 310 l 1
 594 310 l 1
 594 133 l 1
 286 133 l 1
439 700 m 1
 629 660 l 1
 266 0 l 1
 17 0 l 1
 439 700 l 1
658 0 m 1
 658 157 l 1
 1052 157 l 1
 1052 0 l 1
 658 0 l 1
666 543 m 1
 439 700 l 1
 1052 700 l 1
 1052 543 l 1
 666 543 l 1
658 288 m 1
 658 440 l 1
 1032 440 l 1
 1032 288 l 1
 658 288 l 1
567 700 m 1
 777 700 l 1
 777 0 l 1
 567 0 l 1
 567 700 l 1
EndSplineSet
EndChar

StartChar: Ccedilla
Encoding: 199 199 192
Width: 704
VWidth: 0
Flags: HMW
LayerCount: 2
Fore
SplineSet
244 350 m 0
 244 231 333 165 439 165 c 0
 538 165 598 209 643 255 c 1
 643 51 l 1
 587 10 528 -18 426 -18 c 0
 192 -18 32 129 32 350 c 0
 32 571 192 718 426 718 c 0
 528 718 587 690 643 649 c 1
 643 445 l 1
 598 491 538 535 439 535 c 0
 333 535 244 469 244 350 c 0
352 45 m 1
 476 40 l 1
 384 -84 l 1
 397 -81 412 -80 428 -80 c 0
 470 -80 525 -113 525 -184 c 0
 525 -260 453 -298 387 -298 c 0
 326 -298 278 -288 226 -258 c 1
 276 -181 l 1
 303 -200 343 -207 361 -207 c 0
 395 -207 417 -197 417 -173 c 0
 417 -146 383 -142 353 -142 c 0
 343 -142 302 -143 263 -157 c 1
 352 45 l 1
EndSplineSet
EndChar

StartChar: Egrave
Encoding: 200 200 193
Width: 618
VWidth: 0
Flags: HMW
LayerCount: 2
Fore
SplineSet
204 0 m 1
 204 157 l 1
 557 157 l 1
 557 0 l 1
 204 0 l 1
204 543 m 1
 204 700 l 1
 557 700 l 1
 557 543 l 1
 204 543 l 1
204 288 m 1
 204 440 l 1
 537 440 l 1
 537 288 l 1
 204 288 l 1
72 700 m 1
 258 700 l 1
 258 0 l 1
 72 0 l 1
 72 700 l 1
144 936 m 1
 271 992 l 1
 421 832 l 1
 324 786 l 1
 144 936 l 1
EndSplineSet
EndChar

StartChar: Eacute
Encoding: 201 201 194
Width: 618
VWidth: 0
Flags: HMW
LayerCount: 2
Fore
SplineSet
204 0 m 1
 204 157 l 1
 557 157 l 1
 557 0 l 1
 204 0 l 1
204 543 m 1
 204 700 l 1
 557 700 l 1
 557 543 l 1
 204 543 l 1
204 288 m 1
 204 440 l 1
 537 440 l 1
 537 288 l 1
 204 288 l 1
72 700 m 1
 258 700 l 1
 258 0 l 1
 72 0 l 1
 72 700 l 1
481 936 m 1
 301 786 l 1
 204 832 l 1
 354 992 l 1
 481 936 l 1
EndSplineSet
EndChar

StartChar: Ecircumflex
Encoding: 202 202 195
Width: 618
VWidth: 0
Flags: HMW
LayerCount: 2
Fore
SplineSet
204 0 m 1
 204 157 l 1
 557 157 l 1
 557 0 l 1
 204 0 l 1
204 543 m 1
 204 700 l 1
 557 700 l 1
 557 543 l 1
 204 543 l 1
204 288 m 1
 204 440 l 1
 537 440 l 1
 537 288 l 1
 204 288 l 1
72 700 m 1
 258 700 l 1
 258 0 l 1
 72 0 l 1
 72 700 l 1
316 889 m 1
 206 794 l 1
 156 834 l 1
 316 974 l 1
 476 834 l 1
 426 794 l 1
 316 889 l 1
EndSplineSet
EndChar

StartChar: Edieresis
Encoding: 203 203 196
Width: 618
VWidth: 0
Flags: HMW
LayerCount: 2
Fore
SplineSet
204 0 m 1
 204 157 l 1
 557 157 l 1
 557 0 l 1
 204 0 l 1
204 543 m 1
 204 700 l 1
 557 700 l 1
 557 543 l 1
 204 543 l 1
204 288 m 1
 204 440 l 1
 537 440 l 1
 537 288 l 1
 204 288 l 1
72 700 m 1
 258 700 l 1
 258 0 l 1
 72 0 l 1
 72 700 l 1
347 872 m 0
 347 926 391 961 445 961 c 0
 499 961 543 926 543 872 c 0
 543 818 499 782 445 782 c 0
 391 782 347 818 347 872 c 0
91 872 m 0
 91 926 134 961 188 961 c 0
 242 961 286 926 286 872 c 0
 286 818 242 782 188 782 c 0
 134 782 91 818 91 872 c 0
EndSplineSet
EndChar

StartChar: Igrave
Encoding: 204 204 197
Width: 341
VWidth: 0
Flags: HMW
LayerCount: 2
Fore
SplineSet
72 700 m 1
 270 700 l 1
 270 0 l 1
 72 0 l 1
 72 700 l 1
-8 936 m 1
 120 992 l 1
 270 832 l 1
 172 786 l 1
 -8 936 l 1
EndSplineSet
EndChar

StartChar: Iacute
Encoding: 205 205 198
Width: 341
VWidth: 0
Flags: HMW
LayerCount: 2
Fore
SplineSet
72 700 m 1
 270 700 l 1
 270 0 l 1
 72 0 l 1
 72 700 l 1
330 936 m 1
 150 786 l 1
 52 832 l 1
 202 992 l 1
 330 936 l 1
EndSplineSet
EndChar

StartChar: Icircumflex
Encoding: 206 206 199
Width: 341
VWidth: 0
Flags: HMW
LayerCount: 2
Fore
SplineSet
72 700 m 1
 270 700 l 1
 270 0 l 1
 72 0 l 1
 72 700 l 1
162 889 m 1
 52 794 l 1
 2 834 l 1
 162 974 l 1
 322 834 l 1
 272 794 l 1
 162 889 l 1
EndSplineSet
EndChar

StartChar: Idieresis
Encoding: 207 207 200
Width: 341
VWidth: 0
Flags: HMW
LayerCount: 2
Fore
SplineSet
72 700 m 1
 270 700 l 1
 270 0 l 1
 72 0 l 1
 72 700 l 1
202 868 m 0
 202 922 246 958 300 958 c 0
 354 958 397 922 397 868 c 0
 397 814 354 778 300 778 c 0
 246 778 202 814 202 868 c 0
-55 868 m 0
 -55 922 -11 958 43 958 c 0
 97 958 141 922 141 868 c 0
 141 814 97 778 43 778 c 0
 -11 778 -55 814 -55 868 c 0
EndSplineSet
EndChar

StartChar: Ntilde
Encoding: 209 209 201
Width: 798
VWidth: 0
Flags: HMW
LayerCount: 2
Fore
SplineSet
541 700 m 1
 727 700 l 1
 727 -35 l 1
 258 356 l 1
 258 0 l 1
 72 0 l 1
 72 735 l 1
 541 344 l 1
 541 700 l 1
159 845 m 1
 169 894 214 943 283 943 c 0
 350 943 366 890 423 890 c 0
 450 890 471 912 491 944 c 1
 569 861 l 1
 553 824 493 772 427 772 c 0
 372 772 333 827 282 827 c 0
 245 827 236 791 236 776 c 1
 159 845 l 1
EndSplineSet
EndChar

StartChar: Eth
Encoding: 208 208 202
Width: 748
VWidth: 0
Flags: HMW
LayerCount: 2
Fore
SplineSet
6 300 m 1
 6 408 l 1
 370 408 l 1
 370 300 l 1
 6 300 l 1
72 700 m 1
 273 700 l 1
 273 0 l 1
 72 0 l 1
 72 700 l 1
334 0 m 2
 204 0 l 1
 204 170 l 1
 326 170 l 2
 419 170 515 203 515 350 c 0
 515 497 419 530 326 530 c 2
 204 530 l 1
 204 700 l 1
 334 700 l 2
 570 700 717 567 717 350 c 0
 717 133 570 0 334 0 c 2
EndSplineSet
EndChar

StartChar: Ograve
Encoding: 210 210 203
Width: 830
VWidth: 0
Flags: HMW
LayerCount: 2
Fore
SplineSet
238 350 m 0
 238 236 306 158 415 158 c 0
 524 158 593 236 593 350 c 0
 593 464 528 542 415 542 c 0
 306 542 238 464 238 350 c 0
32 350 m 0
 32 570 199 718 415 718 c 0
 635 718 798 570 798 350 c 0
 798 130 639 -26 415 -26 c 0
 191 -26 32 130 32 350 c 0
259 936 m 1
 386 992 l 1
 536 832 l 1
 439 786 l 1
 259 936 l 1
EndSplineSet
EndChar

StartChar: Oacute
Encoding: 211 211 204
Width: 830
VWidth: 0
Flags: HMW
LayerCount: 2
Fore
SplineSet
238 350 m 0
 238 236 306 158 415 158 c 0
 524 158 593 236 593 350 c 0
 593 464 528 542 415 542 c 0
 306 542 238 464 238 350 c 0
32 350 m 0
 32 570 199 718 415 718 c 0
 635 718 798 570 798 350 c 0
 798 130 639 -26 415 -26 c 0
 191 -26 32 130 32 350 c 0
592 936 m 1
 412 786 l 1
 314 832 l 1
 464 992 l 1
 592 936 l 1
EndSplineSet
EndChar

StartChar: Ocircumflex
Encoding: 212 212 205
Width: 830
VWidth: 0
Flags: HMW
LayerCount: 2
Fore
SplineSet
238 350 m 0
 238 236 306 158 415 158 c 0
 524 158 593 236 593 350 c 0
 593 464 528 542 415 542 c 0
 306 542 238 464 238 350 c 0
32 350 m 0
 32 570 199 718 415 718 c 0
 635 718 798 570 798 350 c 0
 798 130 639 -26 415 -26 c 0
 191 -26 32 130 32 350 c 0
427 889 m 1
 317 794 l 1
 267 834 l 1
 427 974 l 1
 587 834 l 1
 537 794 l 1
 427 889 l 1
EndSplineSet
EndChar

StartChar: Otilde
Encoding: 213 213 206
Width: 830
VWidth: 0
Flags: HMW
LayerCount: 2
Fore
SplineSet
238 350 m 0
 238 236 306 158 415 158 c 0
 524 158 593 236 593 350 c 0
 593 464 528 542 415 542 c 0
 306 542 238 464 238 350 c 0
32 350 m 0
 32 570 199 718 415 718 c 0
 635 718 798 570 798 350 c 0
 798 130 639 -26 415 -26 c 0
 191 -26 32 130 32 350 c 0
254 852 m 1
 264 901 313 934 358 934 c 0
 423 934 428 887 482 887 c 0
 501 887 518 903 538 935 c 1
 584 892 l 1
 568 855 528 819 478 819 c 0
 423 819 402 866 357 866 c 0
 316 866 307 830 307 815 c 1
 254 852 l 1
EndSplineSet
EndChar

StartChar: Odieresis
Encoding: 214 214 207
Width: 830
VWidth: 0
Flags: HMW
LayerCount: 2
Fore
SplineSet
238 350 m 0
 238 236 306 158 415 158 c 0
 524 158 593 236 593 350 c 0
 593 464 528 542 415 542 c 0
 306 542 238 464 238 350 c 0
32 350 m 0
 32 570 199 718 415 718 c 0
 635 718 798 570 798 350 c 0
 798 130 639 -26 415 -26 c 0
 191 -26 32 130 32 350 c 0
446 868 m 0
 446 922 489 958 543 958 c 0
 597 958 641 922 641 868 c 0
 641 814 597 778 543 778 c 0
 489 778 446 814 446 868 c 0
189 868 m 0
 189 922 233 958 287 958 c 0
 341 958 385 922 385 868 c 0
 385 814 341 778 287 778 c 0
 233 778 189 814 189 868 c 0
EndSplineSet
EndChar

StartChar: Ugrave
Encoding: 217 217 208
Width: 722
VWidth: 0
Flags: HMW
LayerCount: 2
Fore
SplineSet
67 700 m 1
 261 700 l 1
 261 246 l 2
 261 182 293 139 361 139 c 0
 429 139 462 182 462 246 c 2
 462 700 l 1
 656 700 l 1
 656 230 l 2
 656 43 522 -34 361 -34 c 0
 200 -34 67 43 67 230 c 2
 67 700 l 1
191 928 m 1
 318 984 l 1
 468 824 l 1
 371 778 l 1
 191 928 l 1
EndSplineSet
EndChar

StartChar: Uacute
Encoding: 218 218 209
Width: 722
VWidth: 0
Flags: HMW
LayerCount: 2
Fore
SplineSet
67 700 m 1
 261 700 l 1
 261 246 l 2
 261 182 293 139 361 139 c 0
 429 139 462 182 462 246 c 2
 462 700 l 1
 656 700 l 1
 656 230 l 2
 656 43 522 -34 361 -34 c 0
 200 -34 67 43 67 230 c 2
 67 700 l 1
532 928 m 1
 352 778 l 1
 254 824 l 1
 404 984 l 1
 532 928 l 1
EndSplineSet
EndChar

StartChar: Ucircumflex
Encoding: 219 219 210
Width: 722
VWidth: 0
Flags: HMW
LayerCount: 2
Fore
SplineSet
67 700 m 1
 261 700 l 1
 261 246 l 2
 261 182 293 139 361 139 c 0
 429 139 462 182 462 246 c 2
 462 700 l 1
 656 700 l 1
 656 230 l 2
 656 43 522 -34 361 -34 c 0
 200 -34 67 43 67 230 c 2
 67 700 l 1
361 861 m 1
 276 778 l 1
 153 858 l 1
 361 998 l 1
 570 858 l 1
 447 778 l 1
 361 861 l 1
EndSplineSet
EndChar

StartChar: Udieresis
Encoding: 220 220 211
Width: 722
VWidth: 0
Flags: HMW
LayerCount: 2
Fore
SplineSet
67 700 m 1
 261 700 l 1
 261 246 l 2
 261 182 293 139 361 139 c 0
 429 139 462 182 462 246 c 2
 462 700 l 1
 656 700 l 1
 656 230 l 2
 656 43 522 -34 361 -34 c 0
 200 -34 67 43 67 230 c 2
 67 700 l 1
416 868 m 0
 416 922 460 958 514 958 c 0
 568 958 612 922 612 868 c 0
 612 814 568 778 514 778 c 0
 460 778 416 814 416 868 c 0
111 868 m 0
 111 922 155 958 209 958 c 0
 263 958 307 922 307 868 c 0
 307 814 263 778 209 778 c 0
 155 778 111 814 111 868 c 0
EndSplineSet
EndChar

StartChar: Yacute
Encoding: 221 221 212
Width: 689
VWidth: 0
Flags: HMW
LayerCount: 2
Fore
SplineSet
515 928 m 1
 335 778 l 1
 238 824 l 1
 388 984 l 1
 515 928 l 1
468 700 m 1
 692 700 l 1
 444 280 l 1
 444 0 l 1
 246 0 l 1
 246 278 l 1
 -3 700 l 1
 221 700 l 1
 345 455 l 1
 468 700 l 1
EndSplineSet
EndChar

StartChar: agrave
Encoding: 224 224 213
Width: 561
VWidth: 0
Flags: HMW
LayerCount: 2
Fore
SplineSet
196 138 m 0
 196 109 220 97 252 97 c 0
 300 97 345 118 345 188 c 1
 361 130 l 1
 361 41 287 -10 192 -10 c 0
 89 -10 22 41 22 129 c 0
 22 220 103 277 222 277 c 0
 286 277 356 254 378 231 c 1
 378 153 l 1
 347 177 316 189 266 189 c 0
 223 189 196 168 196 138 c 0
119 309 m 1
 64 422 l 1
 122 447 201 474 284 474 c 0
 413 474 510 419 510 322 c 2
 510 0 l 1
 345 0 l 1
 345 283 l 2
 345 320 318 346 268 346 c 0
 202 346 141 321 119 309 c 1
108 684 m 1
 236 740 l 1
 386 580 l 1
 288 534 l 1
 108 684 l 1
EndSplineSet
Substitution2: "alt a" agrave.alt
EndChar

StartChar: aacute
Encoding: 225 225 214
Width: 561
VWidth: 0
Flags: HMW
LayerCount: 2
Fore
SplineSet
196 138 m 0
 196 109 220 97 252 97 c 0
 300 97 345 118 345 188 c 1
 361 130 l 1
 361 41 287 -10 192 -10 c 0
 89 -10 22 41 22 129 c 0
 22 220 103 277 222 277 c 0
 286 277 356 254 378 231 c 1
 378 153 l 1
 347 177 316 189 266 189 c 0
 223 189 196 168 196 138 c 0
119 309 m 1
 64 422 l 1
 122 447 201 474 284 474 c 0
 413 474 510 419 510 322 c 2
 510 0 l 1
 345 0 l 1
 345 283 l 2
 345 320 318 346 268 346 c 0
 202 346 141 321 119 309 c 1
460 684 m 1
 280 534 l 1
 183 580 l 1
 333 740 l 1
 460 684 l 1
EndSplineSet
Substitution2: "alt a" aacute.alt
EndChar

StartChar: acircumflex
Encoding: 226 226 215
Width: 561
VWidth: 0
Flags: HMW
LayerCount: 2
Fore
SplineSet
196 138 m 0
 196 109 220 97 252 97 c 0
 300 97 345 118 345 188 c 1
 361 130 l 1
 361 41 287 -10 192 -10 c 0
 89 -10 22 41 22 129 c 0
 22 220 103 277 222 277 c 0
 286 277 356 254 378 231 c 1
 378 153 l 1
 347 177 316 189 266 189 c 0
 223 189 196 168 196 138 c 0
119 309 m 1
 64 422 l 1
 122 447 201 474 284 474 c 0
 413 474 510 419 510 322 c 2
 510 0 l 1
 345 0 l 1
 345 283 l 2
 345 320 318 346 268 346 c 0
 202 346 141 321 119 309 c 1
284 617 m 1
 198 534 l 1
 76 614 l 1
 284 754 l 1
 493 614 l 1
 370 534 l 1
 284 617 l 1
EndSplineSet
Substitution2: "alt a" acircumflex.alt
EndChar

StartChar: atilde
Encoding: 227 227 216
Width: 561
VWidth: 0
Flags: HMW
LayerCount: 2
Fore
SplineSet
196 138 m 0
 196 109 220 97 252 97 c 0
 300 97 345 118 345 188 c 1
 361 130 l 1
 361 41 287 -10 192 -10 c 0
 89 -10 22 41 22 129 c 0
 22 220 103 277 222 277 c 0
 286 277 356 254 378 231 c 1
 378 153 l 1
 347 177 316 189 266 189 c 0
 223 189 196 168 196 138 c 0
119 309 m 1
 64 422 l 1
 122 447 201 474 284 474 c 0
 413 474 510 419 510 322 c 2
 510 0 l 1
 345 0 l 1
 345 283 l 2
 345 320 318 346 268 346 c 0
 202 346 141 321 119 309 c 1
79 608 m 1
 89 657 134 706 203 706 c 0
 270 706 286 653 343 653 c 0
 370 653 391 675 411 707 c 1
 490 624 l 1
 474 587 413 535 347 535 c 0
 292 535 253 590 202 590 c 0
 165 590 156 554 156 539 c 1
 79 608 l 1
EndSplineSet
Substitution2: "alt a" atilde.alt
EndChar

StartChar: adieresis
Encoding: 228 228 217
Width: 561
VWidth: 0
Flags: HMW
LayerCount: 2
Fore
SplineSet
196 138 m 0
 196 109 220 97 252 97 c 0
 300 97 345 118 345 188 c 1
 361 130 l 1
 361 41 287 -10 192 -10 c 0
 89 -10 22 41 22 129 c 0
 22 220 103 277 222 277 c 0
 286 277 356 254 378 231 c 1
 378 153 l 1
 347 177 316 189 266 189 c 0
 223 189 196 168 196 138 c 0
119 309 m 1
 64 422 l 1
 122 447 201 474 284 474 c 0
 413 474 510 419 510 322 c 2
 510 0 l 1
 345 0 l 1
 345 283 l 2
 345 320 318 346 268 346 c 0
 202 346 141 321 119 309 c 1
315 624 m 0
 315 678 359 713 413 713 c 0
 467 713 510 678 510 624 c 0
 510 570 467 534 413 534 c 0
 359 534 315 570 315 624 c 0
58 624 m 0
 58 678 102 713 156 713 c 0
 210 713 254 678 254 624 c 0
 254 570 210 534 156 534 c 0
 102 534 58 570 58 624 c 0
EndSplineSet
Substitution2: "alt a" adieresis.alt
EndChar

StartChar: aring
Encoding: 229 229 218
Width: 561
VWidth: 0
Flags: HMW
LayerCount: 2
Fore
SplineSet
196 138 m 0
 196 109 220 97 252 97 c 0
 300 97 345 118 345 188 c 1
 361 130 l 1
 361 41 287 -10 192 -10 c 0
 89 -10 22 41 22 129 c 0
 22 220 103 277 222 277 c 0
 286 277 356 254 378 231 c 1
 378 153 l 1
 347 177 316 189 266 189 c 0
 223 189 196 168 196 138 c 0
119 309 m 1
 64 422 l 1
 122 447 201 474 284 474 c 0
 413 474 510 419 510 322 c 2
 510 0 l 1
 345 0 l 1
 345 283 l 2
 345 320 318 346 268 346 c 0
 202 346 141 321 119 309 c 1
152 654 m 0
 152 725 209 774 284 774 c 0
 359 774 416 725 416 654 c 0
 416 583 359 534 284 534 c 0
 209 534 152 583 152 654 c 0
239 654 m 0
 239 625 259 609 284 609 c 0
 309 609 329 625 329 654 c 0
 329 683 309 701 284 701 c 0
 259 701 239 683 239 654 c 0
EndSplineSet
Substitution2: "alt a" aring.alt
EndChar

StartChar: germandbls
Encoding: 223 223 219
Width: 598
VWidth: 0
Flags: HMW
LayerCount: 2
Fore
SplineSet
284 146 m 1
 364 146 408 193 408 259 c 0
 408 313 382 357 272 357 c 1
 272 476 l 1
 443 476 581 380 581 225 c 0
 581 70 467 -10 284 -10 c 1
 284 146 l 1
272 409 m 1
 272 512 l 1
 350 512 368 540 368 580 c 0
 368 622 339 642 289 642 c 0
 237 642 212 618 212 582 c 2
 212 0 l 1
 48 0 l 1
 48 606 l 2
 48 731 160 798 289 798 c 0
 448 798 533 715 533 606 c 0
 533 487 443 409 272 409 c 1
EndSplineSet
EndChar

StartChar: ae
Encoding: 230 230 220
Width: 916
VWidth: 0
Flags: HMW
LayerCount: 2
Fore
SplineSet
196 138 m 0
 196 109 220 97 252 97 c 0
 300 97 345 118 345 188 c 1
 423 130 l 1
 423 41 355 -10 220 -10 c 0
 97 -10 22 41 22 129 c 0
 22 220 103 277 222 277 c 0
 286 277 356 254 378 231 c 1
 378 153 l 1
 347 177 316 189 266 189 c 0
 223 189 196 168 196 138 c 0
119 309 m 1
 64 422 l 1
 122 447 201 474 284 474 c 0
 413 474 449 419 449 322 c 2
 449 130 l 1
 345 130 l 1
 345 281 l 2
 345 318 318 346 268 346 c 0
 202 346 141 321 119 309 c 1
422 194 m 1
 422 283 l 1
 866 283 l 1
 881 194 l 1
 422 194 l 1
701 242 m 2
 701 320 679 360 621 360 c 0
 565 360 533 322 533 252 c 1
 531 230 l 1
 531 140 575 109 625 109 c 0
 676 109 712 128 731 162 c 1
 887 131 l 1
 841 45 767 -10 632 -10 c 0
 451 -10 399 91 399 230 c 0
 399 247 402 263 405 279 c 0
 424 392 509 470 652 470 c 0
 794 470 883 383 883 238 c 0
 883 230 883 213 881 194 c 1
 701 214 l 1
 701 242 l 2
EndSplineSet
EndChar

StartChar: ccedilla
Encoding: 231 231 221
Width: 497
VWidth: 0
Flags: HMW
LayerCount: 2
Fore
SplineSet
208 230 m 0
 208 162 258 124 320 124 c 0
 370 124 419 145 448 188 c 1
 448 26 l 1
 416 4 375 -10 304 -10 c 0
 145 -10 30 83 30 230 c 0
 30 377 145 470 304 470 c 0
 375 470 416 453 448 435 c 1
 448 273 l 1
 419 316 362 336 320 336 c 0
 258 336 208 290 208 230 c 0
231 61 m 1
 356 57 l 1
 263 -68 l 1
 276 -65 291 -64 307 -64 c 0
 349 -64 405 -97 405 -168 c 0
 405 -244 332 -282 266 -282 c 0
 205 -282 158 -272 106 -242 c 1
 155 -165 l 1
 182 -184 223 -191 241 -191 c 0
 275 -191 296 -181 296 -157 c 0
 296 -130 262 -126 232 -126 c 0
 222 -126 182 -127 143 -141 c 1
 231 61 l 1
EndSplineSet
EndChar

StartChar: egrave
Encoding: 232 232 222
Width: 590
VWidth: 0
Flags: HMW
LayerCount: 2
Fore
SplineSet
126 194 m 1
 126 283 l 1
 372 283 l 1
 365 333 342 360 295 360 c 0
 239 360 207 322 207 252 c 1
 205 230 l 1
 205 140 249 109 299 109 c 0
 350 109 386 128 405 162 c 1
 561 131 l 1
 515 45 440 -10 305 -10 c 0
 124 -10 31 91 31 230 c 0
 31 247 32 263 35 279 c 0
 54 392 140 470 299 470 c 0
 469 470 557 383 557 238 c 0
 557 230 557 213 555 194 c 1
 126 194 l 1
127 683 m 1
 254 739 l 1
 404 579 l 1
 307 533 l 1
 127 683 l 1
EndSplineSet
EndChar

StartChar: eacute
Encoding: 233 233 223
Width: 590
VWidth: 0
Flags: HMW
LayerCount: 2
Fore
SplineSet
126 194 m 1
 126 283 l 1
 372 283 l 1
 365 333 342 360 295 360 c 0
 239 360 207 322 207 252 c 1
 205 230 l 1
 205 140 249 109 299 109 c 0
 350 109 386 128 405 162 c 1
 561 131 l 1
 515 45 440 -10 305 -10 c 0
 124 -10 31 91 31 230 c 0
 31 247 32 263 35 279 c 0
 54 392 140 470 299 470 c 0
 469 470 557 383 557 238 c 0
 557 230 557 213 555 194 c 1
 126 194 l 1
475 683 m 1
 295 533 l 1
 198 579 l 1
 348 739 l 1
 475 683 l 1
EndSplineSet
EndChar

StartChar: ecircumflex
Encoding: 234 234 224
Width: 590
VWidth: 0
Flags: HMW
LayerCount: 2
Fore
SplineSet
126 194 m 1
 126 283 l 1
 372 283 l 1
 365 333 342 360 295 360 c 0
 239 360 207 322 207 252 c 1
 205 230 l 1
 205 140 249 109 299 109 c 0
 350 109 386 128 405 162 c 1
 561 131 l 1
 515 45 440 -10 305 -10 c 0
 124 -10 31 91 31 230 c 0
 31 247 32 263 35 279 c 0
 54 392 140 470 299 470 c 0
 469 470 557 383 557 238 c 0
 557 230 557 213 555 194 c 1
 126 194 l 1
299 614 m 1
 213 531 l 1
 91 611 l 1
 299 751 l 1
 508 611 l 1
 385 531 l 1
 299 614 l 1
EndSplineSet
EndChar

StartChar: edieresis
Encoding: 235 235 225
Width: 590
VWidth: 0
Flags: HMW
LayerCount: 2
Fore
SplineSet
126 194 m 1
 126 283 l 1
 372 283 l 1
 365 333 342 360 295 360 c 0
 239 360 207 322 207 252 c 1
 205 230 l 1
 205 140 249 109 299 109 c 0
 350 109 386 128 405 162 c 1
 561 131 l 1
 515 45 440 -10 305 -10 c 0
 124 -10 31 91 31 230 c 0
 31 247 32 263 35 279 c 0
 54 392 140 470 299 470 c 0
 469 470 557 383 557 238 c 0
 557 230 557 213 555 194 c 1
 126 194 l 1
330 620 m 0
 330 674 374 710 428 710 c 0
 482 710 526 674 526 620 c 0
 526 566 482 531 428 531 c 0
 374 531 330 566 330 620 c 0
73 620 m 0
 73 674 117 710 171 710 c 0
 225 710 269 674 269 620 c 0
 269 566 225 531 171 531 c 0
 117 531 73 566 73 620 c 0
EndSplineSet
EndChar

StartChar: igrave
Encoding: 236 236 226
Width: 280
VWidth: 0
Flags: HMW
LayerCount: 2
Fore
SplineSet
57 460 m 1
 223 460 l 1
 223 0 l 1
 57 0 l 1
 57 460 l 1
-46 685 m 1
 81 741 l 1
 231 581 l 1
 134 535 l 1
 -46 685 l 1
EndSplineSet
EndChar

StartChar: dotlessi
Encoding: 305 305 227
Width: 280
VWidth: 0
Flags: HMW
LayerCount: 2
Fore
SplineSet
57 460 m 1
 223 460 l 1
 223 0 l 1
 57 0 l 1
 57 460 l 1
EndSplineSet
EndChar

StartChar: kgreenlandic
Encoding: 312 312 228
Width: 617
VWidth: 0
Flags: HMW
LayerCount: 2
Fore
SplineSet
54 460 m 1
 219 460 l 1
 219 0 l 1
 54 0 l 1
 54 460 l 1
385 460 m 1
 590 460 l 1
 394 270 l 1
 610 0 l 1
 409 0 l 1
 189 270 l 1
 385 460 l 1
EndSplineSet
EndChar

StartChar: iacute
Encoding: 237 237 229
Width: 280
VWidth: 0
Flags: HMW
LayerCount: 2
Fore
SplineSet
57 460 m 1
 223 460 l 1
 223 0 l 1
 57 0 l 1
 57 460 l 1
316 685 m 1
 136 535 l 1
 38 581 l 1
 188 741 l 1
 316 685 l 1
EndSplineSet
EndChar

StartChar: icircumflex
Encoding: 238 238 230
Width: 280
VWidth: 0
Flags: HMW
LayerCount: 2
Fore
SplineSet
57 460 m 1
 223 460 l 1
 223 0 l 1
 57 0 l 1
 57 460 l 1
140 616 m 1
 54 533 l 1
 -69 613 l 1
 140 753 l 1
 348 613 l 1
 225 533 l 1
 140 616 l 1
EndSplineSet
EndChar

StartChar: idieresis
Encoding: 239 239 231
Width: 280
VWidth: 0
Flags: HMW
LayerCount: 2
Fore
SplineSet
57 460 m 1
 223 460 l 1
 223 0 l 1
 57 0 l 1
 57 460 l 1
171 626 m 0
 171 680 215 716 269 716 c 0
 323 716 367 680 367 626 c 0
 367 572 323 536 269 536 c 0
 215 536 171 572 171 626 c 0
-85 626 m 0
 -85 680 -42 716 12 716 c 0
 66 716 110 680 110 626 c 0
 110 572 66 536 12 536 c 0
 -42 536 -85 572 -85 626 c 0
EndSplineSet
EndChar

StartChar: ntilde
Encoding: 241 241 232
Width: 589
VWidth: 0
Flags: HMW
LayerCount: 2
Fore
SplineSet
228 460 m 1
 228 0 l 1
 55 0 l 1
 55 460 l 1
 228 460 l 1
354 280 m 2
 354 328 341 356 296 356 c 0
 254 356 228 330 228 280 c 1
 200 272 l 1
 200 381 250 471 369 471 c 0
 488 471 535 409 535 298 c 2
 535 0 l 1
 354 0 l 1
 354 280 l 2
90 605 m 1
 100 654 144 703 213 703 c 0
 280 703 297 650 354 650 c 0
 381 650 402 672 422 704 c 1
 501 621 l 1
 485 584 424 532 358 532 c 0
 303 532 264 587 213 587 c 0
 176 587 166 551 166 536 c 1
 90 605 l 1
EndSplineSet
EndChar

StartChar: ograve
Encoding: 242 242 233
Width: 602
VWidth: 0
Flags: HMW
LayerCount: 2
Fore
SplineSet
31 230 m 0
 31 377 146 471 301 471 c 0
 456 471 571 377 571 230 c 0
 571 83 456 -10 301 -10 c 0
 146 -10 31 83 31 230 c 0
209 230 m 0
 209 166 251 130 301 130 c 0
 351 130 394 166 394 230 c 0
 394 294 351 331 301 331 c 0
 251 331 209 294 209 230 c 0
141 685 m 1
 269 741 l 1
 419 581 l 1
 321 535 l 1
 141 685 l 1
EndSplineSet
EndChar

StartChar: oacute
Encoding: 243 243 234
Width: 602
VWidth: 0
Flags: HMW
LayerCount: 2
Fore
SplineSet
31 230 m 0
 31 377 146 471 301 471 c 0
 456 471 571 377 571 230 c 0
 571 83 456 -10 301 -10 c 0
 146 -10 31 83 31 230 c 0
209 230 m 0
 209 166 251 130 301 130 c 0
 351 130 394 166 394 230 c 0
 394 294 351 331 301 331 c 0
 251 331 209 294 209 230 c 0
461 685 m 1
 281 535 l 1
 184 581 l 1
 334 741 l 1
 461 685 l 1
EndSplineSet
EndChar

StartChar: ocircumflex
Encoding: 244 244 235
Width: 602
VWidth: 0
Flags: HMW
LayerCount: 2
Fore
SplineSet
31 230 m 0
 31 377 146 471 301 471 c 0
 456 471 571 377 571 230 c 0
 571 83 456 -10 301 -10 c 0
 146 -10 31 83 31 230 c 0
209 230 m 0
 209 166 251 130 301 130 c 0
 351 130 394 166 394 230 c 0
 394 294 351 331 301 331 c 0
 251 331 209 294 209 230 c 0
301 617 m 1
 215 535 l 1
 93 615 l 1
 301 755 l 1
 510 615 l 1
 387 535 l 1
 301 617 l 1
EndSplineSet
EndChar

StartChar: otilde
Encoding: 245 245 236
Width: 602
VWidth: 0
Flags: HMW
LayerCount: 2
Fore
SplineSet
31 230 m 0
 31 377 146 471 301 471 c 0
 456 471 571 377 571 230 c 0
 571 83 456 -10 301 -10 c 0
 146 -10 31 83 31 230 c 0
209 230 m 0
 209 166 251 130 301 130 c 0
 351 130 394 166 394 230 c 0
 394 294 351 331 301 331 c 0
 251 331 209 294 209 230 c 0
96 605 m 1
 106 654 151 703 220 703 c 0
 287 703 303 650 360 650 c 0
 387 650 408 672 428 704 c 1
 507 621 l 1
 491 584 430 532 364 532 c 0
 309 532 270 587 219 587 c 0
 182 587 173 551 173 536 c 1
 96 605 l 1
EndSplineSet
EndChar

StartChar: odieresis
Encoding: 246 246 237
Width: 602
VWidth: 0
Flags: HMW
LayerCount: 2
Fore
SplineSet
31 230 m 0
 31 377 146 471 301 471 c 0
 456 471 571 377 571 230 c 0
 571 83 456 -10 301 -10 c 0
 146 -10 31 83 31 230 c 0
209 230 m 0
 209 166 251 130 301 130 c 0
 351 130 394 166 394 230 c 0
 394 294 351 331 301 331 c 0
 251 331 209 294 209 230 c 0
332 626 m 0
 332 680 375 716 429 716 c 0
 483 716 527 680 527 626 c 0
 527 572 483 536 429 536 c 0
 375 536 332 572 332 626 c 0
75 626 m 0
 75 680 119 716 173 716 c 0
 227 716 271 680 271 626 c 0
 271 572 227 536 173 536 c 0
 119 536 75 572 75 626 c 0
EndSplineSet
EndChar

StartChar: ugrave
Encoding: 249 249 238
Width: 589
VWidth: 0
Flags: HMW
LayerCount: 2
Fore
SplineSet
362 0 m 1
 362 460 l 1
 535 460 l 1
 535 0 l 1
 362 0 l 1
236 180 m 2
 236 132 248 104 293 104 c 0
 335 104 362 130 362 180 c 1
 390 188 l 1
 390 79 340 -11 221 -11 c 0
 102 -11 55 51 55 162 c 2
 55 460 l 1
 236 460 l 1
 236 180 l 2
142 685 m 1
 270 741 l 1
 420 581 l 1
 322 535 l 1
 142 685 l 1
EndSplineSet
EndChar

StartChar: uacute
Encoding: 250 250 239
Width: 589
VWidth: 0
Flags: HMW
LayerCount: 2
Fore
SplineSet
362 0 m 1
 362 460 l 1
 535 460 l 1
 535 0 l 1
 362 0 l 1
236 180 m 2
 236 132 248 104 293 104 c 0
 335 104 362 130 362 180 c 1
 390 188 l 1
 390 79 340 -11 221 -11 c 0
 102 -11 55 51 55 162 c 2
 55 460 l 1
 236 460 l 1
 236 180 l 2
447 685 m 1
 267 535 l 1
 169 581 l 1
 319 741 l 1
 447 685 l 1
EndSplineSet
EndChar

StartChar: ucircumflex
Encoding: 251 251 240
Width: 589
VWidth: 0
Flags: HMW
LayerCount: 2
Fore
SplineSet
362 0 m 1
 362 460 l 1
 535 460 l 1
 535 0 l 1
 362 0 l 1
236 180 m 2
 236 132 248 104 293 104 c 0
 335 104 362 130 362 180 c 1
 390 188 l 1
 390 79 340 -11 221 -11 c 0
 102 -11 55 51 55 162 c 2
 55 460 l 1
 236 460 l 1
 236 180 l 2
294 617 m 1
 208 535 l 1
 86 615 l 1
 294 755 l 1
 503 615 l 1
 380 535 l 1
 294 617 l 1
EndSplineSet
EndChar

StartChar: udieresis
Encoding: 252 252 241
Width: 589
VWidth: 0
Flags: HMW
LayerCount: 2
Fore
SplineSet
362 0 m 1
 362 460 l 1
 535 460 l 1
 535 0 l 1
 362 0 l 1
236 180 m 2
 236 132 248 104 293 104 c 0
 335 104 362 130 362 180 c 1
 390 188 l 1
 390 79 340 -11 221 -11 c 0
 102 -11 55 51 55 162 c 2
 55 460 l 1
 236 460 l 1
 236 180 l 2
326 624 m 0
 326 678 369 714 423 714 c 0
 477 714 521 678 521 624 c 0
 521 570 477 535 423 535 c 0
 369 535 326 570 326 624 c 0
69 624 m 0
 69 678 113 714 167 714 c 0
 221 714 265 678 265 624 c 0
 265 570 221 535 167 535 c 0
 113 535 69 570 69 624 c 0
EndSplineSet
EndChar

StartChar: yacute
Encoding: 253 253 242
Width: 544
VWidth: 0
Flags: HMW
LayerCount: 2
Fore
SplineSet
557 460 m 1
 257 -220 l 1
 86 -220 l 1
 194 29 l 1
 -12 460 l 1
 176 460 l 1
 325 88 l 1
 234 89 l 1
 382 460 l 1
 557 460 l 1
443 685 m 1
 263 535 l 1
 165 581 l 1
 315 741 l 1
 443 685 l 1
EndSplineSet
EndChar

StartChar: thorn
Encoding: 254 254 243
Width: 630
VWidth: 0
Flags: HMW
LayerCount: 2
Fore
SplineSet
227 -220 m 1
 54 -220 l 1
 54 780 l 1
 227 780 l 1
 227 -220 l 1
600 230 m 0
 600 73 493 -10 384 -10 c 0
 269 -10 183 81 183 230 c 0
 183 379 269 470 384 470 c 0
 493 470 600 387 600 230 c 0
418 230 m 0
 418 292 374 335 321 335 c 0
 275 335 227 296 227 230 c 0
 227 164 275 125 321 125 c 0
 374 125 418 168 418 230 c 0
EndSplineSet
EndChar

StartChar: ydieresis
Encoding: 255 255 244
Width: 544
VWidth: 0
Flags: HMW
LayerCount: 2
Fore
SplineSet
557 460 m 1
 257 -220 l 1
 86 -220 l 1
 194 29 l 1
 -12 460 l 1
 176 460 l 1
 325 88 l 1
 234 89 l 1
 382 460 l 1
 557 460 l 1
303 620 m 0
 303 674 347 710 401 710 c 0
 455 710 498 674 498 620 c 0
 498 566 455 531 401 531 c 0
 347 531 303 566 303 620 c 0
46 620 m 0
 46 674 90 710 144 710 c 0
 198 710 242 674 242 620 c 0
 242 566 198 531 144 531 c 0
 90 531 46 566 46 620 c 0
EndSplineSet
EndChar

StartChar: Amacron
Encoding: 256 256 245
Width: 756
VWidth: 0
Flags: HMW
LayerCount: 2
Fore
SplineSet
195 113 m 1
 201 256 l 1
 560 256 l 1
 565 113 l 1
 195 113 l 1
378 413 m 1
 286 204 l 1
 299 160 l 1
 217 0 l 1
 -3 0 l 1
 378 747 l 1
 760 0 l 1
 540 0 l 1
 460 153 l 1
 471 203 l 1
 378 413 l 1
190 807 m 1
 190 955 l 1
 567 955 l 1
 567 807 l 1
 190 807 l 1
EndSplineSet
EndChar

StartChar: amacron
Encoding: 257 257 246
Width: 561
VWidth: 0
Flags: HMW
LayerCount: 2
Fore
SplineSet
196 138 m 0
 196 109 220 97 252 97 c 0
 300 97 345 118 345 188 c 1
 361 130 l 1
 361 41 287 -10 192 -10 c 0
 89 -10 22 41 22 129 c 0
 22 220 103 277 222 277 c 0
 286 277 356 254 378 231 c 1
 378 153 l 1
 347 177 316 189 266 189 c 0
 223 189 196 168 196 138 c 0
119 309 m 1
 64 422 l 1
 122 447 201 474 284 474 c 0
 413 474 510 419 510 322 c 2
 510 0 l 1
 345 0 l 1
 345 283 l 2
 345 320 318 346 268 346 c 0
 202 346 141 321 119 309 c 1
95 538 m 1
 95 685 l 1
 474 685 l 1
 474 538 l 1
 95 538 l 1
EndSplineSet
Substitution2: "alt a" amacron.alt
EndChar

StartChar: breve
Encoding: 728 728 247
Width: 546
VWidth: 0
Flags: HMW
LayerCount: 2
Fore
SplineSet
107 850 m 1
 214 850 l 1
 214 812 243 795 273 795 c 0
 303 795 332 812 332 850 c 1
 439 850 l 1
 439 765 378 702 273 702 c 0
 168 702 107 765 107 850 c 1
EndSplineSet
EndChar

StartChar: Abreve
Encoding: 258 258 248
Width: 756
VWidth: 0
Flags: HMW
LayerCount: 2
Fore
SplineSet
195 113 m 1
 201 256 l 1
 560 256 l 1
 565 113 l 1
 195 113 l 1
378 413 m 1
 286 204 l 1
 299 160 l 1
 217 0 l 1
 -3 0 l 1
 378 747 l 1
 760 0 l 1
 540 0 l 1
 460 153 l 1
 471 203 l 1
 378 413 l 1
212 955 m 1
 320 955 l 1
 320 917 348 900 378 900 c 0
 408 900 437 917 437 955 c 1
 544 955 l 1
 544 870 483 807 378 807 c 0
 273 807 212 870 212 955 c 1
EndSplineSet
EndChar

StartChar: abreve
Encoding: 259 259 249
Width: 561
VWidth: 0
Flags: HMW
LayerCount: 2
Fore
SplineSet
196 138 m 0
 196 109 220 97 252 97 c 0
 300 97 345 118 345 188 c 1
 361 130 l 1
 361 41 287 -10 192 -10 c 0
 89 -10 22 41 22 129 c 0
 22 220 103 277 222 277 c 0
 286 277 356 254 378 231 c 1
 378 153 l 1
 347 177 316 189 266 189 c 0
 223 189 196 168 196 138 c 0
119 309 m 1
 64 422 l 1
 122 447 201 474 284 474 c 0
 413 474 510 419 510 322 c 2
 510 0 l 1
 345 0 l 1
 345 283 l 2
 345 320 318 346 268 346 c 0
 202 346 141 321 119 309 c 1
118 682 m 1
 226 682 l 1
 226 644 254 627 284 627 c 0
 314 627 343 644 343 682 c 1
 450 682 l 1
 450 597 389 534 284 534 c 0
 179 534 118 597 118 682 c 1
EndSplineSet
Substitution2: "alt a" abreve.alt
EndChar

StartChar: Aogonek
Encoding: 260 260 250
Width: 756
VWidth: 0
Flags: HMW
LayerCount: 2
Fore
SplineSet
195 113 m 1
 201 256 l 1
 560 256 l 1
 565 113 l 1
 195 113 l 1
378 413 m 1
 286 204 l 1
 299 160 l 1
 217 0 l 1
 -3 0 l 1
 378 747 l 1
 760 0 l 1
 540 0 l 1
 460 153 l 1
 471 203 l 1
 378 413 l 1
700 -106 m 1
 733 -180 l 1
 718 -200 688 -220 629 -220 c 0
 569 -220 514 -187 514 -120 c 0
 514 -53 584 -11 654 25 c 1
 695 0 l 1
 643 -30 618 -63 618 -92 c 0
 618 -113 628 -126 650 -126 c 0
 668 -126 686 -119 700 -106 c 1
EndSplineSet
EndChar

StartChar: aogonek
Encoding: 261 261 251
Width: 561
VWidth: 0
Flags: HMW
LayerCount: 2
Fore
SplineSet
196 138 m 0
 196 109 222 97 252 97 c 0
 300 97 345 118 345 188 c 1
 361 130 l 1
 361 41 287 -10 192 -10 c 0
 90 -10 22 40 22 130 c 0
 22 219 101 277 222 277 c 0
 286 277 356 254 378 231 c 1
 378 153 l 1
 347 177 316 189 266 189 c 0
 223 189 196 168 196 138 c 0
119 309 m 1
 64 422 l 1
 122 447 201 474 284 474 c 0
 413 474 510 419 510 322 c 2
 510 0 l 1
 345 0 l 1
 345 283 l 2
 345 320 318 346 268 346 c 0
 202 346 141 321 119 309 c 1
474 -106 m 1
 507 -180 l 1
 492 -200 462 -220 403 -220 c 0
 343 -220 288 -187 288 -120 c 0
 288 -53 358 -11 428 25 c 1
 469 0 l 1
 417 -30 392 -63 392 -92 c 0
 392 -113 402 -126 424 -126 c 0
 442 -126 460 -119 474 -106 c 1
EndSplineSet
Substitution2: "alt a" aogonek.alt
EndChar

StartChar: Cacute
Encoding: 262 262 252
Width: 704
VWidth: 0
Flags: HMW
LayerCount: 2
Fore
SplineSet
244 350 m 0
 244 231 333 165 439 165 c 0
 538 165 598 209 643 255 c 1
 643 51 l 1
 587 10 528 -18 426 -18 c 0
 192 -18 32 129 32 350 c 0
 32 571 192 718 426 718 c 0
 528 718 587 690 643 649 c 1
 643 445 l 1
 598 491 538 535 439 535 c 0
 333 535 244 469 244 350 c 0
556 928 m 1
 376 778 l 1
 279 824 l 1
 429 984 l 1
 556 928 l 1
EndSplineSet
EndChar

StartChar: cacute
Encoding: 263 263 253
Width: 497
VWidth: 0
Flags: HMW
LayerCount: 2
Fore
SplineSet
208 230 m 0
 208 162 258 124 320 124 c 0
 370 124 419 145 448 188 c 1
 448 26 l 1
 416 4 375 -10 304 -10 c 0
 145 -10 30 83 30 230 c 0
 30 377 145 470 304 470 c 0
 375 470 416 453 448 435 c 1
 448 273 l 1
 419 316 362 336 320 336 c 0
 258 336 208 290 208 230 c 0
434 681 m 1
 254 531 l 1
 157 577 l 1
 307 737 l 1
 434 681 l 1
EndSplineSet
EndChar

StartChar: Ccircumflex
Encoding: 264 264 254
Width: 704
VWidth: 0
Flags: HMW
LayerCount: 2
Fore
SplineSet
244 350 m 0
 244 231 333 165 439 165 c 0
 538 165 598 209 643 255 c 1
 643 51 l 1
 587 10 528 -18 426 -18 c 0
 192 -18 32 129 32 350 c 0
 32 571 192 718 426 718 c 0
 528 718 587 690 643 649 c 1
 643 445 l 1
 598 491 538 535 439 535 c 0
 333 535 244 469 244 350 c 0
426 861 m 1
 340 778 l 1
 218 858 l 1
 426 998 l 1
 635 858 l 1
 512 778 l 1
 426 861 l 1
EndSplineSet
EndChar

StartChar: ccircumflex
Encoding: 265 265 255
Width: 497
VWidth: 0
Flags: HMW
LayerCount: 2
Fore
SplineSet
208 230 m 0
 208 162 258 124 320 124 c 0
 370 124 419 145 448 188 c 1
 448 26 l 1
 416 4 375 -10 304 -10 c 0
 145 -10 30 83 30 230 c 0
 30 377 145 470 304 470 c 0
 375 470 416 453 448 435 c 1
 448 273 l 1
 419 316 362 336 320 336 c 0
 258 336 208 290 208 230 c 0
264 614 m 1
 178 531 l 1
 56 611 l 1
 264 751 l 1
 472 611 l 1
 350 531 l 1
 264 614 l 1
EndSplineSet
EndChar

StartChar: Cdotaccent
Encoding: 266 266 256
Width: 704
VWidth: 0
Flags: HMW
LayerCount: 2
Fore
SplineSet
244 350 m 0
 244 231 333 165 439 165 c 0
 538 165 598 209 643 255 c 1
 643 51 l 1
 587 10 528 -18 426 -18 c 0
 192 -18 32 129 32 350 c 0
 32 571 192 718 426 718 c 0
 528 718 587 690 643 649 c 1
 643 445 l 1
 598 491 538 535 439 535 c 0
 333 535 244 469 244 350 c 0
296 868 m 0
 296 922 340 958 394 958 c 0
 448 958 492 922 492 868 c 0
 492 814 448 778 394 778 c 0
 340 778 296 814 296 868 c 0
EndSplineSet
EndChar

StartChar: cdotaccent
Encoding: 267 267 257
Width: 497
VWidth: 0
Flags: HMW
LayerCount: 2
Fore
SplineSet
208 230 m 0
 208 162 258 124 320 124 c 0
 370 124 419 145 448 188 c 1
 448 26 l 1
 416 4 375 -10 304 -10 c 0
 145 -10 30 83 30 230 c 0
 30 377 145 470 304 470 c 0
 375 470 416 453 448 435 c 1
 448 273 l 1
 419 316 362 336 320 336 c 0
 258 336 208 290 208 230 c 0
174 628 m 0
 174 682 218 718 272 718 c 0
 326 718 370 682 370 628 c 0
 370 574 326 539 272 539 c 0
 218 539 174 574 174 628 c 0
EndSplineSet
EndChar

StartChar: Ccaron
Encoding: 268 268 258
Width: 704
VWidth: 0
Flags: HMW
LayerCount: 2
Fore
SplineSet
244 350 m 0
 244 231 333 165 439 165 c 0
 538 165 598 209 643 255 c 1
 643 51 l 1
 587 10 528 -18 426 -18 c 0
 192 -18 32 129 32 350 c 0
 32 571 192 718 426 718 c 0
 528 718 587 690 643 649 c 1
 643 445 l 1
 598 491 538 535 439 535 c 0
 333 535 244 469 244 350 c 0
426 915 m 1
 512 998 l 1
 635 918 l 1
 426 778 l 1
 218 918 l 1
 340 998 l 1
 426 915 l 1
EndSplineSet
EndChar

StartChar: ccaron
Encoding: 269 269 259
Width: 497
VWidth: 0
Flags: HMW
LayerCount: 2
Fore
SplineSet
208 230 m 0
 208 162 258 124 320 124 c 0
 370 124 419 145 448 188 c 1
 448 26 l 1
 416 4 375 -10 304 -10 c 0
 145 -10 30 83 30 230 c 0
 30 377 145 470 304 470 c 0
 375 470 416 453 448 435 c 1
 448 273 l 1
 419 316 362 336 320 336 c 0
 258 336 208 290 208 230 c 0
264 668 m 1
 350 751 l 1
 472 671 l 1
 264 531 l 1
 56 671 l 1
 178 751 l 1
 264 668 l 1
EndSplineSet
EndChar

StartChar: Dcaron
Encoding: 270 270 260
Width: 748
VWidth: 0
Flags: HMW
LayerCount: 2
Fore
SplineSet
72 700 m 1
 273 700 l 1
 273 0 l 1
 72 0 l 1
 72 700 l 1
334 0 m 2
 204 0 l 1
 204 170 l 1
 326 170 l 2
 419 170 515 203 515 350 c 0
 515 497 419 530 326 530 c 2
 204 530 l 1
 204 700 l 1
 334 700 l 2
 570 700 717 567 717 350 c 0
 717 133 570 0 334 0 c 2
388 915 m 1
 474 998 l 1
 597 918 l 1
 388 778 l 1
 180 918 l 1
 303 998 l 1
 388 915 l 1
EndSplineSet
EndChar

StartChar: dcaron
Encoding: 271 271 261
Width: 630
VWidth: 0
Flags: HMW
LayerCount: 2
Fore
SplineSet
404 780 m 1
 577 780 l 1
 577 0 l 1
 404 0 l 1
 404 780 l 1
31 230 m 0
 31 387 138 470 247 470 c 0
 362 470 448 379 448 230 c 0
 448 81 362 -10 247 -10 c 0
 138 -10 31 73 31 230 c 0
213 230 m 0
 213 168 256 125 309 125 c 0
 355 125 404 164 404 230 c 0
 404 296 355 335 309 335 c 0
 256 335 213 292 213 230 c 0
695 780 m 1
 868 747 l 1
 737 497 l 1
 607 521 l 1
 695 780 l 1
EndSplineSet
EndChar

StartChar: Dcroat
Encoding: 272 272 262
Width: 748
VWidth: 0
Flags: HMW
LayerCount: 2
Fore
SplineSet
5 294 m 1
 5 401 l 1
 361 401 l 1
 361 294 l 1
 5 294 l 1
72 700 m 1
 273 700 l 1
 273 0 l 1
 72 0 l 1
 72 700 l 1
334 0 m 2
 204 0 l 1
 204 170 l 1
 326 170 l 2
 419 170 515 203 515 350 c 0
 515 497 419 530 326 530 c 2
 204 530 l 1
 204 700 l 1
 334 700 l 2
 570 700 717 567 717 350 c 0
 717 133 570 0 334 0 c 2
EndSplineSet
EndChar

StartChar: dcroat
Encoding: 273 273 263
Width: 630
VWidth: 0
Flags: HMW
LayerCount: 2
Fore
SplineSet
295 558 m 1
 295 665 l 1
 668 665 l 1
 668 558 l 1
 295 558 l 1
404 780 m 1
 577 780 l 1
 577 0 l 1
 404 0 l 1
 404 780 l 1
31 230 m 0
 31 387 138 470 247 470 c 0
 362 470 448 379 448 230 c 0
 448 81 362 -10 247 -10 c 0
 138 -10 31 73 31 230 c 0
213 230 m 0
 213 168 256 125 309 125 c 0
 355 125 404 164 404 230 c 0
 404 296 355 335 309 335 c 0
 256 335 213 292 213 230 c 0
EndSplineSet
EndChar

StartChar: Emacron
Encoding: 274 274 264
Width: 618
VWidth: 0
Flags: HMW
LayerCount: 2
Fore
SplineSet
204 0 m 1
 204 157 l 1
 557 157 l 1
 557 0 l 1
 204 0 l 1
204 543 m 1
 204 700 l 1
 557 700 l 1
 557 543 l 1
 204 543 l 1
204 288 m 1
 204 440 l 1
 537 440 l 1
 537 288 l 1
 204 288 l 1
72 700 m 1
 258 700 l 1
 258 0 l 1
 72 0 l 1
 72 700 l 1
125 778 m 1
 125 926 l 1
 503 926 l 1
 503 778 l 1
 125 778 l 1
EndSplineSet
EndChar

StartChar: emacron
Encoding: 275 275 265
Width: 590
VWidth: 0
Flags: HMW
LayerCount: 2
Fore
SplineSet
126 194 m 1
 126 283 l 1
 372 283 l 1
 365 333 342 360 295 360 c 0
 239 360 207 322 207 252 c 1
 205 230 l 1
 205 140 249 109 299 109 c 0
 350 109 386 128 405 162 c 1
 561 131 l 1
 515 45 440 -10 305 -10 c 0
 124 -10 31 91 31 230 c 0
 31 247 32 263 35 279 c 0
 54 392 140 470 299 470 c 0
 469 470 557 383 557 238 c 0
 557 230 557 213 555 194 c 1
 126 194 l 1
110 531 m 1
 110 678 l 1
 488 678 l 1
 488 531 l 1
 110 531 l 1
EndSplineSet
EndChar

StartChar: Ebreve
Encoding: 276 276 266
Width: 618
VWidth: 0
Flags: HMW
LayerCount: 2
Fore
SplineSet
204 0 m 1
 204 157 l 1
 557 157 l 1
 557 0 l 1
 204 0 l 1
204 543 m 1
 204 700 l 1
 557 700 l 1
 557 543 l 1
 204 543 l 1
204 288 m 1
 204 440 l 1
 537 440 l 1
 537 288 l 1
 204 288 l 1
72 700 m 1
 258 700 l 1
 258 0 l 1
 72 0 l 1
 72 700 l 1
148 926 m 1
 255 926 l 1
 255 888 284 871 314 871 c 0
 344 871 373 888 373 926 c 1
 480 926 l 1
 480 841 419 778 314 778 c 0
 209 778 148 841 148 926 c 1
EndSplineSet
EndChar

StartChar: ebreve
Encoding: 277 277 267
Width: 590
VWidth: 0
Flags: HMW
LayerCount: 2
Fore
SplineSet
126 194 m 1
 126 283 l 1
 372 283 l 1
 365 333 342 360 295 360 c 0
 239 360 207 322 207 252 c 1
 205 230 l 1
 205 140 249 109 299 109 c 0
 350 109 386 128 405 162 c 1
 561 131 l 1
 515 45 440 -10 305 -10 c 0
 124 -10 31 91 31 230 c 0
 31 247 32 263 35 279 c 0
 54 392 140 470 299 470 c 0
 469 470 557 383 557 238 c 0
 557 230 557 213 555 194 c 1
 126 194 l 1
133 679 m 1
 241 679 l 1
 241 641 269 624 299 624 c 0
 329 624 358 641 358 679 c 1
 465 679 l 1
 465 594 404 531 299 531 c 0
 194 531 133 594 133 679 c 1
EndSplineSet
EndChar

StartChar: Edotaccent
Encoding: 278 278 268
Width: 618
VWidth: 0
Flags: HMW
LayerCount: 2
Fore
SplineSet
204 0 m 1
 204 157 l 1
 557 157 l 1
 557 0 l 1
 204 0 l 1
204 543 m 1
 204 700 l 1
 557 700 l 1
 557 543 l 1
 204 543 l 1
204 288 m 1
 204 440 l 1
 537 440 l 1
 537 288 l 1
 204 288 l 1
72 700 m 1
 258 700 l 1
 258 0 l 1
 72 0 l 1
 72 700 l 1
216 868 m 0
 216 922 260 958 314 958 c 0
 368 958 412 922 412 868 c 0
 412 814 368 778 314 778 c 0
 260 778 216 814 216 868 c 0
EndSplineSet
EndChar

StartChar: edotaccent
Encoding: 279 279 269
Width: 590
VWidth: 0
Flags: HMW
LayerCount: 2
Fore
SplineSet
126 194 m 1
 126 283 l 1
 372 283 l 1
 365 333 342 360 295 360 c 0
 239 360 207 322 207 252 c 1
 205 230 l 1
 205 140 249 109 299 109 c 0
 350 109 386 128 405 162 c 1
 561 131 l 1
 515 45 440 -10 305 -10 c 0
 124 -10 31 91 31 230 c 0
 31 247 32 263 35 279 c 0
 54 392 140 470 299 470 c 0
 469 470 557 383 557 238 c 0
 557 230 557 213 555 194 c 1
 126 194 l 1
202 620 m 0
 202 674 245 710 299 710 c 0
 353 710 397 674 397 620 c 0
 397 566 353 531 299 531 c 0
 245 531 202 566 202 620 c 0
EndSplineSet
EndChar

StartChar: Eogonek
Encoding: 280 280 270
Width: 618
VWidth: 0
Flags: HMW
LayerCount: 2
Fore
SplineSet
204 0 m 1
 204 157 l 1
 557 157 l 1
 557 0 l 1
 204 0 l 1
204 543 m 1
 204 700 l 1
 557 700 l 1
 557 543 l 1
 204 543 l 1
204 288 m 1
 204 440 l 1
 537 440 l 1
 537 288 l 1
 204 288 l 1
72 700 m 1
 258 700 l 1
 258 0 l 1
 72 0 l 1
 72 700 l 1
409 -106 m 1
 442 -180 l 1
 427 -200 397 -220 338 -220 c 0
 278 -220 223 -187 223 -120 c 0
 223 -53 293 -11 363 25 c 1
 404 0 l 1
 352 -30 327 -63 327 -92 c 0
 327 -113 337 -126 359 -126 c 0
 377 -126 395 -119 409 -106 c 1
EndSplineSet
EndChar

StartChar: eogonek
Encoding: 281 281 271
Width: 590
VWidth: 0
Flags: HMW
LayerCount: 2
Fore
SplineSet
126 194 m 1
 126 283 l 1
 372 283 l 1
 365 333 342 360 295 360 c 0
 239 360 207 322 207 252 c 1
 205 230 l 1
 205 140 249 109 299 109 c 0
 350 109 386 128 405 162 c 1
 561 131 l 1
 515 45 440 -10 305 -10 c 0
 124 -10 31 91 31 230 c 0
 31 247 32 263 35 279 c 0
 54 392 140 470 299 470 c 0
 469 470 557 383 557 238 c 0
 557 230 557 213 555 194 c 1
 126 194 l 1
335 -95 m 1
 368 -170 l 1
 353 -190 323 -210 264 -210 c 0
 204 -210 149 -177 149 -110 c 0
 149 -43 219 -1 289 35 c 1
 330 10 l 1
 278 -20 253 -53 253 -82 c 0
 253 -103 263 -115 285 -115 c 0
 303 -115 321 -108 335 -95 c 1
EndSplineSet
EndChar

StartChar: Ecaron
Encoding: 282 282 272
Width: 618
VWidth: 0
Flags: HMW
LayerCount: 2
Fore
SplineSet
204 0 m 1
 204 157 l 1
 557 157 l 1
 557 0 l 1
 204 0 l 1
204 543 m 1
 204 700 l 1
 557 700 l 1
 557 543 l 1
 204 543 l 1
204 288 m 1
 204 440 l 1
 537 440 l 1
 537 288 l 1
 204 288 l 1
72 700 m 1
 258 700 l 1
 258 0 l 1
 72 0 l 1
 72 700 l 1
314 915 m 1
 400 998 l 1
 522 918 l 1
 314 778 l 1
 105 918 l 1
 228 998 l 1
 314 915 l 1
EndSplineSet
EndChar

StartChar: ecaron
Encoding: 283 283 273
Width: 590
VWidth: 0
Flags: HMW
LayerCount: 2
Fore
SplineSet
126 194 m 1
 126 283 l 1
 372 283 l 1
 365 333 342 360 295 360 c 0
 239 360 207 322 207 252 c 1
 205 230 l 1
 205 140 249 109 299 109 c 0
 350 109 386 128 405 162 c 1
 561 131 l 1
 515 45 440 -10 305 -10 c 0
 124 -10 31 91 31 230 c 0
 31 247 32 263 35 279 c 0
 54 392 140 470 299 470 c 0
 469 470 557 383 557 238 c 0
 557 230 557 213 555 194 c 1
 126 194 l 1
299 668 m 1
 385 751 l 1
 508 671 l 1
 299 531 l 1
 91 671 l 1
 213 751 l 1
 299 668 l 1
EndSplineSet
EndChar

StartChar: Gcircumflex
Encoding: 284 284 274
Width: 825
VWidth: 0
Flags: HMW
LayerCount: 2
Fore
SplineSet
425 247 m 1
 425 391 l 1
 788 391 l 1
 804 161 669 -26 423 -26 c 0
 195 -26 32 125 32 350 c 0
 32 575 203 718 431 718 c 0
 584 718 687 644 755 547 c 1
 578 463 l 1
 550 513 506 552 431 552 c 0
 323 552 235 481 235 350 c 0
 235 219 315 140 431 140 c 0
 523 140 574 184 597 247 c 1
 425 247 l 1
431 861 m 1
 345 778 l 1
 223 858 l 1
 431 998 l 1
 640 858 l 1
 517 778 l 1
 431 861 l 1
EndSplineSet
EndChar

StartChar: gcircumflex
Encoding: 285 285 275
Width: 622
VWidth: 0
Flags: HMW
LayerCount: 2
Fore
SplineSet
41 -34 m 1
 207 -34 l 1
 213 -88 250 -107 300 -107 c 0
 362 -107 404 -66 404 10 c 2
 404 460 l 1
 569 460 l 1
 569 10 l 2
 569 -173 455 -242 308 -242 c 0
 125 -242 56 -157 41 -34 c 1
31 238 m 0
 31 395 138 470 247 470 c 0
 362 470 448 387 448 238 c 0
 448 89 362 6 247 6 c 0
 138 6 31 81 31 238 c 0
213 238 m 0
 213 176 256 142 309 142 c 0
 355 142 404 172 404 238 c 0
 404 304 355 335 309 335 c 0
 256 335 213 300 213 238 c 0
336 614 m 1
 250 531 l 1
 127 611 l 1
 336 751 l 1
 544 611 l 1
 421 531 l 1
 336 614 l 1
EndSplineSet
EndChar

StartChar: Gbreve
Encoding: 286 286 276
Width: 825
VWidth: 0
Flags: HMW
LayerCount: 2
Fore
SplineSet
425 247 m 1
 425 391 l 1
 788 391 l 1
 804 161 669 -26 423 -26 c 0
 195 -26 32 125 32 350 c 0
 32 575 203 718 431 718 c 0
 584 718 687 644 755 547 c 1
 578 463 l 1
 550 513 506 552 431 552 c 0
 323 552 235 481 235 350 c 0
 235 219 315 140 431 140 c 0
 523 140 574 184 597 247 c 1
 425 247 l 1
265 926 m 1
 373 926 l 1
 373 888 401 871 431 871 c 0
 461 871 490 888 490 926 c 1
 597 926 l 1
 597 841 536 778 431 778 c 0
 326 778 265 841 265 926 c 1
EndSplineSet
EndChar

StartChar: gbreve
Encoding: 287 287 277
Width: 622
VWidth: 0
Flags: HMW
LayerCount: 2
Fore
SplineSet
41 -34 m 1
 207 -34 l 1
 213 -88 250 -107 300 -107 c 0
 362 -107 404 -66 404 10 c 2
 404 460 l 1
 569 460 l 1
 569 10 l 2
 569 -173 455 -242 308 -242 c 0
 125 -242 56 -157 41 -34 c 1
31 238 m 0
 31 395 138 470 247 470 c 0
 362 470 448 387 448 238 c 0
 448 89 362 6 247 6 c 0
 138 6 31 81 31 238 c 0
213 238 m 0
 213 176 256 142 309 142 c 0
 355 142 404 172 404 238 c 0
 404 304 355 335 309 335 c 0
 256 335 213 300 213 238 c 0
170 679 m 1
 277 679 l 1
 277 641 306 624 336 624 c 0
 366 624 394 641 394 679 c 1
 502 679 l 1
 502 594 441 531 336 531 c 0
 231 531 170 594 170 679 c 1
EndSplineSet
EndChar

StartChar: Gdotaccent
Encoding: 288 288 278
Width: 825
VWidth: 0
Flags: HMW
LayerCount: 2
Fore
SplineSet
425 247 m 1
 425 391 l 1
 788 391 l 1
 804 161 669 -26 423 -26 c 0
 195 -26 32 125 32 350 c 0
 32 575 203 718 431 718 c 0
 584 718 687 644 755 547 c 1
 578 463 l 1
 550 513 506 552 431 552 c 0
 323 552 235 481 235 350 c 0
 235 219 315 140 431 140 c 0
 523 140 574 184 597 247 c 1
 425 247 l 1
334 868 m 0
 334 922 377 958 431 958 c 0
 485 958 529 922 529 868 c 0
 529 814 485 778 431 778 c 0
 377 778 334 814 334 868 c 0
EndSplineSet
EndChar

StartChar: gdotaccent
Encoding: 289 289 279
Width: 622
VWidth: 0
Flags: HMW
LayerCount: 2
Fore
SplineSet
41 -34 m 1
 207 -34 l 1
 213 -88 250 -107 300 -107 c 0
 362 -107 404 -66 404 10 c 2
 404 460 l 1
 569 460 l 1
 569 10 l 2
 569 -173 455 -242 308 -242 c 0
 125 -242 56 -157 41 -34 c 1
31 238 m 0
 31 395 138 470 247 470 c 0
 362 470 448 387 448 238 c 0
 448 89 362 6 247 6 c 0
 138 6 31 81 31 238 c 0
213 238 m 0
 213 176 256 142 309 142 c 0
 355 142 404 172 404 238 c 0
 404 304 355 335 309 335 c 0
 256 335 213 300 213 238 c 0
217 628 m 0
 217 682 261 718 315 718 c 0
 369 718 413 682 413 628 c 0
 413 574 369 538 315 538 c 0
 261 538 217 574 217 628 c 0
EndSplineSet
EndChar

StartChar: uni0122
Encoding: 290 290 280
Width: 825
VWidth: 0
Flags: HMW
LayerCount: 2
Fore
SplineSet
425 247 m 1
 425 391 l 1
 788 391 l 1
 804 161 669 -26 423 -26 c 0
 195 -26 32 125 32 350 c 0
 32 575 203 718 431 718 c 0
 584 718 687 644 755 547 c 1
 578 463 l 1
 550 513 506 552 431 552 c 0
 323 552 235 481 235 350 c 0
 235 219 315 140 431 140 c 0
 523 140 574 184 597 247 c 1
 425 247 l 1
341 -86 m 1
 513 -119 l 1
 383 -369 l 1
 253 -345 l 1
 341 -86 l 1
EndSplineSet
EndChar

StartChar: Hcircumflex
Encoding: 292 292 281
Width: 807
VWidth: 0
Flags: HMW
LayerCount: 2
Fore
SplineSet
119 280 m 1
 119 452 l 1
 663 452 l 1
 663 280 l 1
 119 280 l 1
542 700 m 1
 736 700 l 1
 736 0 l 1
 542 0 l 1
 542 700 l 1
72 700 m 1
 266 700 l 1
 266 0 l 1
 72 0 l 1
 72 700 l 1
404 861 m 1
 318 778 l 1
 196 858 l 1
 404 998 l 1
 613 858 l 1
 490 778 l 1
 404 861 l 1
EndSplineSet
EndChar

StartChar: hcircumflex
Encoding: 293 293 282
Width: 581
VWidth: 0
Flags: HMW
LayerCount: 2
Fore
SplineSet
228 780 m 1
 228 0 l 1
 55 0 l 1
 55 780 l 1
 228 780 l 1
354 280 m 2
 354 328 341 356 296 356 c 0
 254 356 228 330 228 280 c 1
 200 280 l 1
 200 389 250 479 369 479 c 0
 488 479 527 417 527 306 c 2
 527 0 l 1
 354 0 l 1
 354 280 l 2
143 923 m 1
 57 840 l 1
 -66 920 l 1
 143 1060 l 1
 351 920 l 1
 228 840 l 1
 143 923 l 1
EndSplineSet
EndChar

StartChar: Itilde
Encoding: 296 296 283
Width: 341
VWidth: 0
Flags: HMW
LayerCount: 2
Fore
SplineSet
72 700 m 1
 270 700 l 1
 270 0 l 1
 72 0 l 1
 72 700 l 1
-34 852 m 1
 -24 901 21 950 90 950 c 0
 157 950 172 897 229 897 c 0
 256 897 278 919 298 951 c 1
 377 868 l 1
 361 831 300 779 234 779 c 0
 179 779 140 834 89 834 c 0
 52 834 43 798 43 783 c 1
 -34 852 l 1
EndSplineSet
EndChar

StartChar: itilde
Encoding: 297 297 284
Width: 280
VWidth: 0
Flags: HMW
LayerCount: 2
Fore
SplineSet
57 460 m 1
 223 460 l 1
 223 0 l 1
 57 0 l 1
 57 460 l 1
-65 605 m 1
 -55 654 -11 703 58 703 c 0
 125 703 142 650 199 650 c 0
 226 650 248 672 268 704 c 1
 346 621 l 1
 330 584 269 532 203 532 c 0
 148 532 109 587 58 587 c 0
 21 587 12 551 12 536 c 1
 -65 605 l 1
EndSplineSet
EndChar

StartChar: Imacron
Encoding: 298 298 285
Width: 341
VWidth: 0
Flags: HMW
LayerCount: 2
Fore
SplineSet
72 700 m 1
 270 700 l 1
 270 0 l 1
 72 0 l 1
 72 700 l 1
-18 778 m 1
 -18 926 l 1
 360 926 l 1
 360 778 l 1
 -18 778 l 1
EndSplineSet
EndChar

StartChar: imacron
Encoding: 299 299 286
Width: 280
VWidth: 0
Flags: HMW
LayerCount: 2
Fore
SplineSet
57 460 m 1
 223 460 l 1
 223 0 l 1
 57 0 l 1
 57 460 l 1
-49 531 m 1
 -49 678 l 1
 329 678 l 1
 329 531 l 1
 -49 531 l 1
EndSplineSet
EndChar

StartChar: Ibreve
Encoding: 300 300 287
Width: 341
VWidth: 0
Flags: HMW
LayerCount: 2
Fore
SplineSet
72 700 m 1
 270 700 l 1
 270 0 l 1
 72 0 l 1
 72 700 l 1
4 926 m 1
 112 926 l 1
 112 888 141 871 171 871 c 0
 201 871 229 888 229 926 c 1
 337 926 l 1
 337 841 276 778 171 778 c 0
 66 778 4 841 4 926 c 1
EndSplineSet
EndChar

StartChar: ibreve
Encoding: 301 301 288
Width: 280
VWidth: 0
Flags: HMW
LayerCount: 2
Fore
SplineSet
57 460 m 1
 223 460 l 1
 223 0 l 1
 57 0 l 1
 57 460 l 1
-26 679 m 1
 81 679 l 1
 81 641 110 624 140 624 c 0
 170 624 198 641 198 679 c 1
 306 679 l 1
 306 594 245 531 140 531 c 0
 35 531 -26 594 -26 679 c 1
EndSplineSet
EndChar

StartChar: Iogonek
Encoding: 302 302 289
Width: 341
VWidth: 0
Flags: HMW
LayerCount: 2
Fore
SplineSet
72 700 m 1
 270 700 l 1
 270 0 l 1
 72 0 l 1
 72 700 l 1
241 -103 m 1
 275 -178 l 1
 260 -198 230 -218 171 -218 c 0
 111 -218 55 -185 55 -118 c 0
 55 -51 125 -9 195 27 c 1
 237 2 l 1
 185 -28 159 -60 159 -89 c 0
 159 -110 169 -123 191 -123 c 0
 209 -123 227 -116 241 -103 c 1
EndSplineSet
EndChar

StartChar: iogonek
Encoding: 303 303 290
Width: 280
VWidth: 0
Flags: HMW
LayerCount: 2
Fore
SplineSet
43 627 m 0
 43 681 87 717 141 717 c 0
 195 717 238 681 238 627 c 0
 238 573 195 538 141 538 c 0
 87 538 43 573 43 627 c 0
57 460 m 1
 223 460 l 1
 223 0 l 1
 57 0 l 1
 57 460 l 1
196 -106 m 1
 229 -180 l 1
 214 -200 184 -220 125 -220 c 0
 65 -220 10 -187 10 -120 c 0
 10 -53 80 -11 150 25 c 1
 191 0 l 1
 139 -30 114 -63 114 -92 c 0
 114 -113 124 -126 146 -126 c 0
 164 -126 182 -119 196 -106 c 1
EndSplineSet
EndChar

StartChar: Idotaccent
Encoding: 304 304 291
Width: 341
VWidth: 0
Flags: HMW
LayerCount: 2
Fore
SplineSet
72 700 m 1
 270 700 l 1
 270 0 l 1
 72 0 l 1
 72 700 l 1
73 868 m 0
 73 922 116 958 170 958 c 0
 224 958 268 922 268 868 c 0
 268 814 224 778 170 778 c 0
 116 778 73 814 73 868 c 0
EndSplineSet
EndChar

StartChar: uni0136
Encoding: 310 310 292
Width: 739
VWidth: 0
Flags: HMW
LayerCount: 2
Fore
SplineSet
72 700 m 1
 274 700 l 1
 274 0 l 1
 72 0 l 1
 72 700 l 1
500 700 m 1
 727 700 l 1
 449 372 l 1
 742 0 l 1
 507 0 l 1
 218 366 l 1
 500 700 l 1
332 -60 m 1
 506 -93 l 1
 375 -343 l 1
 244 -319 l 1
 332 -60 l 1
EndSplineSet
EndChar

StartChar: uni0137
Encoding: 311 311 293
Width: 617
VWidth: 0
Flags: HMW
LayerCount: 2
Fore
SplineSet
54 780 m 1
 219 780 l 1
 219 0 l 1
 54 0 l 1
 54 780 l 1
385 460 m 1
 590 460 l 1
 394 270 l 1
 610 0 l 1
 409 0 l 1
 189 270 l 1
 385 460 l 1
257 -60 m 1
 430 -93 l 1
 299 -343 l 1
 169 -319 l 1
 257 -60 l 1
EndSplineSet
EndChar

StartChar: Lacute
Encoding: 313 313 294
Width: 550
VWidth: 0
Flags: HMW
LayerCount: 2
Fore
SplineSet
72 700 m 1
 266 700 l 1
 266 165 l 1
 549 165 l 1
 549 0 l 1
 72 0 l 1
 72 700 l 1
481 928 m 1
 301 778 l 1
 203 824 l 1
 353 984 l 1
 481 928 l 1
EndSplineSet
EndChar

StartChar: lacute
Encoding: 314 314 295
Width: 282
VWidth: 0
Flags: HMW
LayerCount: 2
Fore
SplineSet
55 780 m 1
 228 780 l 1
 228 0 l 1
 55 0 l 1
 55 780 l 1
312 990 m 1
 132 840 l 1
 35 886 l 1
 185 1046 l 1
 312 990 l 1
EndSplineSet
EndChar

StartChar: uni013B
Encoding: 315 315 296
Width: 550
VWidth: 0
Flags: HMW
LayerCount: 2
Fore
SplineSet
72 700 m 1
 266 700 l 1
 266 165 l 1
 549 165 l 1
 549 0 l 1
 72 0 l 1
 72 700 l 1
268 -60 m 1
 441 -93 l 1
 311 -343 l 1
 180 -319 l 1
 268 -60 l 1
EndSplineSet
EndChar

StartChar: uni013C
Encoding: 316 316 297
Width: 282
VWidth: 0
Flags: HMW
LayerCount: 2
Fore
SplineSet
55 780 m 1
 228 780 l 1
 228 0 l 1
 55 0 l 1
 55 780 l 1
99 -60 m 1
 272 -93 l 1
 141 -343 l 1
 11 -319 l 1
 99 -60 l 1
EndSplineSet
EndChar

StartChar: Lcaron
Encoding: 317 317 298
Width: 550
VWidth: 0
Flags: HMW
LayerCount: 2
Fore
SplineSet
72 700 m 1
 266 700 l 1
 266 165 l 1
 549 165 l 1
 549 0 l 1
 72 0 l 1
 72 700 l 1
437 718 m 1
 610 685 l 1
 479 435 l 1
 349 459 l 1
 437 718 l 1
EndSplineSet
EndChar

StartChar: lcaron
Encoding: 318 318 299
Width: 282
VWidth: 0
Flags: HMW
LayerCount: 2
Fore
SplineSet
55 780 m 1
 228 780 l 1
 228 0 l 1
 55 0 l 1
 55 780 l 1
366 780 m 1
 539 747 l 1
 408 497 l 1
 278 521 l 1
 366 780 l 1
EndSplineSet
EndChar

StartChar: Ldot
Encoding: 319 319 300
Width: 550
VWidth: 0
Flags: HMW
LayerCount: 2
Fore
SplineSet
72 700 m 1
 266 700 l 1
 266 165 l 1
 549 165 l 1
 549 0 l 1
 72 0 l 1
 72 700 l 1
343 435 m 0
 343 492 387 539 449 539 c 0
 511 539 555 492 555 435 c 0
 555 378 511 332 449 332 c 0
 387 332 343 378 343 435 c 0
EndSplineSet
EndChar

StartChar: ldot
Encoding: 320 320 301
Width: 508
VWidth: 0
Flags: HMW
LayerCount: 2
Fore
SplineSet
55 780 m 1
 228 780 l 1
 228 0 l 1
 55 0 l 1
 55 780 l 1
263 407 m 0
 263 464 307 510 369 510 c 0
 431 510 475 464 475 407 c 0
 475 350 431 304 369 304 c 0
 307 304 263 350 263 407 c 0
EndSplineSet
EndChar

StartChar: eth
Encoding: 240 240 302
Width: 696
VWidth: 0
Flags: HMW
LayerCount: 2
Fore
SplineSet
455 250 m 0
 455 314 408 356 348 356 c 0
 288 356 242 314 242 250 c 0
 242 186 288 146 348 146 c 0
 408 146 455 186 455 250 c 0
363 696 m 1
 555 460 l 2
 606 398 647 331 647 250 c 0
 647 70 511 -18 348 -18 c 0
 185 -18 50 70 50 250 c 0
 50 395 167 478 269 478 c 0
 320 478 348 470 389 433 c 1
 346 454 l 1
 117 696 l 1
 363 696 l 1
131 520 m 1
 131 601 l 1
 608 601 l 1
 608 520 l 1
 131 520 l 1
EndSplineSet
EndChar

StartChar: racute
Encoding: 341 341 303
Width: 431
VWidth: 0
Flags: HMW
LayerCount: 2
Fore
SplineSet
224 460 m 1
 224 0 l 1
 55 0 l 1
 55 460 l 1
 224 460 l 1
354 283 m 1
 340 299 323 310 297 310 c 0
 257 310 224 277 224 211 c 1
 188 280 l 1
 188 389 264 472 345 472 c 0
 378 472 413 455 427 432 c 1
 354 283 l 1
411 682 m 1
 231 532 l 1
 134 578 l 1
 284 738 l 1
 411 682 l 1
EndSplineSet
EndChar

StartChar: rcaron
Encoding: 345 345 304
Width: 431
VWidth: 0
Flags: HMW
LayerCount: 2
Fore
SplineSet
224 460 m 1
 224 0 l 1
 55 0 l 1
 55 460 l 1
 224 460 l 1
354 283 m 1
 340 299 323 310 297 310 c 0
 257 310 224 277 224 211 c 1
 188 280 l 1
 188 389 264 472 345 472 c 0
 378 472 413 455 427 432 c 1
 354 283 l 1
241 669 m 1
 327 752 l 1
 449 672 l 1
 241 532 l 1
 32 672 l 1
 155 752 l 1
 241 669 l 1
EndSplineSet
EndChar

StartChar: Rcaron
Encoding: 344 344 305
Width: 672
VWidth: 0
Flags: HMW
LayerCount: 2
Fore
SplineSet
261 309 m 1
 462 309 l 1
 671 0 l 1
 445 0 l 1
 261 309 l 1
72 700 m 1
 266 700 l 1
 266 0 l 1
 72 0 l 1
 72 700 l 1
196 536 m 1
 196 700 l 1
 347 700 l 2
 538 700 629 603 629 466 c 0
 629 329 538 232 347 232 c 2
 196 232 l 1
 196 379 l 1
 330 379 l 2
 392 379 427 408 427 458 c 0
 427 508 392 536 330 536 c 2
 196 536 l 1
330 915 m 1
 416 998 l 1
 538 918 l 1
 330 778 l 1
 122 918 l 1
 244 998 l 1
 330 915 l 1
EndSplineSet
EndChar

StartChar: uni0213
Encoding: 531 531 306
Width: 431
VWidth: 0
Flags: HMW
LayerCount: 2
Fore
SplineSet
224 460 m 1
 224 0 l 1
 55 0 l 1
 55 460 l 1
 224 460 l 1
354 283 m 1
 340 299 323 310 297 310 c 0
 257 310 224 277 224 211 c 1
 188 280 l 1
 188 389 264 472 345 472 c 0
 378 472 413 455 427 432 c 1
 354 283 l 1
75 532 m 1
 182 532 l 1
 182 570 211 586 241 586 c 0
 271 586 300 570 300 532 c 1
 407 532 l 1
 407 617 346 680 241 680 c 0
 136 680 75 617 75 532 c 1
EndSplineSet
EndChar

StartChar: uni0212
Encoding: 530 530 307
Width: 672
VWidth: 0
Flags: HMW
LayerCount: 2
Fore
SplineSet
261 309 m 1
 462 309 l 1
 671 0 l 1
 445 0 l 1
 261 309 l 1
72 700 m 1
 266 700 l 1
 266 0 l 1
 72 0 l 1
 72 700 l 1
196 536 m 1
 196 700 l 1
 347 700 l 2
 538 700 629 603 629 466 c 0
 629 329 538 232 347 232 c 2
 196 232 l 1
 196 379 l 1
 330 379 l 2
 392 379 427 408 427 458 c 0
 427 508 392 536 330 536 c 2
 196 536 l 1
176 778 m 1
 283 778 l 1
 283 816 312 833 342 833 c 0
 372 833 401 816 401 778 c 1
 508 778 l 1
 508 863 447 926 342 926 c 0
 237 926 176 863 176 778 c 1
EndSplineSet
EndChar

StartChar: OE
Encoding: 338 338 308
Width: 985
VWidth: 0
Flags: HMW
LayerCount: 2
Fore
SplineSet
562 288 m 1
 562 440 l 1
 939 440 l 1
 939 288 l 1
 562 288 l 1
475 670 m 1
 660 670 l 1
 660 30 l 1
 475 30 l 1
 475 670 l 1
960 157 m 1
 960 0 l 1
 390 0 l 2
 187 0 32 141 32 350 c 0
 32 559 186 700 390 700 c 2
 959 700 l 1
 959 543 l 1
 568 543 l 1
 551 531 l 1
 430 531 l 2
 296 531 234 473 234 350 c 0
 234 227 297 169 430 169 c 2
 548 169 l 1
 572 157 l 1
 960 157 l 1
EndSplineSet
EndChar

StartChar: oe
Encoding: 339 339 309
Width: 900
VWidth: 0
Flags: HMW
LayerCount: 2
Fore
SplineSet
683 250 m 2
 683 320 658 360 608 360 c 0
 560 360 519 330 519 260 c 1
 517 230 l 1
 517 148 553 105 611 105 c 0
 662 105 689 129 714 163 c 1
 869 131 l 1
 831 53 739 -10 640 -10 c 0
 515 -10 430 91 430 230 c 0
 430 247 431 263 434 279 c 0
 453 392 539 470 658 470 c 0
 768 470 865 379 865 234 c 0
 865 226 863 202 862 194 c 1
 683 230 l 1
 683 250 l 2
481 194 m 1
 481 282 l 1
 844 282 l 1
 862 194 l 1
 481 194 l 1
35 230 m 0
 35 379 138 470 263 470 c 0
 388 470 466 379 466 230 c 0
 466 81 388 -10 263 -10 c 0
 138 -10 35 81 35 230 c 0
205 230 m 0
 205 164 244 130 297 130 c 0
 351 130 386 164 386 230 c 0
 386 296 351 330 297 330 c 0
 244 330 205 296 205 230 c 0
EndSplineSet
EndChar

StartChar: a.alt
Encoding: 65536 -1 310
Width: 630
VWidth: 0
Flags: HMW
LayerCount: 2
Fore
SplineSet
405 460 m 1
 577 460 l 1
 577 0 l 1
 405 0 l 1
 405 460 l 1
31 230 m 0
 31 387 138 470 247 470 c 0
 362 470 448 379 448 230 c 0
 448 81 362 -10 247 -10 c 0
 138 -10 31 73 31 230 c 0
213 230 m 0
 213 168 256 125 309 125 c 0
 355 125 404 164 404 230 c 0
 404 296 355 335 309 335 c 0
 256 335 213 292 213 230 c 0
EndSplineSet
EndChar

StartChar: Jcircumflex
Encoding: 308 308 312
Width: 356
VWidth: 0
Flags: HMW
LayerCount: 2
Fore
SplineSet
-73 -52 m 1
 -51 -69 -20 -84 8 -84 c 0
 38 -84 72 -64 72 -6 c 2
 72 700 l 1
 285 700 l 1
 285 -52 l 2
 285 -193 165 -244 31 -244 c 0
 -54 -244 -133 -214 -180 -186 c 1
 -73 -52 l 1
178 861 m 1
 92 778 l 1
 -30 858 l 1
 178 998 l 1
 386 858 l 1
 264 778 l 1
 178 861 l 1
EndSplineSet
EndChar

StartChar: jcircumflex
Encoding: 309 309 313
Width: 278
VWidth: 0
Flags: HMW
LayerCount: 2
Fore
SplineSet
-38 -66 m 1
 -25 -83 -10 -92 8 -92 c 0
 38 -92 56 -72 56 -30 c 2
 56 460 l 1
 220 460 l 1
 220 -76 l 2
 220 -177 159 -244 35 -244 c 0
 -40 -244 -81 -211 -104 -191 c 1
 -38 -66 l 1
138 614 m 1
 52 531 l 1
 -71 611 l 1
 138 751 l 1
 346 611 l 1
 224 531 l 1
 138 614 l 1
EndSplineSet
EndChar

StartChar: Nacute
Encoding: 323 323 314
Width: 798
VWidth: 0
Flags: HMW
LayerCount: 2
Fore
SplineSet
541 700 m 1
 727 700 l 1
 727 -35 l 1
 258 356 l 1
 258 0 l 1
 72 0 l 1
 72 735 l 1
 541 344 l 1
 541 700 l 1
544 913 m 1
 364 763 l 1
 266 809 l 1
 416 969 l 1
 544 913 l 1
EndSplineSet
EndChar

StartChar: nacute
Encoding: 324 324 315
Width: 589
VWidth: 0
Flags: HMW
LayerCount: 2
Fore
SplineSet
228 460 m 1
 228 0 l 1
 55 0 l 1
 55 460 l 1
 228 460 l 1
354 280 m 2
 354 328 341 356 296 356 c 0
 254 356 228 330 228 280 c 1
 202 272 l 1
 202 381 250 471 369 471 c 0
 488 471 535 409 535 298 c 2
 535 0 l 1
 354 0 l 1
 354 280 l 2
467 681 m 1
 287 531 l 1
 189 577 l 1
 339 737 l 1
 467 681 l 1
EndSplineSet
EndChar

StartChar: uni0145
Encoding: 325 325 316
Width: 798
VWidth: 0
Flags: HMW
LayerCount: 2
Fore
SplineSet
353 -59 m 1
 525 -93 l 1
 396 -343 l 1
 265 -318 l 1
 353 -59 l 1
541 700 m 1
 727 700 l 1
 727 -35 l 1
 258 356 l 1
 258 0 l 1
 72 0 l 1
 72 735 l 1
 541 344 l 1
 541 700 l 1
EndSplineSet
EndChar

StartChar: uni0146
Encoding: 326 326 317
Width: 589
VWidth: 0
Flags: HMW
LayerCount: 2
Fore
SplineSet
228 460 m 1
 228 0 l 1
 55 0 l 1
 55 460 l 1
 228 460 l 1
354 280 m 2
 354 328 341 356 296 356 c 0
 254 356 228 330 228 280 c 1
 200 272 l 1
 200 381 250 471 369 471 c 0
 488 471 535 409 535 298 c 2
 535 0 l 1
 354 0 l 1
 354 280 l 2
252 -60 m 1
 425 -93 l 1
 295 -343 l 1
 164 -319 l 1
 252 -60 l 1
EndSplineSet
EndChar

StartChar: Ncaron
Encoding: 327 327 318
Width: 798
VWidth: 0
Flags: HMW
LayerCount: 2
Fore
SplineSet
368 908 m 1
 454 991 l 1
 576 911 l 1
 368 771 l 1
 159 911 l 1
 282 991 l 1
 368 908 l 1
541 700 m 1
 727 700 l 1
 727 -35 l 1
 258 356 l 1
 258 0 l 1
 72 0 l 1
 72 735 l 1
 541 344 l 1
 541 700 l 1
EndSplineSet
EndChar

StartChar: ncaron
Encoding: 328 328 319
Width: 589
VWidth: 0
Flags: HMW
LayerCount: 2
Fore
SplineSet
228 460 m 1
 228 0 l 1
 55 0 l 1
 55 460 l 1
 228 460 l 1
354 280 m 2
 354 328 341 356 296 356 c 0
 254 356 228 330 228 280 c 1
 200 272 l 1
 200 381 250 471 369 471 c 0
 488 471 535 409 535 298 c 2
 535 0 l 1
 354 0 l 1
 354 280 l 2
294 668 m 1
 380 751 l 1
 503 671 l 1
 294 531 l 1
 86 671 l 1
 208 751 l 1
 294 668 l 1
EndSplineSet
EndChar

StartChar: Omacron
Encoding: 332 332 320
Width: 830
VWidth: 0
Flags: HMW
LayerCount: 2
Fore
SplineSet
238 350 m 0
 238 236 306 158 415 158 c 0
 524 158 593 236 593 350 c 0
 593 464 528 542 415 542 c 0
 306 542 238 464 238 350 c 0
32 350 m 0
 32 570 199 718 415 718 c 0
 635 718 798 570 798 350 c 0
 798 130 639 -26 415 -26 c 0
 191 -26 32 130 32 350 c 0
226 778 m 1
 226 926 l 1
 604 926 l 1
 604 778 l 1
 226 778 l 1
EndSplineSet
EndChar

StartChar: omacron
Encoding: 333 333 321
Width: 602
VWidth: 0
Flags: HMW
LayerCount: 2
Fore
SplineSet
31 230 m 0
 31 377 146 471 301 471 c 0
 456 471 571 377 571 230 c 0
 571 83 456 -10 301 -10 c 0
 146 -10 31 83 31 230 c 0
209 230 m 0
 209 166 251 130 301 130 c 0
 351 130 394 166 394 230 c 0
 394 294 351 331 301 331 c 0
 251 331 209 294 209 230 c 0
113 531 m 1
 113 678 l 1
 490 678 l 1
 490 531 l 1
 113 531 l 1
EndSplineSet
EndChar

StartChar: Obreve
Encoding: 334 334 322
Width: 830
VWidth: 0
Flags: HMW
LayerCount: 2
Fore
SplineSet
238 350 m 0
 238 236 306 158 415 158 c 0
 524 158 593 236 593 350 c 0
 593 464 528 542 415 542 c 0
 306 542 238 464 238 350 c 0
32 350 m 0
 32 570 199 718 415 718 c 0
 635 718 798 570 798 350 c 0
 798 130 639 -26 415 -26 c 0
 191 -26 32 130 32 350 c 0
249 926 m 1
 356 926 l 1
 356 888 385 871 415 871 c 0
 445 871 474 888 474 926 c 1
 581 926 l 1
 581 841 520 778 415 778 c 0
 310 778 249 841 249 926 c 1
EndSplineSet
EndChar

StartChar: obreve
Encoding: 335 335 323
Width: 602
VWidth: 0
Flags: HMW
LayerCount: 2
Fore
SplineSet
31 230 m 0
 31 377 146 471 301 471 c 0
 456 471 571 377 571 230 c 0
 571 83 456 -10 301 -10 c 0
 146 -10 31 83 31 230 c 0
209 230 m 0
 209 166 251 130 301 130 c 0
 351 130 394 166 394 230 c 0
 394 294 351 331 301 331 c 0
 251 331 209 294 209 230 c 0
135 679 m 1
 242 679 l 1
 242 641 271 624 301 624 c 0
 331 624 360 641 360 679 c 1
 467 679 l 1
 467 594 406 531 301 531 c 0
 196 531 135 594 135 679 c 1
EndSplineSet
EndChar

StartChar: Racute
Encoding: 340 340 324
Width: 672
VWidth: 0
Flags: HMW
LayerCount: 2
Fore
SplineSet
261 309 m 1
 462 309 l 1
 671 0 l 1
 445 0 l 1
 261 309 l 1
72 700 m 1
 266 700 l 1
 266 0 l 1
 72 0 l 1
 72 700 l 1
196 536 m 1
 196 700 l 1
 347 700 l 2
 538 700 629 603 629 466 c 0
 629 329 538 232 347 232 c 2
 196 232 l 1
 196 379 l 1
 330 379 l 2
 392 379 427 408 427 458 c 0
 427 508 392 536 330 536 c 2
 196 536 l 1
488 928 m 1
 308 778 l 1
 211 824 l 1
 361 984 l 1
 488 928 l 1
EndSplineSet
EndChar

StartChar: uni0156
Encoding: 342 342 325
Width: 672
VWidth: 0
Flags: HMW
LayerCount: 2
Fore
SplineSet
261 309 m 1
 462 309 l 1
 671 0 l 1
 445 0 l 1
 261 309 l 1
72 700 m 1
 266 700 l 1
 266 0 l 1
 72 0 l 1
 72 700 l 1
196 536 m 1
 196 700 l 1
 347 700 l 2
 538 700 629 603 629 466 c 0
 629 329 538 232 347 232 c 2
 196 232 l 1
 196 379 l 1
 330 379 l 2
 392 379 427 408 427 458 c 0
 427 508 392 536 330 536 c 2
 196 536 l 1
330 -60 m 1
 502 -93 l 1
 372 -343 l 1
 242 -319 l 1
 330 -60 l 1
EndSplineSet
EndChar

StartChar: uni0157
Encoding: 343 343 326
Width: 431
VWidth: 0
Flags: HMW
LayerCount: 2
Fore
SplineSet
224 460 m 1
 224 0 l 1
 55 0 l 1
 55 460 l 1
 224 460 l 1
354 283 m 1
 340 299 323 310 297 310 c 0
 257 310 224 277 224 211 c 1
 188 280 l 1
 188 389 264 472 345 472 c 0
 378 472 413 455 427 432 c 1
 354 283 l 1
97 -60 m 1
 269 -93 l 1
 140 -343 l 1
 9 -319 l 1
 97 -60 l 1
EndSplineSet
EndChar

StartChar: Scedilla
Encoding: 350 350 327
Width: 647
VWidth: 0
Flags: HMW
LayerCount: 2
Fore
SplineSet
165 258 m 1
 215 178 260 141 331 141 c 0
 379 141 406 158 406 196 c 0
 406 246 348 259 268 291 c 0
 200 318 74 370 74 514 c 0
 74 636 178 718 334 718 c 0
 495 718 572 636 602 563 c 1
 457 482 l 1
 427 532 388 556 341 556 c 0
 299 556 272 538 272 509 c 0
 272 467 349 448 432 418 c 0
 537 381 611 317 611 198 c 0
 611 48 496 -26 327 -26 c 0
 196 -26 76 48 32 163 c 1
 165 258 l 1
289 61 m 1
 413 57 l 1
 321 -68 l 1
 334 -65 349 -64 365 -64 c 0
 407 -64 462 -97 462 -168 c 0
 462 -244 390 -281 324 -281 c 0
 263 -281 215 -272 163 -242 c 1
 213 -165 l 1
 240 -184 280 -191 298 -191 c 0
 332 -191 354 -181 354 -157 c 0
 354 -130 320 -126 290 -126 c 0
 280 -126 239 -127 200 -141 c 1
 289 61 l 1
EndSplineSet
EndChar

StartChar: scedilla
Encoding: 351 351 328
Width: 471
VWidth: 0
Flags: HMW
LayerCount: 2
Fore
SplineSet
80 179 m 1
 168 110 221 102 243 102 c 0
 264 102 278 113 278 131 c 0
 278 163 233 173 182 191 c 0
 116 214 52 245 52 336 c 0
 52 422 125 470 231 470 c 0
 312 470 378 444 438 409 c 1
 387 293 l 1
 346 330 289 356 252 356 c 0
 223 356 210 345 210 331 c 0
 210 298 263 293 323 270 c 0
 388 245 450 215 450 130 c 0
 450 23 384 -22 271 -22 c 0
 170 -22 91 10 17 61 c 1
 80 179 l 1
225 66 m 1
 350 61 l 1
 257 -64 l 1
 270 -61 285 -59 301 -59 c 0
 343 -59 399 -93 399 -164 c 0
 399 -240 326 -277 260 -277 c 0
 199 -277 152 -268 100 -238 c 1
 149 -161 l 1
 176 -180 216 -186 234 -186 c 0
 268 -186 289 -177 289 -153 c 0
 289 -126 256 -122 226 -122 c 0
 216 -122 176 -123 137 -137 c 1
 225 66 l 1
EndSplineSet
EndChar

StartChar: Zcaron
Encoding: 381 381 329
Width: 641
VWidth: 0
Flags: HMW
LayerCount: 2
Fore
SplineSet
63 527 m 1
 63 700 l 1
 630 700 l 1
 310 165 l 1
 590 165 l 1
 590 0 l 1
 7 0 l 1
 321 527 l 1
 63 527 l 1
346 915 m 1
 432 998 l 1
 554 918 l 1
 346 778 l 1
 138 918 l 1
 260 998 l 1
 346 915 l 1
EndSplineSet
EndChar

StartChar: zcaron
Encoding: 382 382 330
Width: 532
VWidth: 0
Flags: HMW
LayerCount: 2
Fore
SplineSet
293 668 m 1
 379 750 l 1
 502 670 l 1
 293 530 l 1
 85 670 l 1
 208 750 l 1
 293 668 l 1
245 304 m 1
 61 304 l 1
 61 460 l 1
 526 460 l 1
 311 156 l 1
 490 156 l 1
 490 0 l 1
 15 0 l 1
 245 304 l 1
EndSplineSet
EndChar

StartChar: Ydieresis
Encoding: 376 376 331
Width: 689
VWidth: 0
Flags: HMW
LayerCount: 2
Fore
SplineSet
94 881 m 0
 94 935 138 971 192 971 c 0
 246 971 290 935 290 881 c 0
 290 827 246 792 192 792 c 0
 138 792 94 827 94 881 c 0
399 881 m 0
 399 935 443 971 497 971 c 0
 551 971 595 935 595 881 c 0
 595 827 551 792 497 792 c 0
 443 792 399 827 399 881 c 0
468 700 m 1
 692 700 l 1
 444 280 l 1
 444 0 l 1
 246 0 l 1
 246 278 l 1
 -3 700 l 1
 221 700 l 1
 345 455 l 1
 468 700 l 1
EndSplineSet
EndChar

StartChar: Scaron
Encoding: 352 352 332
Width: 647
VWidth: 0
Flags: HMW
LayerCount: 2
Fore
SplineSet
165 258 m 1
 215 178 260 141 331 141 c 0
 379 141 406 158 406 196 c 0
 406 246 348 259 268 291 c 0
 200 318 74 373 74 515 c 0
 74 637 180 718 334 718 c 0
 495 718 574 634 602 563 c 1
 457 482 l 1
 427 532 390 556 343 556 c 0
 301 556 272 538 272 509 c 0
 272 467 349 448 432 418 c 0
 537 381 611 317 611 198 c 0
 611 48 498 -26 327 -26 c 0
 196 -26 76 48 32 163 c 1
 165 258 l 1
334 915 m 1
 420 998 l 1
 542 918 l 1
 334 778 l 1
 125 918 l 1
 248 998 l 1
 334 915 l 1
EndSplineSet
EndChar

StartChar: scaron
Encoding: 353 353 333
Width: 471
VWidth: 0
Flags: HMW
LayerCount: 2
Fore
SplineSet
80 179 m 1
 165 118 217 107 242 107 c 0
 262 107 278 111 278 129 c 0
 278 159 204 165 150 191 c 0
 90 220 38 252 38 333 c 0
 38 425 125 470 231 470 c 0
 312 470 380 443 438 408 c 1
 387 293 l 1
 346 330 281 350 244 350 c 0
 215 350 203 344 203 328 c 0
 203 303 263 292 323 269 c 0
 388 244 450 213 450 130 c 0
 450 23 385 -22 270 -22 c 0
 169 -22 87 10 17 61 c 1
 80 179 l 1
231 652 m 1
 317 735 l 1
 440 655 l 1
 231 515 l 1
 23 655 l 1
 145 735 l 1
 231 652 l 1
EndSplineSet
EndChar

StartChar: Lslash
Encoding: 321 321 334
Width: 558
VWidth: 0
Flags: HMW
LayerCount: 2
Fore
SplineSet
5 300 m 1
 -39 379 l 1
 352 646 l 1
 396 566 l 1
 5 300 l 1
72 700 m 1
 266 700 l 1
 266 165 l 1
 549 165 l 1
 549 0 l 1
 72 0 l 1
 72 700 l 1
EndSplineSet
EndChar

StartChar: lslash
Encoding: 322 322 335
Width: 282
VWidth: 0
Flags: HMW
LayerCount: 2
Fore
SplineSet
-11 300 m 1
 -55 379 l 1
 300 618 l 1
 344 538 l 1
 -11 300 l 1
55 780 m 1
 228 780 l 1
 228 0 l 1
 55 0 l 1
 55 780 l 1
EndSplineSet
EndChar

StartChar: uni0218
Encoding: 536 536 336
Width: 647
VWidth: 0
Flags: HMW
LayerCount: 2
Fore
SplineSet
165 258 m 1
 215 178 260 141 331 141 c 0
 379 141 406 158 406 196 c 0
 406 246 348 259 268 291 c 0
 200 318 74 373 74 515 c 0
 74 637 180 718 334 718 c 0
 495 718 574 634 602 563 c 1
 457 482 l 1
 427 532 390 556 343 556 c 0
 301 556 272 538 272 509 c 0
 272 467 349 448 432 418 c 0
 537 381 611 317 611 198 c 0
 611 48 498 -26 327 -26 c 0
 196 -26 76 48 32 163 c 1
 165 258 l 1
252 -70 m 1
 426 -103 l 1
 295 -353 l 1
 164 -329 l 1
 252 -70 l 1
EndSplineSet
EndChar

StartChar: uni0219
Encoding: 537 537 337
Width: 471
VWidth: 0
Flags: HMW
LayerCount: 2
Fore
SplineSet
80 179 m 1
 165 118 217 107 242 107 c 0
 262 107 278 111 278 129 c 0
 278 159 204 165 150 191 c 0
 90 220 38 252 38 333 c 0
 38 425 125 470 231 470 c 0
 312 470 380 443 438 408 c 1
 387 293 l 1
 346 330 281 350 244 350 c 0
 215 350 203 344 203 328 c 0
 203 303 263 292 323 269 c 0
 388 244 450 213 450 130 c 0
 450 23 385 -22 270 -22 c 0
 169 -22 87 10 17 61 c 1
 80 179 l 1
195 -66 m 1
 367 -99 l 1
 238 -349 l 1
 107 -325 l 1
 195 -66 l 1
EndSplineSet
EndChar

StartChar: pi
Encoding: 960 960 338
Width: 620
VWidth: 0
Flags: HMW
LayerCount: 2
Fore
SplineSet
90 430 m 1
 251 430 l 1
 251 0 l 1
 90 0 l 1
 90 430 l 1
30 460 m 1
 581 460 l 1
 581 320 l 1
 30 320 l 1
 30 460 l 1
340 430 m 1
 501 430 l 1
 501 189 l 2
 501 123 524 119 554 119 c 1
 554 -9 l 1
 414 -9 340 -4 340 121 c 2
 340 430 l 1
EndSplineSet
EndChar

StartChar: trademark
Encoding: 8482 8482 339
Width: 769
VWidth: 0
Flags: HMW
LayerCount: 2
Fore
SplineSet
29 613 m 1
 29 700 l 1
 322 700 l 1
 322 613 l 1
 224 613 l 1
 224 350 l 1
 127 350 l 1
 127 613 l 1
 29 613 l 1
614 591 m 1
 685 718 l 1
 746 350 l 1
 643 350 l 1
 614 591 l 1
381 718 m 1
 452 591 l 1
 423 350 l 1
 320 350 l 1
 381 718 l 1
685 718 m 1
 685 594 l 1
 533 382 l 1
 381 594 l 1
 381 718 l 1
 533 516 l 1
 685 718 l 1
EndSplineSet
EndChar

StartChar: uni2219
Encoding: 8729 8729 340
Width: 328
VWidth: 0
Flags: HMW
LayerCount: 2
Fore
SplineSet
59 451 m 0
 59 508 103 555 165 555 c 0
 227 555 270 508 270 451 c 0
 270 394 227 348 165 348 c 0
 103 348 59 394 59 451 c 0
EndSplineSet
EndChar

StartChar: agrave.alt
Encoding: 65537 -1 341
Width: 630
VWidth: 0
Flags: HMW
LayerCount: 2
Fore
SplineSet
405 460 m 1
 577 460 l 1
 577 0 l 1
 405 0 l 1
 405 460 l 1
31 230 m 0
 31 387 138 470 247 470 c 0
 362 470 448 379 448 230 c 0
 448 81 362 -10 247 -10 c 0
 138 -10 31 73 31 230 c 0
213 230 m 0
 213 168 256 125 309 125 c 0
 355 125 404 164 404 230 c 0
 404 296 355 335 309 335 c 0
 256 335 213 292 213 230 c 0
137 681 m 1
 265 737 l 1
 415 577 l 1
 317 531 l 1
 137 681 l 1
EndSplineSet
EndChar

StartChar: aacute.alt
Encoding: 65538 -1 342
Width: 630
VWidth: 0
Flags: HMW
LayerCount: 2
Fore
SplineSet
405 460 m 1
 577 460 l 1
 577 0 l 1
 405 0 l 1
 405 460 l 1
31 230 m 0
 31 387 138 470 247 470 c 0
 362 470 448 379 448 230 c 0
 448 81 362 -10 247 -10 c 0
 138 -10 31 73 31 230 c 0
213 230 m 0
 213 168 256 125 309 125 c 0
 355 125 404 164 404 230 c 0
 404 296 355 335 309 335 c 0
 256 335 213 292 213 230 c 0
466 681 m 1
 286 531 l 1
 188 577 l 1
 338 737 l 1
 466 681 l 1
EndSplineSet
EndChar

StartChar: acircumflex.alt
Encoding: 65539 -1 343
Width: 630
VWidth: 0
Flags: HMW
LayerCount: 2
Fore
SplineSet
405 460 m 1
 577 460 l 1
 577 0 l 1
 405 0 l 1
 405 460 l 1
31 230 m 0
 31 387 138 470 247 470 c 0
 362 470 448 379 448 230 c 0
 448 81 362 -10 247 -10 c 0
 138 -10 31 73 31 230 c 0
213 230 m 0
 213 168 256 125 309 125 c 0
 355 125 404 164 404 230 c 0
 404 296 355 335 309 335 c 0
 256 335 213 292 213 230 c 0
323 614 m 1
 238 531 l 1
 115 611 l 1
 323 751 l 1
 532 611 l 1
 409 531 l 1
 323 614 l 1
EndSplineSet
EndChar

StartChar: atilde.alt
Encoding: 65540 -1 344
Width: 630
VWidth: 0
Flags: HMW
LayerCount: 2
Fore
SplineSet
405 460 m 1
 577 460 l 1
 577 0 l 1
 405 0 l 1
 405 460 l 1
31 230 m 0
 31 387 138 470 247 470 c 0
 362 470 448 379 448 230 c 0
 448 81 362 -10 247 -10 c 0
 138 -10 31 73 31 230 c 0
213 230 m 0
 213 168 256 125 309 125 c 0
 355 125 404 164 404 230 c 0
 404 296 355 335 309 335 c 0
 256 335 213 292 213 230 c 0
126 605 m 1
 136 654 181 703 250 703 c 0
 317 703 333 650 390 650 c 0
 417 650 438 672 458 704 c 1
 537 621 l 1
 521 584 460 532 394 532 c 0
 339 532 300 587 249 587 c 0
 212 587 203 551 203 536 c 1
 126 605 l 1
EndSplineSet
EndChar

StartChar: adieresis.alt
Encoding: 65541 -1 345
Width: 630
VWidth: 0
Flags: HMW
LayerCount: 2
Fore
SplineSet
405 460 m 1
 577 460 l 1
 577 0 l 1
 405 0 l 1
 405 460 l 1
31 230 m 0
 31 387 138 470 247 470 c 0
 362 470 448 379 448 230 c 0
 448 81 362 -10 247 -10 c 0
 138 -10 31 73 31 230 c 0
213 230 m 0
 213 168 256 125 309 125 c 0
 355 125 404 164 404 230 c 0
 404 296 355 335 309 335 c 0
 256 335 213 292 213 230 c 0
346 620 m 0
 346 674 389 710 443 710 c 0
 497 710 541 674 541 620 c 0
 541 566 497 531 443 531 c 0
 389 531 346 566 346 620 c 0
89 620 m 0
 89 674 133 710 187 710 c 0
 241 710 285 674 285 620 c 0
 285 566 241 531 187 531 c 0
 133 531 89 566 89 620 c 0
EndSplineSet
EndChar

StartChar: aring.alt
Encoding: 65542 -1 346
Width: 630
VWidth: 0
Flags: HMW
LayerCount: 2
Fore
SplineSet
405 460 m 1
 577 460 l 1
 577 0 l 1
 405 0 l 1
 405 460 l 1
31 230 m 0
 31 387 138 470 247 470 c 0
 362 470 448 379 448 230 c 0
 448 81 362 -10 247 -10 c 0
 138 -10 31 73 31 230 c 0
213 230 m 0
 213 168 256 125 309 125 c 0
 355 125 404 164 404 230 c 0
 404 296 355 335 309 335 c 0
 256 335 213 292 213 230 c 0
183 651 m 0
 183 722 240 771 315 771 c 0
 390 771 447 722 447 651 c 0
 447 580 390 531 315 531 c 0
 240 531 183 580 183 651 c 0
270 651 m 0
 270 622 290 605 315 605 c 0
 340 605 360 622 360 651 c 0
 360 680 340 698 315 698 c 0
 290 698 270 680 270 651 c 0
EndSplineSet
EndChar

StartChar: amacron.alt
Encoding: 65543 -1 347
Width: 630
VWidth: 0
Flags: HMW
LayerCount: 2
Fore
SplineSet
405 460 m 1
 577 460 l 1
 577 0 l 1
 405 0 l 1
 405 460 l 1
31 230 m 0
 31 387 138 470 247 470 c 0
 362 470 448 379 448 230 c 0
 448 81 362 -10 247 -10 c 0
 138 -10 31 73 31 230 c 0
213 230 m 0
 213 168 256 125 309 125 c 0
 355 125 404 164 404 230 c 0
 404 296 355 335 309 335 c 0
 256 335 213 292 213 230 c 0
132 531 m 1
 132 678 l 1
 511 678 l 1
 511 531 l 1
 132 531 l 1
EndSplineSet
EndChar

StartChar: abreve.alt
Encoding: 65544 -1 348
Width: 630
VWidth: 0
Flags: HMW
LayerCount: 2
Fore
SplineSet
405 460 m 1
 577 460 l 1
 577 0 l 1
 405 0 l 1
 405 460 l 1
31 230 m 0
 31 387 138 470 247 470 c 0
 362 470 448 379 448 230 c 0
 448 81 362 -10 247 -10 c 0
 138 -10 31 73 31 230 c 0
213 230 m 0
 213 168 256 125 309 125 c 0
 355 125 404 164 404 230 c 0
 404 296 355 335 309 335 c 0
 256 335 213 292 213 230 c 0
145 679 m 1
 253 679 l 1
 253 641 281 624 311 624 c 0
 341 624 370 641 370 679 c 1
 477 679 l 1
 477 594 416 531 311 531 c 0
 206 531 145 594 145 679 c 1
EndSplineSet
EndChar

StartChar: aogonek.alt
Encoding: 65545 -1 349
Width: 630
VWidth: 0
Flags: HMW
LayerCount: 2
Fore
SplineSet
405 460 m 1
 577 460 l 1
 577 0 l 1
 405 0 l 1
 405 460 l 1
31 230 m 0
 31 387 138 470 247 470 c 0
 362 470 448 379 448 230 c 0
 448 81 362 -10 247 -10 c 0
 138 -10 31 73 31 230 c 0
213 230 m 0
 213 168 256 125 309 125 c 0
 355 125 404 164 404 230 c 0
 404 296 355 335 309 335 c 0
 256 335 213 292 213 230 c 0
541 -106 m 1
 574 -180 l 1
 559 -200 529 -220 470 -220 c 0
 410 -220 355 -187 355 -120 c 0
 355 -53 425 -11 495 25 c 1
 536 0 l 1
 484 -30 459 -63 459 -92 c 0
 459 -113 469 -126 491 -126 c 0
 509 -126 527 -119 541 -106 c 1
EndSplineSet
EndChar

StartChar: dagger
Encoding: 8224 8224 350
Width: 650
VWidth: 0
Flags: HMW
LayerCount: 2
Fore
SplineSet
90 540 m 1
 561 540 l 1
 561 400 l 1
 90 400 l 1
 90 540 l 1
245 700 m 1
 406 700 l 1
 406 -150 l 1
 245 -150 l 1
 245 700 l 1
EndSplineSet
EndChar

StartChar: daggerdbl
Encoding: 8225 8225 351
Width: 650
VWidth: 0
Flags: HMW
LayerCount: 2
Fore
SplineSet
90 168 m 1
 561 168 l 1
 561 29 l 1
 90 29 l 1
 90 168 l 1
90 540 m 1
 561 540 l 1
 561 400 l 1
 90 400 l 1
 90 540 l 1
245 700 m 1
 406 700 l 1
 406 -150 l 1
 245 -150 l 1
 245 700 l 1
EndSplineSet
EndChar

StartChar: ellipsis
Encoding: 8230 8230 352
Width: 932
VWidth: 0
Flags: HMW
LayerCount: 2
Fore
SplineSet
59 76 m 0
 59 133 103 180 165 180 c 0
 227 180 270 133 270 76 c 0
 270 19 227 -27 165 -27 c 0
 103 -27 59 19 59 76 c 0
359 76 m 0
 359 133 403 180 465 180 c 0
 527 180 570 133 570 76 c 0
 570 19 527 -27 465 -27 c 0
 403 -27 359 19 359 76 c 0
659 76 m 0
 659 133 703 180 765 180 c 0
 827 180 870 133 870 76 c 0
 870 19 827 -27 765 -27 c 0
 703 -27 659 19 659 76 c 0
EndSplineSet
EndChar

StartChar: uniFF10
Encoding: 65296 65296 353
Width: 644
VWidth: 0
Flags: HMW
LayerCount: 2
Fore
SplineSet
207 350 m 0
 207 227 254 151 322 151 c 0
 390 151 436 227 436 350 c 0
 436 473 390 549 322 549 c 0
 254 549 207 473 207 350 c 0
21 350 m 0
 21 583 144 714 322 714 c 0
 508 714 622 583 622 350 c 0
 622 117 508 -14 322 -14 c 0
 144 -14 21 117 21 350 c 0
EndSplineSet
EndChar

StartChar: uniFF11
Encoding: 65297 65297 354
Width: 644
VWidth: 0
Flags: HMW
LayerCount: 2
Fore
SplineSet
107 479 m 1
 107 644 l 1
 472 714 l 1
 472 0 l 1
 286 0 l 1
 286 521 l 1
 107 479 l 1
EndSplineSet
EndChar

StartChar: uniFF12
Encoding: 65298 65298 355
Width: 644
VWidth: 0
Flags: HMW
LayerCount: 2
Fore
SplineSet
9 0 m 1
 316 314 l 2
 375 378 411 418 411 473 c 0
 411 513 385 550 328 550 c 0
 270 550 231 502 231 436 c 1
 41 436 l 1
 41 585 141 715 334 715 c 0
 513 715 611 598 611 484 c 0
 611 408 570 349 508 299 c 2
 363 177 l 1
 632 177 l 1
 632 0 l 1
 9 0 l 1
EndSplineSet
EndChar

StartChar: uniFF13
Encoding: 65299 65299 356
Width: 644
VWidth: 0
Flags: HMW
LayerCount: 2
Fore
SplineSet
274 337 m 1
 274 419 l 1
 348 419 400 459 400 505 c 0
 400 539 377 562 329 562 c 0
 280 562 244 531 244 486 c 1
 67 486 l 1
 67 615 170 714 329 714 c 0
 497 714 591 629 591 518 c 0
 591 391 449 337 274 337 c 1
320 -18 m 0
 141 -18 37 104 37 233 c 1
 228 233 l 1
 228 163 276 135 328 135 c 0
 380 135 420 155 420 211 c 0
 420 261 380 301 274 301 c 1
 274 395 l 1
 474 395 611 336 611 193 c 0
 611 70 505 -18 320 -18 c 0
EndSplineSet
EndChar

StartChar: uniFF14
Encoding: 65300 65300 357
Width: 644
VWidth: 0
Flags: HMW
LayerCount: 2
Fore
SplineSet
10 120 m 1
 169 255 l 1
 439 255 l 0
 456 284 l 0
 628 284 l 1
 628 120 l 1
 10 120 l 1
189 184 m 1
 10 120 l 1
 382 700 l 1
 534 700 l 1
 534 0 l 1
 332 0 l 1
 332 156 l 0
 356 167 l 0
 356 438 l 1
 189 184 l 1
EndSplineSet
EndChar

StartChar: uniFF15
Encoding: 65301 65301 358
Width: 644
VWidth: 0
Flags: HMW
LayerCount: 2
Fore
SplineSet
608 222 m 0
 608 55 450 -14 315 -14 c 0
 186 -14 95 20 25 60 c 1
 89 226 l 1
 152 182 221 163 266 163 c 0
 346 163 395 186 395 246 c 0
 395 306 328 325 266 325 c 0
 215 325 135 318 64 287 c 1
 201 377 l 1
 255 435 319 449 394 449 c 0
 502 449 608 369 608 222 c 0
304 532 m 1
 245 369 l 1
 64 287 l 1
 163 700 l 1
 590 700 l 1
 590 532 l 1
 304 532 l 1
EndSplineSet
EndChar

StartChar: uniFF16
Encoding: 65302 65302 359
Width: 644
VWidth: 0
Flags: HMW
LayerCount: 2
Fore
SplineSet
215 250 m 0
 215 186 262 146 322 146 c 0
 382 146 428 186 428 250 c 0
 428 314 382 356 322 356 c 0
 262 356 215 314 215 250 c 0
307 696 m 1
 553 696 l 1
 324 454 l 1
 281 433 l 1
 322 470 350 478 401 478 c 0
 503 478 620 395 620 250 c 0
 620 70 485 -18 322 -18 c 0
 159 -18 23 70 23 250 c 0
 23 331 64 398 115 460 c 2
 307 696 l 1
EndSplineSet
EndChar

StartChar: uniFF17
Encoding: 65303 65303 360
Width: 644
VWidth: 0
Flags: HMW
LayerCount: 2
Fore
SplineSet
33 519 m 1
 33 700 l 1
 628 700 l 1
 289 0 l 1
 79 0 l 1
 344 519 l 1
 33 519 l 1
EndSplineSet
EndChar

StartChar: uniFF18
Encoding: 65304 65304 361
Width: 644
VWidth: 0
Flags: HMW
LayerCount: 2
Fore
SplineSet
89 531 m 0
 89 654 204 718 338 718 c 0
 472 718 588 654 588 531 c 0
 588 398 453 339 338 339 c 0
 223 339 89 398 89 531 c 0
271 513 m 0
 271 471 298 442 338 442 c 0
 378 442 406 471 406 513 c 0
 406 555 379 583 338 583 c 0
 297 583 271 555 271 513 c 0
64 190 m 0
 64 343 223 398 338 398 c 0
 453 398 613 343 613 190 c 0
 613 57 479 -18 338 -18 c 0
 197 -18 64 57 64 190 c 0
258 220 m 0
 258 166 292 138 338 138 c 0
 384 138 419 166 419 220 c 0
 419 264 384 299 338 299 c 0
 292 299 258 264 258 220 c 0
EndSplineSet
EndChar

StartChar: uniFF19
Encoding: 65305 65305 362
Width: 644
VWidth: 0
Flags: HMW
LayerCount: 2
Fore
SplineSet
428 450 m 0
 428 514 382 554 322 554 c 0
 262 554 215 514 215 450 c 0
 215 386 262 344 322 344 c 0
 382 344 428 386 428 450 c 0
336 4 m 1
 90 4 l 1
 319 246 l 1
 362 267 l 1
 321 230 293 222 242 222 c 0
 140 222 23 305 23 450 c 0
 23 630 159 718 322 718 c 0
 485 718 620 630 620 450 c 0
 620 369 578 302 527 240 c 2
 336 4 l 1
EndSplineSet
EndChar

StartChar: caron
Encoding: 711 711 363
Width: 480
VWidth: 0
Flags: HMW
LayerCount: 2
Fore
SplineSet
240 683 m 1
 326 765 l 1
 448 685 l 1
 240 545 l 1
 32 685 l 1
 154 765 l 1
 240 683 l 1
EndSplineSet
EndChar

StartChar: napostrophe
Encoding: 329 329 364
Width: 779
VWidth: 0
Flags: HMW
LayerCount: 2
Fore
SplineSet
418 460 m 1
 418 0 l 1
 245 0 l 1
 245 460 l 1
 418 460 l 1
545 280 m 2
 545 328 532 356 487 356 c 0
 445 356 418 330 418 280 c 1
 391 272 l 1
 391 381 440 471 559 471 c 0
 678 471 726 409 726 298 c 2
 726 0 l 1
 545 0 l 1
 545 280 l 2
106 700 m 1
 281 700 l 1
 177 438 l 1
 54 438 l 1
 106 700 l 1
EndSplineSet
EndChar

StartChar: IJ
Encoding: 306 306 365
Width: 663
VWidth: 0
Flags: HMW
LayerCount: 2
Fore
SplineSet
233 -52 m 1
 255 -69 286 -84 314 -84 c 0
 344 -84 378 -64 378 -6 c 2
 378 700 l 1
 591 700 l 1
 591 -52 l 2
 591 -193 472 -244 338 -244 c 0
 253 -244 174 -214 127 -186 c 1
 233 -52 l 1
72 700 m 1
 270 700 l 1
 270 0 l 1
 72 0 l 1
 72 700 l 1
EndSplineSet
EndChar

StartChar: ij
Encoding: 307 307 366
Width: 555
VWidth: 0
Flags: HMW
LayerCount: 2
Fore
SplineSet
317 627 m 0
 317 681 361 717 415 717 c 0
 469 717 513 681 513 627 c 0
 513 573 469 538 415 538 c 0
 361 538 317 573 317 627 c 0
238 -66 m 1
 251 -83 266 -92 284 -92 c 0
 314 -92 332 -72 332 -30 c 2
 332 460 l 1
 497 460 l 1
 497 -76 l 2
 497 -177 435 -244 311 -244 c 0
 236 -244 195 -211 172 -191 c 1
 238 -66 l 1
43 627 m 0
 43 681 87 717 141 717 c 0
 195 717 238 681 238 627 c 0
 238 573 195 538 141 538 c 0
 87 538 43 573 43 627 c 0
57 460 m 1
 223 460 l 1
 223 0 l 1
 57 0 l 1
 57 460 l 1
EndSplineSet
EndChar

StartChar: uni0237
Encoding: 567 567 367
Width: 278
VWidth: 0
Flags: HMW
LayerCount: 2
Fore
SplineSet
-38 -66 m 1
 -25 -83 -10 -92 8 -92 c 0
 38 -92 56 -72 56 -30 c 2
 56 460 l 1
 220 460 l 1
 220 -76 l 2
 220 -177 159 -244 35 -244 c 0
 -40 -244 -81 -211 -104 -191 c 1
 -38 -66 l 1
EndSplineSet
EndChar

StartChar: Sacute
Encoding: 346 346 368
Width: 647
VWidth: 0
Flags: HMW
LayerCount: 2
Fore
SplineSet
165 258 m 1
 215 178 260 141 331 141 c 0
 379 141 406 158 406 196 c 0
 406 246 348 259 268 291 c 0
 200 318 74 373 74 515 c 0
 74 637 180 718 334 718 c 0
 495 718 574 634 602 563 c 1
 457 482 l 1
 427 532 390 556 343 556 c 0
 301 556 272 538 272 509 c 0
 272 467 349 448 432 418 c 0
 537 381 611 317 611 198 c 0
 611 48 498 -26 327 -26 c 0
 196 -26 76 48 32 163 c 1
 165 258 l 1
514 928 m 1
 334 778 l 1
 236 824 l 1
 386 984 l 1
 514 928 l 1
EndSplineSet
EndChar

StartChar: sacute
Encoding: 347 347 369
Width: 471
VWidth: 0
Flags: HMW
LayerCount: 2
Fore
SplineSet
80 179 m 1
 165 118 217 107 242 107 c 0
 262 107 278 111 278 129 c 0
 278 159 204 165 150 191 c 0
 90 220 38 252 38 333 c 0
 38 425 125 470 231 470 c 0
 312 470 380 443 438 408 c 1
 387 293 l 1
 346 330 281 350 244 350 c 0
 215 350 203 344 203 328 c 0
 203 303 263 292 323 269 c 0
 388 244 450 213 450 130 c 0
 450 23 385 -22 270 -22 c 0
 169 -22 87 10 17 61 c 1
 80 179 l 1
411 681 m 1
 231 531 l 1
 134 577 l 1
 284 737 l 1
 411 681 l 1
EndSplineSet
EndChar

StartChar: Scircumflex
Encoding: 348 348 370
Width: 647
VWidth: 0
Flags: HMW
LayerCount: 2
Fore
SplineSet
165 258 m 1
 215 178 260 141 331 141 c 0
 379 141 406 158 406 196 c 0
 406 246 348 259 268 291 c 0
 200 318 74 373 74 515 c 0
 74 637 180 718 334 718 c 0
 495 718 574 634 602 563 c 1
 457 482 l 1
 427 532 390 556 343 556 c 0
 301 556 272 538 272 509 c 0
 272 467 349 448 432 418 c 0
 537 381 611 317 611 198 c 0
 611 48 498 -26 327 -26 c 0
 196 -26 76 48 32 163 c 1
 165 258 l 1
334 861 m 1
 248 778 l 1
 125 858 l 1
 334 998 l 1
 542 858 l 1
 420 778 l 1
 334 861 l 1
EndSplineSet
EndChar

StartChar: scircumflex
Encoding: 349 349 371
Width: 471
VWidth: 0
Flags: HMW
LayerCount: 2
Fore
SplineSet
80 179 m 1
 165 118 217 107 242 107 c 0
 262 107 278 111 278 129 c 0
 278 159 204 165 150 191 c 0
 90 220 38 252 38 333 c 0
 38 425 125 470 231 470 c 0
 312 470 380 443 438 408 c 1
 387 293 l 1
 346 330 281 350 244 350 c 0
 215 350 203 344 203 328 c 0
 203 303 263 292 323 269 c 0
 388 244 450 213 450 130 c 0
 450 23 385 -22 270 -22 c 0
 169 -22 87 10 17 61 c 1
 80 179 l 1
247 614 m 1
 162 531 l 1
 39 611 l 1
 247 751 l 1
 456 611 l 1
 333 531 l 1
 247 614 l 1
EndSplineSet
EndChar

StartChar: uni1E9E
Encoding: 7838 7838 372
Width: 941
VWidth: 0
Flags: HMW
LayerCount: 2
Fore
SplineSet
590 -18 m 0
 390 -18 323 124 323 233 c 1
 490 233 l 1
 490 175 529 135 590 135 c 0
 654 135 681 159 681 211 c 0
 681 273 626 301 536 301 c 1
 536 380 l 1
 727 380 873 324 873 185 c 0
 873 66 755 -18 590 -18 c 0
536 345 m 1
 536 420 l 1
 610 420 653 447 653 497 c 0
 653 539 611 564 511 564 c 0
 386 564 274 494 274 321 c 2
 274 0 l 1
 80 0 l 1
 80 354 l 2
 80 567 246 710 502 710 c 0
 731 710 853 632 853 518 c 0
 853 409 727 345 536 345 c 1
EndSplineSet
EndChar

StartChar: Zacute
Encoding: 377 377 373
Width: 641
VWidth: 0
Flags: HW
LayerCount: 2
Fore
SplineSet
63 527 m 1
 63 700 l 1
 630 700 l 1
 310 165 l 1
 590 165 l 1
 590 0 l 1
 7 0 l 1
 321 527 l 1
 63 527 l 1
522 928 m 1
 342 778 l 1
 245 824 l 1
 395 984 l 1
 522 928 l 1
EndSplineSet
EndChar

StartChar: zacute
Encoding: 378 378 374
Width: 540
VWidth: 0
Flags: HW
LayerCount: 2
Fore
SplineSet
244 304 m 1
 61 304 l 1
 61 460 l 1
 526 460 l 1
 313 156 l 1
 490 156 l 1
 490 0 l 1
 15 0 l 1
 244 304 l 1
470 685 m 1
 290 535 l 1
 192 581 l 1
 342 741 l 1
 470 685 l 1
EndSplineSet
EndChar

StartChar: Zdotaccent
Encoding: 379 379 375
Width: 641
VWidth: 0
Flags: HW
LayerCount: 2
Fore
SplineSet
63 527 m 1
 63 700 l 1
 630 700 l 1
 310 165 l 1
 590 165 l 1
 590 0 l 1
 7 0 l 1
 321 527 l 1
 63 527 l 1
249 868 m 0
 249 922 292 958 346 958 c 0
 400 958 444 922 444 868 c 0
 444 814 400 778 346 778 c 0
 292 778 249 814 249 868 c 0
EndSplineSet
EndChar

StartChar: zdotaccent
Encoding: 380 380 376
Width: 540
VWidth: 0
Flags: HW
LayerCount: 2
Fore
SplineSet
244 304 m 1
 61 304 l 1
 61 460 l 1
 526 460 l 1
 313 156 l 1
 490 156 l 1
 490 0 l 1
 15 0 l 1
 244 304 l 1
196 626 m 0
 196 680 239 716 293 716 c 0
 347 716 391 680 391 626 c 0
 391 572 347 536 293 536 c 0
 239 536 196 572 196 626 c 0
EndSplineSet
EndChar

StartChar: Tcaron
Encoding: 356 356 377
Width: 590
VWidth: 0
Flags: HW
LayerCount: 2
Fore
SplineSet
2 527 m 1
 2 700 l 1
 588 700 l 1
 588 527 l 1
 392 527 l 1
 392 0 l 1
 198 0 l 1
 198 527 l 1
 2 527 l 1
295 915 m 1
 381 998 l 1
 503 918 l 1
 295 778 l 1
 87 918 l 1
 209 998 l 1
 295 915 l 1
EndSplineSet
EndChar

StartChar: tcaron
Encoding: 357 357 378
Width: 523
VWidth: 0
Flags: HW
LayerCount: 2
Fore
SplineSet
5 460 m 1
 336 460 l 1
 336 320 l 1
 5 320 l 1
 5 460 l 1
88 620 m 1
 253 620 l 1
 253 0 l 1
 88 0 l 1
 88 620 l 1
405 779 m 1
 578 746 l 1
 448 496 l 1
 317 520 l 1
 405 779 l 1
EndSplineSet
EndChar

StartChar: Uring
Encoding: 366 366 379
Width: 722
VWidth: 0
Flags: HW
LayerCount: 2
Fore
SplineSet
67 700 m 1
 261 700 l 1
 261 246 l 2
 261 182 293 139 361 139 c 0
 429 139 462 182 462 246 c 2
 462 700 l 1
 656 700 l 1
 656 230 l 2
 656 43 522 -34 361 -34 c 0
 200 -34 67 43 67 230 c 2
 67 700 l 1
230 898 m 0
 230 969 286 1018 361 1018 c 0
 436 1018 493 969 493 898 c 0
 493 827 436 778 361 778 c 0
 286 778 230 827 230 898 c 0
316 898 m 0
 316 869 336 852 361 852 c 0
 386 852 406 869 406 898 c 0
 406 927 386 945 361 945 c 0
 336 945 316 927 316 898 c 0
EndSplineSet
EndChar

StartChar: uring
Encoding: 367 367 380
Width: 589
VWidth: 0
Flags: HW
LayerCount: 2
Fore
SplineSet
362 0 m 1
 362 460 l 1
 535 460 l 1
 535 0 l 1
 362 0 l 1
236 180 m 2
 236 132 248 104 293 104 c 0
 335 104 362 130 362 180 c 1
 388 188 l 1
 388 79 340 -11 221 -11 c 0
 102 -11 55 51 55 162 c 2
 55 460 l 1
 236 460 l 1
 236 180 l 2
163 651 m 0
 163 722 219 771 294 771 c 0
 369 771 427 722 427 651 c 0
 427 580 369 531 294 531 c 0
 219 531 163 580 163 651 c 0
249 651 m 0
 249 622 269 605 294 605 c 0
 319 605 339 622 339 651 c 0
 339 680 319 698 294 698 c 0
 269 698 249 680 249 651 c 0
EndSplineSet
EndChar

StartChar: Wcircumflex
Encoding: 372 372 381
Width: 1086
VWidth: 0
Flags: HW
LayerCount: 2
Fore
SplineSet
738 317 m 1
 853 700 l 1
 1085 700 l 1
 774 -43 l 1
 543 343 l 1
 313 -43 l 1
 2 700 l 1
 234 700 l 1
 349 317 l 1
 543 735 l 1
 738 317 l 1
543 878 m 1
 458 795 l 1
 335 875 l 1
 543 1015 l 1
 752 875 l 1
 629 795 l 1
 543 878 l 1
EndSplineSet
EndChar

StartChar: wcircumflex
Encoding: 373 373 382
Width: 784
VWidth: 0
Flags: HW
LayerCount: 2
Fore
SplineSet
-11 460 m 1
 168 460 l 1
 258 243 l 1
 391 495 l 1
 527 243 l 1
 617 460 l 1
 796 460 l 1
 548 -27 l 1
 392 228 l 1
 237 -27 l 1
 -11 460 l 1
391 638 m 1
 306 555 l 1
 183 635 l 1
 391 775 l 1
 600 635 l 1
 477 555 l 1
 391 638 l 1
EndSplineSet
EndChar

StartChar: Ycircumflex
Encoding: 374 374 383
Width: 689
VWidth: 0
Flags: HW
LayerCount: 2
Fore
SplineSet
468 700 m 1
 692 700 l 1
 444 280 l 1
 444 0 l 1
 246 0 l 1
 246 278 l 1
 -3 700 l 1
 221 700 l 1
 345 455 l 1
 468 700 l 1
345 861 m 1
 259 778 l 1
 136 858 l 1
 345 998 l 1
 553 858 l 1
 430 778 l 1
 345 861 l 1
EndSplineSet
EndChar

StartChar: ycircumflex
Encoding: 375 375 384
Width: 544
VWidth: 0
Flags: HW
LayerCount: 2
Fore
SplineSet
557 460 m 1
 257 -220 l 1
 86 -220 l 1
 194 29 l 1
 -12 460 l 1
 176 460 l 1
 325 88 l 1
 234 89 l 1
 382 460 l 1
 557 460 l 1
272 614 m 1
 187 531 l 1
 64 611 l 1
 272 751 l 1
 481 611 l 1
 358 531 l 1
 272 614 l 1
EndSplineSet
EndChar

StartChar: uni0123
Encoding: 291 291 385
Width: 570
VWidth: 0
Flags: HW
LayerCount: 2
Fore
SplineSet
41 -34 m 1
 207 -34 l 1
 213 -88 250 -107 300 -107 c 0
 362 -107 404 -66 404 10 c 2
 404 460 l 1
 569 460 l 1
 569 10 l 2
 569 -173 455 -242 308 -242 c 0
 125 -242 56 -157 41 -34 c 1
31 238 m 0
 31 395 138 470 247 470 c 0
 362 470 448 387 448 238 c 0
 448 89 362 6 247 6 c 0
 138 6 31 81 31 238 c 0
213 238 m 0
 213 176 256 142 309 142 c 0
 355 142 404 172 404 238 c 0
 404 304 355 335 309 335 c 0
 256 335 213 300 213 238 c 0
318 540 m 1
 152 600 l 1
 320 827 l 1
 445 783 l 1
 318 540 l 1
EndSplineSet
EndChar

StartChar: Hbar
Encoding: 294 294 386
Width: 807
VWidth: 0
Flags: HW
LayerCount: 2
Fore
SplineSet
119 280 m 1
 119 452 l 1
 663 452 l 1
 663 280 l 1
 119 280 l 1
542 700 m 1
 736 700 l 1
 736 0 l 1
 542 0 l 1
 542 700 l 1
72 700 m 1
 266 700 l 1
 266 0 l 1
 72 0 l 1
 72 700 l 1
5 536 m 1
 5 651 l 1
 803 651 l 1
 803 536 l 1
 5 536 l 1
EndSplineSet
EndChar

StartChar: hbar
Encoding: 295 295 387
Width: 581
VWidth: 0
Flags: HW
LayerCount: 2
Fore
SplineSet
228 780 m 1
 228 0 l 1
 55 0 l 1
 55 780 l 1
 228 780 l 1
354 280 m 2
 354 328 341 356 296 356 c 0
 254 356 228 330 228 280 c 1
 202 280 l 1
 202 389 250 479 369 479 c 0
 488 479 527 417 527 306 c 2
 527 0 l 1
 354 0 l 1
 354 280 l 2
5 589 m 1
 5 736 l 1
 342 736 l 1
 342 589 l 1
 5 589 l 1
EndSplineSet
EndChar

StartChar: Utilde
Encoding: 360 360 388
Width: 722
VWidth: 0
Flags: HW
LayerCount: 2
Fore
SplineSet
67 700 m 1
 261 700 l 1
 261 246 l 2
 261 182 293 139 361 139 c 0
 429 139 462 182 462 246 c 2
 462 700 l 1
 656 700 l 1
 656 230 l 2
 656 43 522 -34 361 -34 c 0
 200 -34 67 43 67 230 c 2
 67 700 l 1
156 852 m 1
 166 901 211 950 280 950 c 0
 347 950 363 897 420 897 c 0
 447 897 468 919 488 951 c 1
 567 868 l 1
 551 831 490 779 424 779 c 0
 369 779 330 834 279 834 c 0
 242 834 233 798 233 783 c 1
 156 852 l 1
EndSplineSet
EndChar

StartChar: utilde
Encoding: 361 361 389
Width: 589
VWidth: 0
Flags: HW
LayerCount: 2
Fore
SplineSet
362 0 m 1
 362 460 l 1
 535 460 l 1
 535 0 l 1
 362 0 l 1
236 180 m 2
 236 132 248 104 293 104 c 0
 335 104 362 130 362 180 c 1
 388 188 l 1
 388 79 340 -11 221 -11 c 0
 102 -11 55 51 55 162 c 2
 55 460 l 1
 236 460 l 1
 236 180 l 2
89 605 m 1
 99 654 145 703 214 703 c 0
 281 703 297 650 354 650 c 0
 381 650 402 672 422 704 c 1
 500 621 l 1
 484 584 424 532 358 532 c 0
 303 532 264 587 213 587 c 0
 176 587 167 551 167 536 c 1
 89 605 l 1
EndSplineSet
EndChar

StartChar: Umacron
Encoding: 362 362 390
Width: 722
VWidth: 0
Flags: HW
LayerCount: 2
Fore
SplineSet
67 700 m 1
 261 700 l 1
 261 246 l 2
 261 182 293 139 361 139 c 0
 429 139 462 182 462 246 c 2
 462 700 l 1
 656 700 l 1
 656 230 l 2
 656 43 522 -34 361 -34 c 0
 200 -34 67 43 67 230 c 2
 67 700 l 1
173 778 m 1
 173 926 l 1
 551 926 l 1
 551 778 l 1
 173 778 l 1
EndSplineSet
EndChar

StartChar: umacron
Encoding: 363 363 391
Width: 589
VWidth: 0
Flags: HW
LayerCount: 2
Fore
SplineSet
362 0 m 1
 362 460 l 1
 535 460 l 1
 535 0 l 1
 362 0 l 1
236 180 m 2
 236 132 248 104 293 104 c 0
 335 104 362 130 362 180 c 1
 388 188 l 1
 388 79 340 -11 221 -11 c 0
 102 -11 55 51 55 162 c 2
 55 460 l 1
 236 460 l 1
 236 180 l 2
106 531 m 1
 106 678 l 1
 484 678 l 1
 484 531 l 1
 106 531 l 1
EndSplineSet
EndChar

StartChar: Ubreve
Encoding: 364 364 392
Width: 722
VWidth: 0
Flags: HW
LayerCount: 2
Fore
SplineSet
67 700 m 1
 261 700 l 1
 261 246 l 2
 261 182 293 139 361 139 c 0
 429 139 462 182 462 246 c 2
 462 700 l 1
 656 700 l 1
 656 230 l 2
 656 43 522 -34 361 -34 c 0
 200 -34 67 43 67 230 c 2
 67 700 l 1
195 926 m 1
 303 926 l 1
 303 888 331 871 361 871 c 0
 391 871 420 888 420 926 c 1
 527 926 l 1
 527 841 466 778 361 778 c 0
 256 778 195 841 195 926 c 1
EndSplineSet
EndChar

StartChar: ubreve
Encoding: 365 365 393
Width: 589
VWidth: 0
Flags: HW
LayerCount: 2
Fore
SplineSet
362 0 m 1
 362 460 l 1
 535 460 l 1
 535 0 l 1
 362 0 l 1
236 180 m 2
 236 132 248 104 293 104 c 0
 335 104 362 130 362 180 c 1
 388 188 l 1
 388 79 340 -11 221 -11 c 0
 102 -11 55 51 55 162 c 2
 55 460 l 1
 236 460 l 1
 236 180 l 2
129 679 m 1
 236 679 l 1
 236 641 265 624 295 624 c 0
 325 624 354 641 354 679 c 1
 461 679 l 1
 461 594 400 531 295 531 c 0
 190 531 129 594 129 679 c 1
EndSplineSet
EndChar

StartChar: uni0400
Encoding: 1024 1024 394
Width: 550
VWidth: 0
Flags: HW
LayerCount: 2
Fore
SplineSet
204 0 m 1
 204 157 l 1
 557 157 l 1
 557 0 l 1
 204 0 l 1
204 543 m 1
 204 700 l 1
 557 700 l 1
 557 543 l 1
 204 543 l 1
204 288 m 1
 204 440 l 1
 537 440 l 1
 537 288 l 1
 204 288 l 1
72 700 m 1
 258 700 l 1
 258 0 l 1
 72 0 l 1
 72 700 l 1
134 928 m 1
 262 984 l 1
 412 824 l 1
 314 778 l 1
 134 928 l 1
EndSplineSet
EndChar

StartChar: uni0401
Encoding: 1025 1025 395
Width: 550
VWidth: 0
Flags: HW
LayerCount: 2
Fore
SplineSet
204 0 m 1
 204 157 l 1
 557 157 l 1
 557 0 l 1
 204 0 l 1
204 543 m 1
 204 700 l 1
 557 700 l 1
 557 543 l 1
 204 543 l 1
204 288 m 1
 204 440 l 1
 537 440 l 1
 537 288 l 1
 204 288 l 1
72 700 m 1
 258 700 l 1
 258 0 l 1
 72 0 l 1
 72 700 l 1
345 868 m 0
 345 922 389 958 443 958 c 0
 497 958 541 922 541 868 c 0
 541 814 497 778 443 778 c 0
 389 778 345 814 345 868 c 0
88 868 m 0
 88 922 132 958 186 958 c 0
 240 958 284 922 284 868 c 0
 284 814 240 778 186 778 c 0
 132 778 88 814 88 868 c 0
EndSplineSet
EndChar

StartChar: uni0403
Encoding: 1027 1027 396
Width: 527
VWidth: 0
Flags: HW
LayerCount: 2
Fore
SplineSet
80 700 m 1
 518 700 l 1
 518 527 l 1
 274 527 l 1
 274 0 l 1
 80 0 l 1
 80 700 l 1
479 928 m 1
 299 778 l 1
 201 824 l 1
 351 984 l 1
 479 928 l 1
EndSplineSet
EndChar

StartChar: uni040C
Encoding: 1036 1036 397
Width: 565
VWidth: 0
Flags: HW
LayerCount: 2
Fore
SplineSet
72 700 m 1
 274 700 l 1
 274 0 l 1
 72 0 l 1
 72 700 l 1
500 700 m 1
 727 700 l 1
 449 372 l 1
 742 0 l 1
 507 0 l 1
 218 366 l 1
 500 700 l 1
517 912 m 1
 337 762 l 1
 239 808 l 1
 389 968 l 1
 517 912 l 1
EndSplineSet
EndChar

StartChar: uni040D
Encoding: 1037 1037 398
Width: 798
VWidth: 0
Flags: HW
LayerCount: 2
Fore
SplineSet
722 500 m 1
 72 -35 l 1
 77 200 l 1
 727 735 l 1
 722 500 l 1
258 700 m 1
 258 148 l 1
 72 -35 l 1
 72 700 l 1
 258 700 l 1
727 735 m 1
 727 0 l 1
 541 0 l 1
 541 544 l 1
 727 735 l 1
247 911 m 1
 374 967 l 1
 524 807 l 1
 427 761 l 1
 247 911 l 1
EndSplineSet
EndChar

StartChar: uni040E
Encoding: 1038 1038 399
Width: 617
VWidth: 0
Flags: HW
LayerCount: 2
Fore
SplineSet
630 700 m 1
 301 0 l 1
 113 0 l 1
 208 215 l 1
 -12 700 l 1
 194 700 l 1
 339 299 l 1
 260 299 l 1
 438 700 l 1
 630 700 l 1
143 926 m 1
 250 926 l 1
 250 888 279 871 309 871 c 0
 339 871 368 888 368 926 c 1
 475 926 l 1
 475 841 414 778 309 778 c 0
 204 778 143 841 143 926 c 1
EndSplineSet
EndChar

StartChar: uni0410
Encoding: 1040 1040 400
Width: 756
VWidth: 0
Flags: HW
LayerCount: 2
Fore
SplineSet
195 113 m 1
 201 256 l 1
 560 256 l 1
 565 113 l 1
 195 113 l 1
378 413 m 1
 286 204 l 1
 299 160 l 1
 217 0 l 1
 -3 0 l 1
 378 747 l 1
 760 0 l 1
 540 0 l 1
 460 153 l 1
 471 203 l 1
 378 413 l 1
EndSplineSet
EndChar

StartChar: uni0411
Encoding: 1041 1041 401
Width: 709
VWidth: 0
Flags: HW
LayerCount: 2
Fore
SplineSet
127 288 m 1
 127 440 l 1
 432 440 l 2
 567 440 670 351 670 222 c 0
 670 93 567 0 432 0 c 2
 127 0 l 1
 127 157 l 1
 383 157 l 2
 441 157 471 176 471 222 c 0
 471 268 441 288 383 288 c 2
 127 288 l 1
80 700 m 1
 617 700 l 1
 617 543 l 1
 278 543 l 1
 278 0 l 1
 80 0 l 1
 80 700 l 1
EndSplineSet
EndChar

StartChar: uni0412
Encoding: 1042 1042 402
Width: 695
VWidth: 0
Flags: HW
LayerCount: 2
Fore
SplineSet
216 342 m 1
 216 423 l 1
 329 423 l 2
 383 423 411 448 411 490 c 0
 411 532 383 552 329 552 c 2
 266 552 l 1
 266 148 l 1
 347 148 l 2
 405 148 451 162 451 224 c 0
 451 278 405 292 347 292 c 2
 216 292 l 1
 216 398 l 1
 371 398 l 2
 506 398 653 339 653 194 c 0
 653 55 546 0 371 0 c 2
 72 0 l 1
 72 700 l 1
 353 700 l 2
 502 700 613 640 613 521 c 0
 613 406 502 342 353 342 c 2
 216 342 l 1
EndSplineSet
EndChar

StartChar: uni0413
Encoding: 1043 1043 403
Width: 527
VWidth: 0
Flags: HW
LayerCount: 2
Fore
SplineSet
80 700 m 1
 518 700 l 1
 518 527 l 1
 274 527 l 1
 274 0 l 1
 80 0 l 1
 80 700 l 1
EndSplineSet
EndChar

StartChar: uni0414
Encoding: 1044 1044 404
Width: 907
VWidth: 0
Flags: HW
LayerCount: 2
Fore
SplineSet
451 397 m 1
 321 30 l 1
 94 30 l 1
 451 735 l 1
 809 30 l 1
 582 30 l 1
 451 397 l 1
667 0 m 1
 236 0 l 1
 236 -110 l 1
 40 -110 l 1
 40 165 l 1
 863 165 l 1
 863 -110 l 1
 667 -110 l 1
 667 0 l 1
EndSplineSet
EndChar

StartChar: uni0415
Encoding: 1045 1045 405
Width: 618
VWidth: 0
Flags: HW
LayerCount: 2
Fore
SplineSet
204 0 m 1
 204 157 l 1
 557 157 l 1
 557 0 l 1
 204 0 l 1
204 543 m 1
 204 700 l 1
 557 700 l 1
 557 543 l 1
 204 543 l 1
204 288 m 1
 204 440 l 1
 537 440 l 1
 537 288 l 1
 204 288 l 1
72 700 m 1
 258 700 l 1
 258 0 l 1
 72 0 l 1
 72 700 l 1
EndSplineSet
EndChar

StartChar: uni0416
Encoding: 1046 1046 406
Width: 1141
VWidth: 0
Flags: HW
LayerCount: 2
Fore
SplineSet
238 700 m 1
 523 370 l 1
 223 0 l 1
 -3 0 l 1
 299 372 l 1
 12 700 l 1
 238 700 l 1
470 700 m 1
 672 700 l 1
 672 0 l 1
 470 0 l 1
 470 700 l 1
895 700 m 1
 1129 700 l 1
 842 372 l 1
 1144 0 l 1
 910 0 l 1
 620 370 l 1
 895 700 l 1
EndSplineSet
EndChar

StartChar: uni0417
Encoding: 1047 1047 407
Width: 686
VWidth: 0
Flags: HW
LayerCount: 2
Fore
SplineSet
311 337 m 1
 311 419 l 1
 405 419 451 451 451 497 c 0
 451 535 417 562 357 562 c 0
 288 562 252 531 252 486 c 1
 74 486 l 1
 74 615 171 714 358 714 c 0
 546 714 642 629 642 518 c 0
 642 391 490 337 311 337 c 1
365 -18 m 0
 140 -18 44 104 44 233 c 1
 235 233 l 1
 236 163 291 135 357 135 c 0
 423 135 471 155 471 211 c 0
 471 261 429 301 311 301 c 1
 311 395 l 1
 514 395 662 336 662 193 c 0
 662 70 564 -18 365 -18 c 0
EndSplineSet
EndChar

StartChar: uni0418
Encoding: 1048 1048 408
Width: 798
VWidth: 0
Flags: HW
LayerCount: 2
Fore
SplineSet
722 500 m 1
 72 -35 l 1
 77 200 l 1
 727 735 l 1
 722 500 l 1
258 700 m 1
 258 148 l 1
 72 -35 l 1
 72 700 l 1
 258 700 l 1
727 735 m 1
 727 0 l 1
 541 0 l 1
 541 544 l 1
 727 735 l 1
EndSplineSet
EndChar

StartChar: uni0419
Encoding: 1049 1049 409
Width: 798
VWidth: 0
Flags: HW
LayerCount: 2
Fore
SplineSet
722 500 m 1
 72 -35 l 1
 77 200 l 1
 727 735 l 1
 722 500 l 1
258 700 m 1
 258 148 l 1
 72 -35 l 1
 72 700 l 1
 258 700 l 1
727 735 m 1
 727 0 l 1
 541 0 l 1
 541 544 l 1
 727 735 l 1
257 921 m 1
 364 921 l 1
 364 883 393 866 423 866 c 0
 453 866 482 883 482 921 c 1
 589 921 l 1
 589 836 528 773 423 773 c 0
 318 773 257 836 257 921 c 1
EndSplineSet
EndChar

StartChar: uni041A
Encoding: 1050 1050 410
Width: 739
VWidth: 0
Flags: HW
LayerCount: 2
Fore
SplineSet
72 700 m 1
 274 700 l 1
 274 0 l 1
 72 0 l 1
 72 700 l 1
500 700 m 1
 727 700 l 1
 449 372 l 1
 742 0 l 1
 507 0 l 1
 218 366 l 1
 500 700 l 1
EndSplineSet
EndChar

StartChar: uni041B
Encoding: 1051 1051 411
Width: 802
VWidth: 0
Flags: HW
LayerCount: 2
Fore
SplineSet
723 700 m 25
 723 0 l 1
 525 0 l 1
 525 527 l 1
 316 527 l 25
 316 313 l 2
 316 95 229 0 10 0 c 1
 10 163 l 1
 78 163 119 212 119 294 c 2
 119 700 l 25
 723 700 l 25
EndSplineSet
EndChar

StartChar: uni041C
Encoding: 1052 1052 412
Width: 914
VWidth: 0
Flags: HW
LayerCount: 2
Fore
SplineSet
277 322 m 1
 238 0 l 1
 32 0 l 1
 153 735 l 1
 457 332 l 1
 762 735 l 1
 883 0 l 1
 677 0 l 1
 638 322 l 1
 457 65 l 1
 277 322 l 1
EndSplineSet
EndChar

StartChar: uni041D
Encoding: 1053 1053 413
Width: 807
VWidth: 0
Flags: HW
LayerCount: 2
Fore
SplineSet
119 280 m 1
 119 452 l 1
 663 452 l 1
 663 280 l 1
 119 280 l 1
542 700 m 1
 736 700 l 1
 736 0 l 1
 542 0 l 1
 542 700 l 1
72 700 m 1
 266 700 l 1
 266 0 l 1
 72 0 l 1
 72 700 l 1
EndSplineSet
EndChar

StartChar: uni041E
Encoding: 1054 1054 414
Width: 830
VWidth: 0
Flags: HW
LayerCount: 2
Fore
SplineSet
238 350 m 0
 238 236 306 158 415 158 c 0
 524 158 593 236 593 350 c 0
 593 464 528 542 415 542 c 0
 306 542 238 464 238 350 c 0
32 350 m 0
 32 570 199 718 415 718 c 0
 635 718 798 570 798 350 c 0
 798 130 639 -26 415 -26 c 0
 191 -26 32 130 32 350 c 0
EndSplineSet
EndChar

StartChar: uni041F
Encoding: 1055 1055 415
Width: 787
VWidth: 0
Flags: HW
LayerCount: 2
Fore
SplineSet
510 527 m 1
 278 527 l 1
 278 0 l 1
 80 0 l 1
 80 700 l 1
 708 700 l 1
 708 0 l 1
 510 0 l 1
 510 527 l 1
EndSplineSet
EndChar

StartChar: uni0420
Encoding: 1056 1056 416
Width: 645
VWidth: 0
Flags: HW
LayerCount: 2
Fore
SplineSet
72 700 m 1
 266 700 l 1
 266 0 l 1
 72 0 l 1
 72 700 l 1
196 543 m 1
 196 700 l 1
 330 700 l 2
 521 700 613 611 613 466 c 0
 613 321 521 232 330 232 c 2
 196 232 l 1
 196 388 l 1
 330 388 l 2
 392 388 427 416 427 466 c 0
 427 516 392 543 330 543 c 2
 196 543 l 1
EndSplineSet
EndChar

StartChar: uni0421
Encoding: 1057 1057 417
Width: 704
VWidth: 0
Flags: HW
LayerCount: 2
Fore
SplineSet
244 350 m 0
 244 231 333 165 439 165 c 0
 538 165 598 209 643 255 c 1
 643 51 l 1
 587 10 528 -18 426 -18 c 0
 192 -18 32 129 32 350 c 0
 32 571 192 718 426 718 c 0
 528 718 587 690 643 649 c 1
 643 445 l 1
 598 491 538 535 439 535 c 0
 333 535 244 469 244 350 c 0
EndSplineSet
EndChar

StartChar: uni0422
Encoding: 1058 1058 418
Width: 590
VWidth: 0
Flags: HW
LayerCount: 2
Fore
SplineSet
2 527 m 1
 2 700 l 1
 588 700 l 1
 588 527 l 1
 392 527 l 1
 392 0 l 1
 198 0 l 1
 198 527 l 1
 2 527 l 1
EndSplineSet
EndChar

StartChar: uni0423
Encoding: 1059 1059 419
Width: 633
VWidth: 0
Flags: HW
LayerCount: 2
Fore
SplineSet
646 700 m 1
 317 0 l 1
 121 0 l 1
 216 215 l 1
 -12 700 l 1
 202 700 l 1
 346 299 l 1
 268 299 l 1
 446 700 l 1
 646 700 l 1
EndSplineSet
EndChar

StartChar: uni0424
Encoding: 1060 1060 420
Width: 976
VWidth: 0
Flags: HW
LayerCount: 2
Fore
SplineSet
389 700 m 1
 587 700 l 1
 587 0 l 1
 389 0 l 1
 389 700 l 1
739 350 m 0
 739 433 674 454 568 454 c 2
 408 454 l 2
 302 454 238 433 238 350 c 0
 238 267 302 246 408 246 c 2
 568 246 l 2
 674 246 739 267 739 350 c 0
937 350 m 0
 937 181 793 80 609 80 c 2
 368 80 l 2
 184 80 40 181 40 350 c 0
 40 519 184 620 368 620 c 2
 609 620 l 2
 793 620 937 519 937 350 c 0
EndSplineSet
EndChar

StartChar: uni0425
Encoding: 1061 1061 421
Width: 724
VWidth: 0
Flags: HW
LayerCount: 2
Fore
SplineSet
466 700 m 1
 708 700 l 1
 485 356 l 1
 722 0 l 1
 481 0 l 1
 364 215 l 1
 243 0 l 1
 2 0 l 1
 246 356 l 1
 27 700 l 1
 268 700 l 1
 366 514 l 1
 466 700 l 1
EndSplineSet
EndChar

StartChar: uni0426
Encoding: 1062 1062 422
Width: 889
VWidth: 0
Flags: HW
LayerCount: 2
Fore
SplineSet
270 173 m 1
 542 173 l 1
 542 700 l 1
 740 700 l 1
 740 173 l 1
 857 173 l 1
 857 -142 l 1
 669 -142 l 1
 669 0 l 1
 72 0 l 1
 72 700 l 1
 270 700 l 1
 270 173 l 1
EndSplineSet
EndChar

StartChar: uni0427
Encoding: 1063 1063 423
Width: 748
VWidth: 0
Flags: HW
LayerCount: 2
Fore
SplineSet
314 203 m 1
 379 375 l 1
 531 375 l 1
 531 203 l 1
 314 203 l 1
466 700 m 1
 668 700 l 1
 668 0 l 1
 466 0 l 1
 466 700 l 1
269 700 m 1
 269 482 l 2
 269 408 317 375 379 375 c 1
 314 203 l 1
 159 203 72 318 72 453 c 2
 72 700 l 1
 269 700 l 1
EndSplineSet
EndChar

StartChar: uni0428
Encoding: 1064 1064 424
Width: 1110
VWidth: 0
Flags: HW
LayerCount: 2
Fore
SplineSet
836 173 m 1
 836 700 l 1
 1030 700 l 1
 1030 0 l 1
 80 0 l 1
 80 700 l 1
 274 700 l 1
 274 173 l 1
 462 173 l 1
 462 700 l 1
 648 700 l 1
 648 173 l 1
 836 173 l 1
EndSplineSet
EndChar

StartChar: uni0429
Encoding: 1065 1065 425
Width: 1187
VWidth: 0
Flags: HW
LayerCount: 2
Fore
SplineSet
836 173 m 1
 836 700 l 1
 1030 700 l 1
 1030 173 l 1
 1147 173 l 1
 1147 -142 l 1
 959 -142 l 1
 959 0 l 1
 80 0 l 1
 80 700 l 1
 274 700 l 1
 274 173 l 1
 462 173 l 1
 462 700 l 1
 648 700 l 1
 648 173 l 1
 836 173 l 1
EndSplineSet
EndChar

StartChar: uni042A
Encoding: 1066 1066 426
Width: 758
VWidth: 0
Flags: HW
LayerCount: 2
Fore
SplineSet
310 312 m 1
 310 468 l 1
 445 468 l 2
 636 468 727 379 727 234 c 0
 727 89 636 0 445 0 c 2
 310 0 l 1
 310 157 l 1
 445 157 l 2
 507 157 541 184 541 234 c 0
 541 284 507 312 445 312 c 2
 310 312 l 1
190 528 m 1
 10 528 l 1
 10 700 l 1
 384 700 l 1
 384 0 l 1
 190 0 l 1
 190 528 l 1
EndSplineSet
EndChar

StartChar: uni042B
Encoding: 1067 1067 427
Width: 950
VWidth: 0
Flags: HW
LayerCount: 2
Fore
SplineSet
681 700 m 1
 879 700 l 1
 879 0 l 1
 681 0 l 1
 681 700 l 1
72 700 m 1
 266 700 l 1
 266 0 l 1
 72 0 l 1
 72 700 l 1
196 312 m 1
 196 468 l 1
 330 468 l 2
 521 468 613 379 613 234 c 0
 613 89 521 0 330 0 c 2
 196 0 l 1
 196 157 l 1
 330 157 l 2
 392 157 427 184 427 234 c 0
 427 284 392 312 330 312 c 2
 196 312 l 1
EndSplineSet
EndChar

StartChar: uni042C
Encoding: 1068 1068 428
Width: 644
VWidth: 0
Flags: HW
LayerCount: 2
Fore
SplineSet
72 700 m 1
 266 700 l 1
 266 0 l 1
 72 0 l 1
 72 700 l 1
196 312 m 1
 196 468 l 1
 330 468 l 2
 521 468 613 379 613 234 c 0
 613 89 521 0 330 0 c 2
 196 0 l 1
 196 157 l 1
 330 157 l 2
 392 157 427 184 427 234 c 0
 427 284 392 312 330 312 c 2
 196 312 l 1
EndSplineSet
EndChar

StartChar: uni042D
Encoding: 1069 1069 429
Width: 704
VWidth: 0
Flags: HW
LayerCount: 2
Fore
SplineSet
138 274 m 1
 138 426 l 1
 497 426 l 1
 497 274 l 1
 138 274 l 1
485 350 m 0
 485 469 372 543 266 543 c 0
 167 543 99 499 62 469 c 1
 62 649 l 1
 118 690 177 718 279 718 c 0
 513 718 673 571 673 350 c 0
 673 129 513 -18 279 -18 c 0
 177 -18 118 10 62 51 c 1
 62 231 l 1
 99 201 167 157 266 157 c 0
 372 157 485 231 485 350 c 0
EndSplineSet
EndChar

StartChar: uni042E
Encoding: 1070 1070 430
Width: 1174
VWidth: 0
Flags: HW
LayerCount: 2
Fore
SplineSet
119 280 m 1
 119 452 l 1
 492 452 l 1
 492 280 l 1
 119 280 l 1
72 700 m 1
 266 700 l 1
 266 0 l 1
 72 0 l 1
 72 700 l 1
582 350 m 0
 582 236 651 158 760 158 c 0
 869 158 938 236 938 350 c 0
 938 464 873 542 760 542 c 0
 651 542 582 464 582 350 c 0
377 350 m 0
 377 570 544 718 760 718 c 0
 980 718 1143 570 1143 350 c 0
 1143 130 984 -26 760 -26 c 0
 536 -26 377 130 377 350 c 0
EndSplineSet
EndChar

StartChar: uni042F
Encoding: 1071 1071 431
Width: 672
VWidth: 0
Flags: HW
LayerCount: 2
Fore
SplineSet
411 309 m 1
 228 0 l 1
 2 0 l 1
 212 309 l 1
 411 309 l 1
601 700 m 1
 601 0 l 1
 407 0 l 1
 407 700 l 1
 601 700 l 1
477 536 m 1
 342 536 l 2
 280 536 246 508 246 458 c 0
 246 408 280 379 342 379 c 2
 477 379 l 1
 477 232 l 1
 326 232 l 2
 135 232 44 329 44 466 c 0
 44 603 135 700 326 700 c 2
 477 700 l 1
 477 536 l 1
EndSplineSet
EndChar

StartChar: uni0430
Encoding: 1072 1072 432
Width: 561
VWidth: 0
Flags: HW
LayerCount: 2
Fore
SplineSet
196 138 m 0
 196 109 222 97 252 97 c 0
 300 97 345 118 345 188 c 1
 361 130 l 1
 361 41 287 -10 192 -10 c 0
 90 -10 22 40 22 130 c 0
 22 219 101 277 222 277 c 0
 286 277 356 254 378 231 c 1
 378 153 l 1
 347 177 316 189 266 189 c 0
 223 189 196 168 196 138 c 0
119 309 m 1
 64 422 l 1
 122 447 201 474 284 474 c 0
 413 474 510 419 510 322 c 2
 510 0 l 1
 345 0 l 1
 345 283 l 2
 345 320 318 346 268 346 c 0
 202 346 141 321 119 309 c 1
EndSplineSet
Substitution2: "alt a" a.alt
EndChar

StartChar: uni0431
Encoding: 1073 1073 433
Width: 626
VWidth: 0
Flags: HW
LayerCount: 2
Fore
SplineSet
322 331 m 1
 338 470 l 1
 489 470 592 369 592 230 c 0
 592 91 488 -10 321 -10 c 0
 154 -10 35 91 35 290 c 1
 228 230 l 1
 228 166 271 130 321 130 c 0
 371 130 414 166 414 230 c 0
 414 294 372 331 322 331 c 1
152 230 m 1
 152 379 223 470 338 470 c 1
 322 331 l 1
 271 331 228 296 228 230 c 1
 152 230 l 1
35 290 m 1
 35 477 73 597 229 664 c 0
 320 703 369 732 379 780 c 1
 544 780 l 1
 534 691 452 610 343 567 c 0
 221 518 186 440 186 340 c 2
 218 229 l 1
 35 290 l 1
EndSplineSet
EndChar

StartChar: uni0432
Encoding: 1074 1074 434
Width: 545
VWidth: 0
Flags: HW
LayerCount: 2
Fore
SplineSet
174 240 m 1
 348 240 l 2
 443 240 516 214 516 125 c 0
 516 56 473 0 368 0 c 2
 174 0 l 1
 174 102 l 1
 307 102 l 2
 343 102 355 123 355 143 c 0
 355 163 343 182 307 182 c 2
 174 182 l 1
 174 240 l 1
174 220 m 1
 174 283 l 1
 297 283 l 2
 321 283 335 300 335 320 c 0
 335 340 321 358 297 358 c 2
 174 358 l 1
 174 460 l 1
 338 460 l 2
 423 460 496 424 496 335 c 0
 496 256 423 220 338 220 c 2
 174 220 l 1
75 460 m 1
 240 460 l 1
 240 0 l 1
 75 0 l 1
 75 460 l 1
EndSplineSet
EndChar

StartChar: uni0433
Encoding: 1075 1075 435
Width: 366
VWidth: 0
Flags: HW
LayerCount: 2
Fore
SplineSet
56 460 m 1
 365 460 l 1
 365 320 l 1
 225 320 l 1
 225 0 l 1
 56 0 l 1
 56 460 l 1
EndSplineSet
EndChar

StartChar: uni0434
Encoding: 1076 1076 436
Width: 719
VWidth: 0
Flags: HW
LayerCount: 2
Fore
SplineSet
357 266 m 1
 255 30 l 1
 92 70 l 1
 357 495 l 1
 623 70 l 1
 460 30 l 1
 357 266 l 1
514 0 m 1
 206 0 l 1
 206 -90 l 1
 40 -90 l 1
 40 131 l 1
 675 131 l 1
 675 -90 l 1
 514 -90 l 1
 514 0 l 1
EndSplineSet
EndChar

StartChar: uni0435
Encoding: 1077 1077 437
Width: 593
VWidth: 0
Flags: HW
LayerCount: 2
Fore
SplineSet
126 194 m 1
 126 283 l 1
 372 283 l 1
 365 333 342 360 295 360 c 0
 239 360 207 322 207 252 c 1
 205 230 l 1
 205 140 249 109 299 109 c 0
 350 109 386 128 405 162 c 1
 561 131 l 1
 515 45 440 -10 305 -10 c 0
 124 -10 31 91 31 230 c 0
 31 247 32 263 35 279 c 0
 54 392 140 470 299 470 c 0
 469 470 557 383 557 238 c 0
 557 230 557 213 555 194 c 1
 126 194 l 1
EndSplineSet
EndChar

StartChar: uni0436
Encoding: 1078 1078 438
Width: 941
VWidth: 0
Flags: HW
LayerCount: 2
Fore
SplineSet
725 460 m 1
 921 460 l 1
 728 268 l 1
 941 0 l 1
 745 0 l 1
 525 270 l 1
 725 460 l 1
552 460 m 1
 552 0 l 1
 389 0 l 1
 389 460 l 1
 552 460 l 1
217 460 m 1
 417 270 l 1
 197 0 l 1
 0 0 l 1
 214 268 l 1
 20 460 l 1
 217 460 l 1
EndSplineSet
EndChar

StartChar: uni0437
Encoding: 1079 1079 439
Width: 556
VWidth: 0
Flags: HW
LayerCount: 2
Fore
SplineSet
283 230 m 1
 283 290 l 1
 311 290 329 301 329 321 c 0
 329 341 312 350 291 350 c 0
 267 350 245 333 244 302 c 1
 90 302 l 1
 90 405 170 470 287 470 c 0
 419 470 492 403 492 334 c 0
 492 265 428 230 283 230 c 1
288 -10 m 0
 151 -10 70 56 60 161 c 1
 222 161 l 1
 232 123 258 108 288 108 c 0
 324 108 352 124 352 154 c 0
 352 184 329 200 283 200 c 1
 283 260 l 1
 428 260 512 214 512 135 c 0
 512 46 415 -10 288 -10 c 0
EndSplineSet
EndChar

StartChar: uni0438
Encoding: 1080 1080 440
Width: 605
VWidth: 0
Flags: HW
LayerCount: 2
Fore
SplineSet
545 315 m 1
 56 -35 l 1
 61 145 l 1
 550 495 l 1
 545 315 l 1
220 460 m 1
 220 115 l 1
 56 -35 l 1
 56 460 l 1
 220 460 l 1
550 495 m 1
 550 0 l 1
 385 0 l 1
 385 345 l 1
 550 495 l 1
EndSplineSet
EndChar

StartChar: uni0439
Encoding: 1081 1081 441
Width: 605
VWidth: 0
Flags: HW
LayerCount: 2
Fore
SplineSet
545 315 m 1
 56 -35 l 1
 61 145 l 1
 550 495 l 1
 545 315 l 1
220 460 m 1
 220 115 l 1
 56 -35 l 1
 56 460 l 1
 220 460 l 1
550 495 m 1
 550 0 l 1
 385 0 l 1
 385 345 l 1
 550 495 l 1
145 695 m 1
 253 695 l 1
 253 657 281 640 311 640 c 0
 341 640 370 657 370 695 c 1
 477 695 l 1
 477 610 416 547 311 547 c 0
 206 547 145 610 145 695 c 1
EndSplineSet
EndChar

StartChar: uni043A
Encoding: 1082 1082 442
Width: 617
VWidth: 0
Flags: HW
LayerCount: 2
Fore
SplineSet
54 460 m 1
 219 460 l 1
 219 0 l 1
 54 0 l 1
 54 460 l 1
385 460 m 1
 590 460 l 1
 394 270 l 1
 610 0 l 1
 409 0 l 1
 189 270 l 1
 385 460 l 1
EndSplineSet
EndChar

StartChar: uni043B
Encoding: 1083 1083 443
Width: 642
VWidth: 0
Flags: HW
LayerCount: 2
Fore
SplineSet
563 460 m 25
 563 0 l 1
 398 0 l 1
 398 304 l 1
 248 304 l 25
 248 160 l 2
 248 51 195 0 10 0 c 1
 10 154 l 1
 50 154 83 158 83 208 c 2
 83 460 l 25
 563 460 l 25
EndSplineSet
EndChar

StartChar: uni043C
Encoding: 1084 1084 444
Width: 671
VWidth: 0
Flags: HW
LayerCount: 2
Fore
SplineSet
496 0 m 1
 437 300 l 1
 522 495 l 1
 667 0 l 1
 496 0 l 1
304 150 m 1
 522 495 l 1
 532 279 l 1
 334 -31 l 1
 304 150 l 1
334 -31 m 1
 139 279 l 1
 149 495 l 1
 364 150 l 1
 334 -31 l 1
5 0 m 1
 149 495 l 1
 235 300 l 1
 176 0 l 1
 5 0 l 1
EndSplineSet
EndChar

StartChar: uni043D
Encoding: 1085 1085 445
Width: 629
VWidth: 0
Flags: HW
LayerCount: 2
Fore
SplineSet
102 181 m 1
 102 304 l 1
 482 304 l 1
 482 181 l 1
 102 181 l 1
410 460 m 1
 575 460 l 1
 575 0 l 1
 410 0 l 1
 410 460 l 1
55 460 m 1
 220 460 l 1
 220 0 l 1
 55 0 l 1
 55 460 l 1
EndSplineSet
EndChar

StartChar: uni043E
Encoding: 1086 1086 446
Width: 602
VWidth: 0
Flags: HW
LayerCount: 2
Fore
SplineSet
31 230 m 0
 31 377 146 471 301 471 c 0
 456 471 571 377 571 230 c 0
 571 83 456 -10 301 -10 c 0
 146 -10 31 83 31 230 c 0
209 230 m 0
 209 166 251 130 301 130 c 0
 351 130 394 166 394 230 c 0
 394 294 351 331 301 331 c 0
 251 331 209 294 209 230 c 0
EndSplineSet
EndChar

StartChar: uni043F
Encoding: 1087 1087 447
Width: 589
VWidth: 0
Flags: HW
LayerCount: 2
Fore
SplineSet
535 460 m 1
 535 0 l 1
 370 0 l 1
 370 312 l 1
 220 312 l 1
 220 0 l 1
 55 0 l 1
 55 460 l 1
 535 460 l 1
EndSplineSet
EndChar

StartChar: uni0440
Encoding: 1088 1088 448
Width: 630
VWidth: 0
Flags: HW
LayerCount: 2
Fore
SplineSet
227 -220 m 1
 54 -220 l 1
 54 460 l 1
 227 460 l 1
 227 -220 l 1
600 230 m 0
 600 65 493 -18 384 -18 c 0
 261 -18 191 81 191 230 c 0
 191 379 261 478 384 478 c 0
 493 478 600 395 600 230 c 0
418 230 m 0
 418 292 374 326 321 326 c 0
 275 326 227 296 227 230 c 0
 227 164 275 134 321 134 c 0
 374 134 418 168 418 230 c 0
EndSplineSet
EndChar

StartChar: uni0441
Encoding: 1089 1089 449
Width: 487
VWidth: 0
Flags: HW
LayerCount: 2
Fore
SplineSet
208 230 m 0
 208 162 258 124 320 124 c 0
 370 124 419 145 448 188 c 1
 448 26 l 1
 416 4 375 -10 304 -10 c 0
 145 -10 30 83 30 230 c 0
 30 377 145 470 304 470 c 0
 375 470 416 453 448 435 c 1
 448 273 l 1
 419 316 362 336 320 336 c 0
 258 336 208 290 208 230 c 0
EndSplineSet
EndChar

StartChar: uni0442
Encoding: 1090 1090 450
Width: 348
VWidth: 0
Flags: HW
LayerCount: 2
Fore
SplineSet
5 460 m 1
 344 460 l 1
 344 320 l 1
 5 320 l 1
 5 460 l 1
92 440 m 1
 257 440 l 1
 257 0 l 1
 92 0 l 1
 92 440 l 1
EndSplineSet
EndChar

StartChar: uni0443
Encoding: 1091 1091 451
Width: 544
VWidth: 0
Flags: HW
LayerCount: 2
Fore
SplineSet
557 460 m 1
 257 -220 l 1
 86 -220 l 1
 194 29 l 1
 -12 460 l 1
 176 460 l 1
 325 88 l 1
 234 89 l 1
 382 460 l 1
 557 460 l 1
EndSplineSet
EndChar

StartChar: uni0444
Encoding: 1092 1092 452
Width: 690
VWidth: 0
Flags: HW
LayerCount: 2
Fore
SplineSet
265 560 m 1
 426 560 l 1
 426 -100 l 1
 265 -100 l 1
 265 560 l 1
31 230 m 0
 31 377 146 471 345 471 c 0
 544 471 660 377 660 230 c 0
 660 83 544 -10 345 -10 c 0
 146 -10 31 83 31 230 c 0
185 230 m 0
 185 166 227 130 345 130 c 0
 463 130 506 166 506 230 c 0
 506 294 463 331 345 331 c 0
 227 331 185 294 185 230 c 0
EndSplineSet
EndChar

StartChar: uni0445
Encoding: 1093 1093 453
Width: 564
VWidth: 0
Flags: HW
LayerCount: 2
Fore
SplineSet
364 460 m 1
 555 460 l 1
 373 236 l 1
 565 0 l 1
 374 0 l 1
 286 122 l 1
 199 0 l 1
 0 0 l 1
 195 236 l 1
 10 460 l 1
 209 460 l 1
 286 351 l 1
 364 460 l 1
EndSplineSet
EndChar

StartChar: uni0446
Encoding: 1094 1094 454
Width: 637
VWidth: 0
Flags: HW
LayerCount: 2
Fore
SplineSet
543 140 m 1
 623 140 l 1
 623 -106 l 1
 460 -106 l 1
 460 0 l 1
 55 0 l 1
 55 460 l 1
 228 460 l 1
 228 140 l 1
 370 140 l 1
 370 460 l 1
 543 460 l 1
 543 140 l 1
EndSplineSet
EndChar

StartChar: uni0447
Encoding: 1095 1095 455
Width: 565
VWidth: 0
Flags: HW
LayerCount: 2
Fore
SplineSet
230 108 m 1
 286 247 l 1
 387 247 l 1
 387 108 l 1
 230 108 l 1
330 460 m 1
 503 460 l 1
 503 0 l 1
 330 0 l 1
 330 460 l 1
223 460 m 1
 223 312 l 2
 223 264 242 247 286 247 c 1
 230 108 l 1
 91 108 50 193 50 328 c 2
 50 460 l 1
 223 460 l 1
EndSplineSet
EndChar

StartChar: uni0448
Encoding: 1096 1096 456
Width: 853
VWidth: 0
Flags: HW
LayerCount: 2
Fore
SplineSet
509 140 m 1
 634 140 l 1
 634 460 l 1
 799 460 l 1
 799 0 l 1
 55 0 l 1
 55 460 l 1
 220 460 l 1
 220 140 l 1
 344 140 l 1
 344 460 l 1
 509 460 l 1
 509 140 l 1
EndSplineSet
EndChar

StartChar: uni0449
Encoding: 1097 1097 457
Width: 892
VWidth: 0
Flags: HW
LayerCount: 2
Fore
SplineSet
509 140 m 1
 633 140 l 1
 633 460 l 1
 798 460 l 1
 798 140 l 1
 878 140 l 1
 878 -106 l 1
 715 -106 l 1
 715 0 l 1
 55 0 l 1
 55 460 l 1
 220 460 l 1
 220 140 l 1
 344 140 l 1
 344 460 l 1
 509 460 l 1
 509 140 l 1
EndSplineSet
EndChar

StartChar: uni044A
Encoding: 1098 1098 458
Width: 622
VWidth: 0
Flags: HW
LayerCount: 2
Fore
SplineSet
265 204 m 1
 265 310 l 1
 408 310 l 2
 503 310 576 266 576 167 c 0
 576 68 503 0 408 0 c 2
 265 0 l 1
 265 130 l 1
 374 130 l 2
 400 130 416 145 416 167 c 0
 416 189 400 204 374 204 c 2
 265 204 l 1
138 320 m 1
 5 320 l 1
 5 460 l 1
 294 460 l 1
 294 0 l 1
 138 0 l 1
 138 320 l 1
EndSplineSet
EndChar

StartChar: uni044B
Encoding: 1099 1099 459
Width: 798
VWidth: 0
Flags: HW
LayerCount: 2
Fore
SplineSet
571 460 m 1
 744 460 l 1
 744 0 l 1
 571 0 l 1
 571 460 l 1
55 460 m 1
 228 460 l 1
 228 0 l 1
 55 0 l 1
 55 460 l 1
195 204 m 1
 195 310 l 1
 338 310 l 2
 433 310 506 266 506 167 c 0
 506 68 433 0 338 0 c 2
 195 0 l 1
 195 130 l 1
 303 130 l 2
 329 130 345 145 345 167 c 0
 345 189 329 204 303 204 c 2
 195 204 l 1
EndSplineSet
EndChar

StartChar: uni044C
Encoding: 1100 1100 460
Width: 563
VWidth: 0
Flags: HW
LayerCount: 2
Fore
SplineSet
63 460 m 1
 236 460 l 1
 236 0 l 1
 63 0 l 1
 63 460 l 1
203 204 m 1
 203 310 l 1
 346 310 l 2
 441 310 514 266 514 167 c 0
 514 68 441 0 346 0 c 2
 203 0 l 1
 203 130 l 1
 311 130 l 2
 337 130 353 145 353 167 c 0
 353 189 337 204 311 204 c 2
 203 204 l 1
EndSplineSet
EndChar

StartChar: uni044D
Encoding: 1101 1101 461
Width: 497
VWidth: 0
Flags: HW
LayerCount: 2
Fore
SplineSet
105 283 m 1
 397 283 l 1
 383 177 l 1
 105 177 l 1
 105 283 l 1
290 230 m 0
 290 314 240 360 178 360 c 0
 136 360 79 340 50 297 c 1
 50 435 l 1
 82 453 123 470 194 470 c 0
 353 470 468 377 468 230 c 0
 468 83 353 -10 194 -10 c 0
 123 -10 82 4 50 26 c 1
 50 164 l 1
 79 121 128 100 178 100 c 0
 240 100 290 138 290 230 c 0
EndSplineSet
EndChar

StartChar: uni044E
Encoding: 1102 1102 462
Width: 842
VWidth: 0
Flags: HW
LayerCount: 2
Fore
SplineSet
102 181 m 1
 102 304 l 1
 401 304 l 1
 401 181 l 1
 102 181 l 1
55 460 m 1
 220 460 l 1
 220 0 l 1
 55 0 l 1
 55 460 l 1
271 230 m 0
 271 377 387 471 542 471 c 0
 697 471 812 377 812 230 c 0
 812 83 697 -10 542 -10 c 0
 387 -10 271 83 271 230 c 0
449 230 m 0
 449 166 492 130 542 130 c 0
 592 130 634 166 634 230 c 0
 634 294 592 331 542 331 c 0
 492 331 449 294 449 230 c 0
EndSplineSet
EndChar

StartChar: uni044F
Encoding: 1103 1103 463
Width: 563
VWidth: 0
Flags: HW
LayerCount: 2
Fore
SplineSet
214 0 m 1
 37 0 l 1
 167 200 l 1
 327 200 l 1
 214 0 l 1
526 0 m 1
 353 0 l 1
 353 460 l 1
 526 460 l 1
 526 0 l 1
410 270 m 1
 410 160 l 1
 267 160 l 2
 172 160 75 207 75 314 c 0
 75 421 172 460 267 460 c 2
 410 460 l 1
 410 325 l 1
 295 325 l 2
 261 325 244 320 244 298 c 0
 244 276 261 270 295 270 c 2
 410 270 l 1
EndSplineSet
EndChar

